<?xml version="1.0" encoding="UTF-8"?>
<svg width="200px" height="200px" viewBox="0 0 200 200" version="1.1" xmlns="http://www.w3.org/2000/svg" xmlns:xlink="http://www.w3.org/1999/xlink">
    <!-- Generator: Sketch 52.6 (67491) - http://www.bohemiancoding.com/sketch -->
    <title>bear_icon</title>
    <desc>Created with Sketch.</desc>
    <defs>
        <circle id="path-1" cx="100" cy="100" r="100"></circle>
    </defs>
    <g id="Page-1" stroke="none" stroke-width="1" fill="none" fill-rule="evenodd">
        <g id="Desktop" transform="translate(-40.000000, -672.000000)">
            <g id="group" transform="translate(0.000000, 672.000000)">
                <g id="bear_icon" transform="translate(40.000000, 0.000000)">
                    <g>
                        <mask id="mask-2" fill="white">
                            <use xlink:href="#path-1"></use>
                        </mask>
                        <use id="Oval" fill="#F8F09B" xlink:href="#path-1"></use>
                        <g id="bear" mask="url(#mask-2)">
                            <g transform="translate(29.000000, 80.000000)">
                                <g>
                                    <path d="M56.8101266,18.0087755 C56.5518987,20.6206122 56.3453165,22.5069388 56.1559494,24.4577551 C55.9149367,26.9244898 56.2592405,27.6822449 58.6865823,27.8273469 C62.8275253,28.3593972 67.0266519,28.3593972 71.1675949,27.8273469 C75.9891628,27.2937941 80.8424033,27.0514564 85.6972152,27.1018367 C88.4,26.9567347 91.0855696,26.714898 93.7883544,26.5053061 C96.4409016,26.5170579 98.7132168,24.7300171 99.1594937,22.2812245 C100.3428,17.5700136 102.630278,13.1642984 105.856203,9.38326531 C109.299241,5.5944898 113.516962,2.93428571 119.21519,3.64367347 C120.560672,3.7415571 121.841163,4.22574577 122.882025,5.03020408 C128.700759,10.7053061 130.921519,19.1857143 123.29519,25.4412245 C121.086412,27.1170392 118.627169,28.4804551 115.995949,29.4879592 C112.053671,31.1002041 111.743797,31.5838776 113.482532,35.4532653 C113.655024,35.9310651 113.856188,36.3993616 114.085063,36.8559184 C117.528101,42.7244898 118.664304,49.2702041 120.798987,55.5257143 C122.589367,60.7977551 124.465823,66.1020408 126.703797,71.2612245 C129.784407,78.2928346 131.93506,85.650942 133.107848,93.1716327 C134.163118,100.834681 134.737943,108.549063 134.829367,116.275102 C135.067579,120.842457 134.485658,125.414868 133.107848,129.801837 C130.12962,138.266122 126.032405,146.311224 116.082025,149.745306 C110.383797,151.696122 105.029873,154.582041 98.8668354,155.130204 C94.838481,155.468776 90.7929114,155.56551 86.8162025,155.871837 C84.5437975,156.049184 82.2886076,156.42 79.9301266,156.710204 C79.1452074,156.888485 78.3439633,156.996454 77.5372152,157.032653 C66.2096203,156.54898 54.7959494,156.774694 43.9675949,152.695714 C38.441519,150.615918 32.7605063,148.939184 27.0967089,147.214082 C19.7641047,144.836277 13.2720405,140.613761 8.3321519,135.009388 C2.75152313,129.110696 0.490177738,121.082179 2.23797468,113.373061 C3.17067187,108.909204 4.4773282,104.521078 6.14582278,100.249388 C8.52151899,94.0583673 11.3103797,87.9963265 13.875443,81.8859184 C14.8222785,79.644898 15.8035443,77.42 16.5610127,75.1144898 C18.7380712,68.212775 21.5667861,61.5062429 25.0136709,55.0742857 C29.2658228,47.5934694 32.3473418,39.6289796 36.1518987,31.9708163 C37.0976257,30.1471066 37.147909,28.027989 36.2896203,26.1667347 C35.2698651,24.0813684 34.4237994,21.9252832 33.7589873,19.7177551 C33.1402602,16.7576446 32.7946815,13.7531591 32.7260759,10.737551 C32.6055696,6.44897959 35.3083544,3.54693878 38.9063291,1.6122449 C40.7851031,0.661735166 42.9643476,0.370175729 45.0521519,0.79 C48.2682417,1.44704815 51.0701002,3.28153261 52.8334177,5.88469388 C55.4329114,9.81857143 57.4470886,13.897551 56.8101266,18.0087755 Z" id="Path" fill="#9E8787"></path>
                                    <path d="M48.9255696,25.3283673 C47.3582341,25.1080137 45.8061643,24.8011528 44.2774684,24.4093878 C38.8374684,22.7004082 35.2911392,14.22 38.0111392,9.52836735 C38.1995608,9.19404017 38.4570352,8.89810655 38.7686076,8.6577551 C40.1802532,7.69040816 45.3448101,8.54489796 46.0334177,10.0926531 C47.9270886,14.2683673 49.8035443,18.5085714 49.7174684,23.1840816 C49.5601494,23.9295729 49.2936665,24.6511493 48.9255696,25.3283673 Z" id="Path" fill="#6F575B"></path>
                                    <path d="M116.891139,12.2208163 C117.708744,12.3351386 118.519066,12.4912216 119.318481,12.6883673 C120.661266,13.0753061 121.590886,14.0265306 120.885063,15.2679592 C118.733165,19.0406122 117.442025,23.5871429 112.139747,24.9414286 C110.418228,25.3767347 109.178734,24.9414286 108.696709,23.4581633 C107.457215,20.2336735 112.139747,12.785102 115.823797,12.2691837 C116.013165,12.1885714 116.288608,12.2208163 116.891139,12.2208163 Z" id="Path" fill="#6F575B"></path>
                                    <path d="M97.6962025,112.131633 C97.4724051,113.88898 97.3518987,115.630204 96.9903797,117.323061 C96.2152986,121.919594 92.9604118,125.815298 88.3827848,127.625306 C82.1474075,130.220755 75.4086023,131.587236 68.5853165,131.639796 C68.0131237,131.582215 67.4359902,131.582215 66.8637975,131.639796 C59.1341772,133.252041 52.041519,130.817551 44.8455696,128.70551 C35.2739241,125.900204 30.4364557,116.468571 31.1939241,108.246122 C31.7548786,101.819601 34.1315348,95.6485786 38.08,90.3663265 C41.8783856,85.0602858 46.2954388,80.1665675 51.2496203,75.7755102 C53.6253165,73.6957143 55.398481,71.0838776 58.5832911,69.8908163 C63.0420253,68.2785714 67.638481,67.8432653 71.6324051,70.4389796 C74.7562613,72.5288266 77.4999782,75.0766091 79.7579747,77.9842857 C84.4405063,84.0140816 88.8590717,90.2104762 93.0136709,96.5734694 C96.0337559,101.273352 97.6509046,106.646484 97.6962025,112.131633 Z" id="Path" fill="#917D7C"></path>
                                    <path d="M98.7118987,108.020408 C98.4881013,109.632653 98.3848101,111.244898 98.0232911,112.857143 C97.2951998,117.208322 94.2241639,120.900943 89.8977215,122.627347 C83.9266995,125.086304 77.4835868,126.3809 70.9610127,126.432245 C70.3891168,126.369689 69.8113895,126.369689 69.2394937,126.432245 C61.8713924,128.04449 55.0886076,125.642245 48.236962,123.643061 C39.0956962,120.982857 34.4648101,112.034898 35.1878481,104.296122 C35.7313804,98.2057643 37.988587,92.3590802 41.7296203,87.3514286 C45.3490861,82.3065302 49.5520881,77.6511992 54.2622785,73.47 C56.5174684,71.5030612 58.2217722,69.0363265 61.2516456,67.8916327 C65.5210127,66.2793878 69.8592405,65.9408163 73.6982278,68.407551 C76.6918051,70.380799 79.3153867,72.8051597 81.4622785,75.5820408 C85.9382278,81.2732653 90.0698734,87.1740816 94.115443,93.1877551 C97.0500871,97.6523691 98.6384943,102.778121 98.7118987,108.020408 Z" id="Path" fill="#FBCFC7"></path>
                                    <path d="M84.4921519,57.4120408 C84.2334637,59.4759956 83.7841865,61.5150595 83.1493671,63.5063265 C82.0475949,66.0697959 80.0678481,66.1181633 78.3979747,63.8932653 C76.1695818,61.3264828 74.793049,58.2044813 74.438481,54.9130612 C74.3900552,53.4124719 74.6052424,51.9146275 75.075443,50.4793878 C75.2122107,49.900884 75.6289757,49.4150871 76.2027237,49.1653871 C76.7764717,48.915687 77.4416884,48.9305964 78.0020253,49.2057143 C79.9855037,49.9650417 81.7792379,51.1014285 83.2698734,52.5430612 C84.3544304,53.7683673 84.1306329,55.8320408 84.4921519,57.4120408 Z" id="Path" fill="#000000"></path>
                                    <path d="M65.0734177,53.8328571 C64.6086076,56.5897959 64.3331646,58.46 63.9888608,60.2818367 C63.7822785,61.474898 63.283038,62.41 61.7508861,62.5712245 C60.3985883,62.8254579 59.0213233,62.2579272 58.3078481,61.152449 C56.5863291,58.6212245 57.5331646,52.2689796 60.0293671,50.4955102 C60.7942064,50.092972 61.7134486,50.0395373 62.5255696,50.3504082 C64.0761732,50.8893178 65.0966016,52.2840594 65.0734177,53.8328571 Z" id="Path" fill="#000000"></path>
                                    <path d="M66.003038,115.098163 C64.5053165,113.227959 64.7807595,111.051429 64.7291139,108.95551 C64.6086076,104.328367 63.6617722,102.861224 58.8759494,101.619796 C54.0901266,100.378367 52.7473418,96.7346939 51.3356962,92.9942857 C51.1342744,92.4384154 51.1909906,91.8289144 51.4920476,91.314054 C51.7931047,90.7991937 52.3109082,90.4261653 52.9194937,90.2857143 C56.6896203,88.8185714 60.476962,87.6577551 64.6946835,88.5444898 C68.2410127,89.3022449 71.8906329,89.6569388 75.4197468,90.4469388 C78.2602532,91.0757143 78.3807595,91.6722449 77.1412658,94.1712245 C75.9017722,96.6702041 74.9549367,99.3142857 73.6982278,101.829388 C73.2563323,102.884521 72.4423217,103.766333 71.3913924,104.328367 C68.6886076,105.295714 68.7058228,107.149796 68.9296203,109.261837 C69.0585677,110.262009 69.1103475,111.269587 69.084557,112.276735 C69.1696736,113.058375 68.8697751,113.833734 68.2698854,114.382991 C67.6699956,114.932248 66.8355194,115.195519 66.003038,115.098163 Z" id="Path" fill="#000000"></path>
                                </g>
                            </g>
                        </g>
                    </g>
                </g>
            </g>
        </g>
    </g>
</svg>