<?xml version="1.0" encoding="UTF-8"?>
<svg width="30px" height="30px" viewBox="0 0 30 30" version="1.1" xmlns="http://www.w3.org/2000/svg" xmlns:xlink="http://www.w3.org/1999/xlink">
    <!-- Generator: Sketch 52.6 (67491) - http://www.bohemiancoding.com/sketch -->
    <title>favicon</title>
    <desc>Created with Sketch.</desc>
    <defs>
        <circle id="path-1" cx="15" cy="15" r="15"></circle>
    </defs>
    <g id="Page-1" stroke="none" stroke-width="1" fill="none" fill-rule="evenodd">
        <g id="Desktop" transform="translate(-41.000000, -25.000000)">
            <g id="header">
                <g id="header_icons" transform="translate(41.000000, 25.000000)">
                    <g id="joined_icon">
                        <g>
                            <mask id="mask-2" fill="white">
                                <use xlink:href="#path-1"></use>
                            </mask>
                            <use id="Oval" fill="#F8F09B" xlink:href="#path-1"></use>
                            <g id="bear_bird" mask="url(#mask-2)">
                                <g transform="translate(4.650000, 5.100000)">
                                    <g>
                                        <path d="M7.93670886,10.5604478 C7.90063291,10.9231343 7.87177215,11.1850746 7.84531646,11.4559701 C7.81164557,11.7985075 7.85974684,11.9037313 8.19886076,11.9238806 C8.77737486,11.9977625 9.36401754,11.9977625 9.94253165,11.9238806 C10.616133,11.84979 11.2941593,11.8161384 11.9724051,11.8231343 C12.35,11.8029851 12.7251899,11.769403 13.1027848,11.7402985 C13.4733612,11.7419304 13.790817,11.4937772 13.8531646,11.1537313 C14.0184795,10.4995201 14.3380535,9.88773084 14.7887342,9.36268657 C15.2697468,8.83656716 15.8589873,8.46716418 16.6550633,8.56567164 C16.843035,8.57926402 17.0219272,8.64649974 17.1673418,8.75820896 C17.9802532,9.54626866 18.2905063,10.7238806 17.2250633,11.5925373 C16.916484,11.8252454 16.5729134,12.0145729 16.2053165,12.1544776 C15.654557,12.3783582 15.6112658,12.4455224 15.8541772,12.9828358 C15.8782754,13.0491844 15.9063792,13.1142133 15.9383544,13.1776119 C16.4193671,13.9925373 16.5781013,14.9014925 16.8763291,15.7701493 C17.1264557,16.5022388 17.3886076,17.238806 17.7012658,17.9552239 C18.1316451,18.9316519 18.432104,19.9534182 18.5959494,20.9977612 C18.7433768,22.0618724 18.8236832,23.1331118 18.8364557,24.2059701 C18.8697353,24.8402052 18.7884375,25.4751423 18.5959494,26.0843284 C18.1798734,27.2597015 17.6074684,28.3768657 16.2173418,28.8537313 C15.4212658,29.1246269 14.6732911,29.5253731 13.8122785,29.6014925 C13.2494937,29.6485075 12.6843038,29.6619403 12.1287342,29.7044776 C11.8112658,29.7291045 11.4962025,29.780597 11.1667089,29.8208955 C11.057051,29.8456521 10.9451125,29.8606449 10.8324051,29.8656716 C9.24987342,29.7985075 7.65531646,29.8298507 6.14253165,29.2634328 C5.37050633,28.9746269 4.57683544,28.741791 3.78556962,28.5022388 C2.76116168,28.1720506 1.85418213,27.5857007 1.16405063,26.8074627 C0.384403967,25.9883547 0.0684807133,24.8734935 0.312658228,23.8029851 C0.442961512,23.1831221 0.625509087,22.5737752 0.858607595,21.980597 C1.19050633,21.1208955 1.58012658,20.2791045 1.93848101,19.430597 C2.07075949,19.119403 2.2078481,18.8104478 2.31367089,18.4902985 C2.61781877,17.5319081 3.01300688,16.6006213 3.49455696,15.7074627 C4.08860759,14.6686567 4.51911392,13.5626866 5.05063291,12.4992537 C5.18275654,12.2460086 5.1897814,11.9517423 5.06987342,11.6932836 C4.92740762,11.4037041 4.80920727,11.1043044 4.71632911,10.7977612 C4.6298893,10.3867124 4.58160992,9.9695016 4.57202532,9.55074627 C4.55518987,8.95522388 4.93278481,8.55223881 5.43544304,8.28358209 C5.69791882,8.15159179 6.00237209,8.11110507 6.29405063,8.16940299 C6.74335729,8.26064243 7.13479341,8.5153838 7.38113924,8.87686567 C7.7443038,9.42313433 8.0256962,9.98955224 7.93670886,10.5604478 Z" id="Path" fill="#9E8787"></path>
                                        <path d="M6.83518987,11.5768657 C6.61622388,11.5462668 6.39939061,11.5036553 6.18582278,11.4492537 C5.42582278,11.2119403 4.93037975,10.0343284 5.31037975,9.38283582 C5.33670334,9.33641026 5.37267403,9.29531614 5.41620253,9.2619403 C5.61341772,9.12761194 6.33493671,9.24626866 6.43113924,9.46119403 C6.6956962,10.0410448 6.9578481,10.6298507 6.94582278,11.2791045 C6.9238444,11.3826254 6.88661517,11.4828254 6.83518987,11.5768657 Z" id="Path" fill="#6F575B"></path>
                                        <path d="M16.3303797,9.75671642 C16.4446039,9.77259151 16.5578107,9.79426562 16.6694937,9.82164179 C16.8570886,9.87537313 16.986962,10.0074627 16.8883544,10.1798507 C16.5877215,10.7037313 16.4073418,11.3350746 15.6665823,11.5231343 C15.4260759,11.5835821 15.2529114,11.5231343 15.1855696,11.3171642 C15.0124051,10.869403 15.6665823,9.83507463 16.1812658,9.76343284 C16.2077215,9.75223881 16.2462025,9.75671642 16.3303797,9.75671642 Z" id="Path" fill="#6F575B"></path>
                                        <path d="M13.6487342,23.630597 C13.6174684,23.8746269 13.6006329,24.1164179 13.5501266,24.3514925 C13.4418432,24.9897792 12.9871164,25.530747 12.3475949,25.7820896 C11.476476,26.1425005 10.5350253,26.3322537 9.58177215,26.3395522 C9.50183346,26.3315564 9.42120452,26.3315564 9.34126582,26.3395522 C8.26139241,26.5634328 7.27050633,26.2253731 6.26518987,25.9320896 C4.92797468,25.5425373 4.2521519,24.2328358 4.35797468,23.0910448 C4.43634333,22.198641 4.76837619,21.3417165 5.32,20.608209 C5.85065681,19.8713981 6.46774512,19.1918434 7.15987342,18.5820896 C7.49177215,18.2932836 7.73949367,17.930597 8.18443038,17.7649254 C8.80734177,17.5410448 9.44949367,17.480597 10.0074684,17.8410448 C10.4438894,18.1312465 10.8272028,18.4850383 11.1426582,18.888806 C11.7968354,19.7261194 12.414135,20.5865672 12.994557,21.4701493 C13.4164806,22.1227874 13.6424058,22.8689148 13.6487342,23.630597 Z" id="Path" fill="#917D7C"></path>
                                        <path d="M13.7906329,23.0597015 C13.7593671,23.2835821 13.7449367,23.5074627 13.6944304,23.7313433 C13.5927117,24.3355595 13.16367,24.8483267 12.5592405,25.0880597 C11.7250536,25.429517 10.8249129,25.609288 9.91367089,25.6164179 C9.83377367,25.6077312 9.75306177,25.6077312 9.67316456,25.6164179 C8.64379747,25.8402985 7.69620253,25.5067164 6.73898734,25.2291045 C5.46189873,24.8597015 4.81493671,23.6171642 4.91594937,22.5425373 C4.99188402,21.696814 5.30722907,20.884928 5.82987342,20.1895522 C6.33553409,19.4890043 6.92271819,18.8425527 7.58075949,18.2619403 C7.89582278,17.988806 8.13392405,17.6462687 8.55721519,17.4873134 C9.15367089,17.2634328 9.75974684,17.2164179 10.2960759,17.5589552 C10.7142963,17.8329657 11.0808261,18.1696188 11.3807595,18.5552239 C12.0060759,19.3455224 12.5832911,20.1649254 13.148481,21 C13.5584681,21.6199681 13.7803779,22.3317437 13.7906329,23.0597015 Z" id="Path" fill="#FBCFC7"></path>
                                        <path d="M11.8040506,16.0320896 C11.7679104,16.3186958 11.7051437,16.6018456 11.6164557,16.8783582 C11.4625316,17.2343284 11.1859494,17.2410448 10.9526582,16.9320896 C10.6413386,16.5756593 10.4490289,16.1421299 10.3994937,15.6850746 C10.3927283,15.4766988 10.4227912,15.2687042 10.488481,15.069403 C10.5075883,14.9890704 10.5658128,14.9216114 10.6459688,14.8869374 C10.7261247,14.8522634 10.8190594,14.8543337 10.8973418,14.8925373 C11.1744454,14.9979795 11.4250406,15.1557812 11.6332911,15.3559701 C11.7848101,15.5261194 11.7535443,15.8126866 11.8040506,16.0320896 Z" id="Path" fill="#000000"></path>
                                        <path d="M9.09113924,15.5350746 C9.02620253,15.9179104 8.98772152,16.1776119 8.93962025,16.430597 C8.91075949,16.5962687 8.84101266,16.7261194 8.62696203,16.7485075 C8.43803806,16.783811 8.24562605,16.7050022 8.14594937,16.5514925 C7.90544304,16.2 8.03772152,15.3179104 8.3864557,15.0716418 C8.49330824,15.0157443 8.62173178,15.0083242 8.73518987,15.0514925 C8.95181832,15.126327 9.09437816,15.3200045 9.09113924,15.5350746 Z" id="Path" fill="#000000"></path>
                                        <path d="M9.22101266,24.0425373 C9.01177215,23.7828358 9.05025316,23.480597 9.04303797,23.1895522 C9.02620253,22.5470149 8.89392405,22.3432836 8.22531646,22.1708955 C7.55670886,21.9985075 7.36911392,21.4925373 7.17189873,20.9731343 C7.14375892,20.8959447 7.15168251,20.8113078 7.19374195,20.7398129 C7.23580139,20.668318 7.30814158,20.6165183 7.39316456,20.5970149 C7.91987342,20.3932836 8.44898734,20.2320896 9.03822785,20.3552239 C9.53367089,20.4604478 10.0435443,20.5097015 10.5365823,20.619403 C10.9334177,20.7067164 10.9502532,20.7895522 10.7770886,21.1365672 C10.6039241,21.4835821 10.4716456,21.8507463 10.2960759,22.2 C10.2343405,22.3465185 10.1206185,22.4689693 9.97379747,22.5470149 C9.59620253,22.6813433 9.59860759,22.938806 9.62987342,23.2320896 C9.64788813,23.3709762 9.65512208,23.5108911 9.65151899,23.6507463 C9.66341028,23.7592869 9.6215127,23.8669553 9.53770457,23.9432266 C9.45389644,24.0194979 9.33731521,24.0560563 9.22101266,24.0425373 Z" id="Path" fill="#000000"></path>
                                        <path d="M12.4558228,12.2932836 C12.4149367,12.2753731 12.3716456,12.2619403 12.3283544,12.2462687 L12.3043038,12.2462687 C11.6755334,12.036913 11.0088271,11.9441245 10.3417722,11.9731343 C9.59860759,11.9731343 8.80253165,11.9037313 8.13632911,12.2552239 C7.54227848,12.5664179 8.07620253,13.419403 8.67025316,13.1059701 C8.75164829,13.065085 8.83805612,13.0335126 8.92759494,13.0119403 C9.30518987,13.5 10.0387342,13.4261194 10.6327848,13.408209 C10.9767813,13.4307022 11.3180583,13.3377792 11.5948101,13.1462687 C11.7441581,13.1531929 11.8928196,13.1696495 12.0397468,13.1955224 C12.6097468,13.3656716 13.0089873,12.5238806 12.4558228,12.2932836 Z" id="Path" fill="#917D7C"></path>
                                        <path d="M17.4367089,0.447761194 C17.4029712,0.434054724 17.3646238,0.434054724 17.3308861,0.447761194 C17.2370886,0.474626866 17.1456962,0.591044776 17.0518987,0.505970149 C16.9581013,0.420895522 17.0759494,0.353731343 17.1048101,0.282089552 C17.1154879,0.24847112 17.1227352,0.213990032 17.1264557,0.179104478 C17.1355604,0.124368803 17.111016,0.0694899092 17.0628734,0.0369403429 C17.0147308,0.00439077663 16.9510758,-0.000362532004 16.8979747,0.0246268657 C16.6236233,0.106021618 16.3996294,0.292540018 16.2822785,0.537313433 C16.2405486,0.625841189 16.1836947,0.707494898 16.1139241,0.779104478 C15.8455261,1.0790864 15.5262526,1.3362083 15.1687342,1.54029851 L14.9113924,1.71044776 C14.969453,1.93151295 15.1058687,2.12790667 15.2986076,2.26791045 C15.3130086,2.27118155 15.3267938,2.27646543 15.3394937,2.28358209 C15.58,2.40447761 16.0201266,2.01044776 16.2365823,1.92537313 C16.5035443,1.82238806 16.9436709,1.80447761 17.0831646,1.54925373 C17.0977888,1.52160412 17.1213347,1.49890316 17.1505063,1.48432836 L17.1721519,1.4238806 C17.2707595,1.13283582 17.3741772,0.841791045 17.4703797,0.550746269 C17.4814506,0.513245704 17.4683454,0.473162391 17.4367089,0.447761194 Z" id="Path" fill="#F9A97F"></path>
                                        <path d="M17.3164557,1.9119403 C17.300333,1.90278473 17.2857462,1.89146937 17.2731646,1.87835821 C16.9677215,1.55149254 16.1548101,1.56716418 15.8734177,1.90746269 C15.8448876,1.9445163 15.7969988,1.96423361 15.7483544,1.95895522 C15.722572,2.05137323 15.6837534,2.14020536 15.6329114,2.22313433 C15.5596206,2.3684682 15.5187137,2.52611553 15.5126582,2.68656716 C15.4986193,2.81385922 15.476129,2.94022026 15.4453165,3.06492537 C15.3552014,3.4164211 15.2853547,3.77215346 15.2360759,4.13059701 C15.2131393,4.4733297 15.101764,4.80586124 14.9113924,5.1 C14.8376243,5.18895781 14.8079007,5.30288824 14.8296203,5.41343284 C14.8309912,5.42459049 14.8309912,5.43585727 14.8296203,5.44701493 C14.8296203,5.44701493 14.8296203,5.44701493 14.8296203,5.46044776 C14.8598846,5.53174718 14.8649395,5.61017191 14.8440506,5.68432836 C14.8648193,5.81180364 14.9122093,5.93425801 14.9835443,6.04477612 C15.1591139,5.82089552 15.3394937,5.59701493 15.5174684,5.37313433 C15.6607279,5.2121913 15.7909589,5.0415735 15.9070886,4.86268657 C15.988613,4.67994573 16.1024217,4.5111963 16.2437975,4.36343284 C16.2703766,4.33775047 16.289424,4.30614366 16.2991139,4.27164179 C16.4155228,3.96560431 16.5520681,3.66653077 16.7079747,3.3761194 C16.8331225,3.00958121 17.0163208,2.66247625 17.251519,2.34626866 C17.2904464,2.31317442 17.3003442,2.25973601 17.2755696,2.21641791 C17.1793671,2.09328358 17.2443038,1.99701493 17.3164557,1.9119403 Z" id="Path" fill="#FBCFC7"></path>
                                        <path d="M16.5468354,1.43283582 C16.5269056,1.41012537 16.4965185,1.39764602 16.4650633,1.39925373 C16.3832911,1.39925373 16.2822785,1.48432836 16.224557,1.39925373 C16.1668354,1.3141791 16.2798734,1.27164179 16.3183544,1.21119403 C16.3343143,1.18206405 16.3464277,1.15124289 16.3544304,1.11940299 C16.3760818,1.07546005 16.3702147,1.02401712 16.3391342,0.985285554 C16.3080536,0.946553993 16.2567257,0.926722284 16.2053165,0.93358209 C15.9620369,0.952581618 15.7397955,1.06951283 15.5968354,1.25373134 C15.5473373,1.3214357 15.4854728,1.38053908 15.4140506,1.42835821 C15.1303388,1.62647506 14.8122848,1.77791626 14.4736709,1.8761194 L13.1605063,2.3238806 C13.0405267,2.37655934 12.9157796,2.41926283 12.7877215,2.45149254 C12.4449154,2.53720437 12.0935145,2.58972192 11.7391139,2.60820896 C11.538878,2.60722356 11.3400898,2.63983418 11.1522785,2.70447761 C10.9295164,2.77091837 10.6956061,2.79898944 10.4620253,2.78731343 C10.240198,2.77686677 10.0178547,2.79342461 9.80063291,2.83656716 C9.53088199,2.88821672 9.25587046,2.91224023 8.98050633,2.90820896 C8.65852252,2.90925072 8.33702969,2.93169587 8.01848101,2.97537313 C7.80924051,3.00223881 7.6,3.02686567 7.39316456,3.06044776 C7.15568262,3.11348894 6.9225948,3.18232236 6.6956962,3.26641791 C6.42216052,3.34580106 6.17418455,3.48737918 5.97417722,3.67835821 C5.80341772,3.83955224 5.62544304,3.99850746 5.45708861,4.1641791 C5.28873418,4.32985075 5.24303797,4.5738806 5.04101266,4.71716418 C4.99570378,4.80757076 4.94261957,4.89442066 4.88227848,4.97686567 C4.9856962,5.52761194 5.26708861,6.02462687 5.44506329,6.54402985 C5.55660026,6.71363388 5.64468108,6.89567109 5.70721519,7.0858209 C5.7587669,7.26648497 5.85329158,7.43404924 5.98379747,7.5761194 C6.2243038,7.85149254 6.46481013,8.13358209 6.70531646,8.42910448 C6.87075396,8.63596947 7.05764492,8.82718821 7.26329114,9 C7.51414372,9.22187234 7.81245164,9.39199345 8.13873418,9.49925373 C8.48025316,9.61567164 8.83139241,9.72313433 9.18253165,9.80149254 L9.20898734,9.80149254 C9.78914254,9.81979408 10.3699616,9.80334221 10.9478481,9.75223881 C11.5316121,9.6516739 12.0922584,9.45776416 12.6049367,9.17910448 C12.8534442,9.04967167 13.0730475,8.87716636 13.2518987,8.67089552 C13.3040707,8.60365695 13.3683531,8.54533315 13.4418987,8.49850746 C13.5495694,8.42225171 13.6402464,8.32719694 13.7088608,8.21865672 C13.9301266,7.92313433 14.1489873,7.62537313 14.3558228,7.32313433 C14.5202503,7.10322059 14.6635065,6.87022711 14.7839241,6.62686567 C14.894557,6.36716418 15.0244304,6.1119403 15.1302532,5.85447761 C15.2173586,5.68702546 15.2920891,5.51423615 15.3539241,5.33731343 C15.3831307,5.16428901 15.4432892,4.99704615 15.5318987,4.84253731 C15.5493523,4.81550169 15.558503,4.78452668 15.5583544,4.75298507 C15.5903102,4.46592251 15.6417207,4.18102649 15.7122785,3.9 C15.7390108,3.55938256 15.8200681,3.22436734 15.9527848,2.90597015 C15.9816942,2.87182968 15.9816942,2.82369271 15.9527848,2.78955224 C15.8373418,2.7 15.883038,2.60149254 15.9287342,2.50970149 C15.9744304,2.41791045 16.0513924,2.31268657 16.1139241,2.21641791 C16.2606329,1.99253731 16.4121519,1.75746269 16.5564557,1.52462687 C16.5693653,1.49437957 16.565782,1.46019005 16.5468354,1.43283582 Z" id="Path" fill="#F5908E"></path>
                                        <path d="M5.95012658,4.88955224 C5.95266393,4.77910305 5.99501699,4.67265479 6.07037975,4.58731343 C6.1428819,4.50993932 6.22344451,4.43944545 6.31088608,4.37686567 C6.41466042,4.29251855 6.56724608,4.28602009 6.67886076,4.36119403 C6.82941456,4.42591454 6.965638,4.51627372 7.08050633,4.62761194 C7.1747515,4.71071801 7.18113824,4.84844927 7.09493671,4.93880597 C7.00319533,5.08286592 6.85483991,5.18804666 6.68126582,5.23208955 C6.58506329,5.25447761 6.49367089,5.29253731 6.39987342,5.32164179 C6.29257792,5.36046475 6.17062823,5.32958744 6.09924051,5.24552239 C6.01427693,5.14243011 5.96256074,5.01897135 5.95012658,4.88955224 Z" id="Path" fill="#562A2A"></path>
                                        <path d="M8.67987342,4.22014925 C8.75443038,4.2358209 8.84341772,4.24701493 8.92037975,4.27164179 C9.08873418,4.32089552 9.25468354,4.37686567 9.42063291,4.43059701 C9.49242737,4.45777651 9.55365509,4.50462185 9.59620253,4.56492537 C9.62289191,4.60442148 9.62607176,4.65386839 9.60463471,4.69604633 C9.58319765,4.73822426 9.54011106,4.76729485 9.49037975,4.77313433 C9.43568985,4.77425531 9.38119524,4.76668404 9.32924051,4.75074627 C9.07670886,4.68134328 8.82417722,4.60746269 8.57405063,4.52686567 L8.51151899,4.50223881 C8.45255782,4.47238043 8.41918163,4.41201789 8.42734177,4.35 C8.43886209,4.29809542 8.48066892,4.25658416 8.53556962,4.24253731 C8.58307483,4.23206015 8.63128572,4.22458046 8.67987342,4.22014925 Z" id="Path" fill="#FFFFFF"></path>
                                        <path d="M10.5822785,3.85522388 C10.7217722,3.85522388 10.8227848,3.85522388 10.9213924,3.85522388 C11.0330221,3.85793874 11.1401593,3.89672301 11.2244304,3.96492537 C11.2385826,3.97308982 11.2471927,3.98748638 11.2471927,4.00298507 C11.2471927,4.01848377 11.2385826,4.03288033 11.2244304,4.04104478 C11.1798012,4.07161224 11.1291275,4.09367598 11.0753165,4.10597015 C10.9169388,4.13917737 10.7561777,4.16162457 10.5943038,4.17313433 C10.4951867,4.17930715 10.3969324,4.19430095 10.3008861,4.21791045 C10.2137462,4.23340536 10.1239669,4.20833345 10.0603797,4.15074627 C10.0018024,4.11786301 9.97191177,4.05413625 9.98582278,3.99179104 C10.0026582,3.9358209 10.0603797,3.92462687 10.1108861,3.90223881 C10.2638531,3.86102111 10.423403,3.84510819 10.5822785,3.85522388 Z" id="Path" fill="#FFFFFF"></path>
                                        <path d="M8.41772152,3.73432836 C8.5356218,3.72132119 8.65483589,3.74493247 8.75683544,3.80149254 C8.81477998,3.83145009 8.85791262,3.88123728 8.87708861,3.94029851 C8.90835443,4.03208955 8.85063291,4.11940299 8.75202532,4.10373134 C8.4802715,4.0741284 8.20522913,4.08394663 7.93670886,4.13283582 C7.8811194,4.13809698 7.82604908,4.1190799 7.78759494,4.08134328 C7.74774624,4.04423977 7.74169836,3.98606518 7.77316456,3.94253731 C7.80068072,3.9110891 7.83408932,3.88454107 7.87177215,3.8641791 C8.03728707,3.77457932 8.2263205,3.72961886 8.41772152,3.73432836 Z" id="Path" fill="#FFFFFF"></path>
                                        <path d="M8.65822785,4.97910448 C8.7632854,4.96697047 8.86857645,4.99991584 8.94443038,5.06865672 C9.11037975,5.20746269 9.2643038,5.35746269 9.42544304,5.50522388 C9.45197701,5.52528633 9.46853241,5.55458486 9.47125843,5.58630456 C9.47398445,5.61802426 9.46264347,5.64940022 9.43987342,5.67313433 C9.36772152,5.75820896 9.29075949,5.78059701 9.19936709,5.74029851 C9.0008688,5.62516146 8.82311618,5.48160741 8.67265823,5.31492537 C8.61510539,5.26534323 8.57206512,5.20293432 8.54759494,5.13358209 C8.53835676,5.09928911 8.54510239,5.06295926 8.56617006,5.0335423 C8.58723773,5.00412534 8.62066889,4.98435602 8.65822785,4.97910448 Z" id="Path" fill="#FFFFFF"></path>
                                        <path d="M9.35810127,8.28358209 C9.10451126,8.25551699 8.8790562,8.12001051 8.74721519,7.91641791 C8.73486451,7.89904359 8.73070376,7.87771627 8.73570312,7.85740893 C8.74070249,7.83710158 8.75442498,7.81958921 8.77367089,7.80895522 C8.83880613,7.75386733 8.92722275,7.72917596 9.01417722,7.74179104 C9.25927077,7.80817828 9.48916686,7.91593907 9.69240506,8.05970149 C9.73810127,8.08880597 9.72607595,8.15149254 9.69240506,8.19179104 C9.60077063,8.26645472 9.47859674,8.30000046 9.35810127,8.28358209 Z" id="Path" fill="#FFFFFF"></path>
                                        <path d="M7.87898734,5.83880597 C8.11426228,5.8504523 8.33676597,5.94206415 8.5043038,6.09626866 C8.55048443,6.14069731 8.58361317,6.19543586 8.60050633,6.25522388 C8.61428438,6.32772184 8.58020164,6.40086942 8.51392405,6.44104478 C8.46814319,6.47239664 8.40578086,6.47239664 8.36,6.44104478 C8.3009497,6.41251005 8.24600133,6.37715644 8.1964557,6.3358209 C8.10100981,6.2493528 7.98347467,6.18694278 7.85493671,6.15447761 C7.82334566,6.14721325 7.79327279,6.13510774 7.76594937,6.11865672 C7.70101266,6.07835821 7.63607595,6.03358209 7.64088608,5.95074627 C7.6456962,5.86791045 7.73949367,5.84104478 7.87898734,5.83880597 Z" id="Path" fill="#FFFFFF"></path>
                                        <path d="M7.69620253,7.69477612 C7.67417947,7.77563883 7.6114334,7.84155705 7.5278481,7.87164179 C7.48520433,7.88499492 7.43812953,7.87554341 7.40518987,7.84701493 C7.20552041,7.68138083 7.07306064,7.45690598 7.03,7.21119403 C7.01550828,7.14763374 7.05196586,7.08352988 7.11658228,7.05895522 C7.17276762,7.02451202 7.24558681,7.02451202 7.30177215,7.05895522 C7.33085349,7.0740805 7.35624221,7.09466464 7.37632911,7.11940299 C7.48455696,7.28731343 7.58797468,7.45522388 7.69139241,7.62537313 C7.69620253,7.64776119 7.69620253,7.67238806 7.69620253,7.69477612 Z" id="Path" fill="#FFFFFF"></path>
                                        <path d="M8.18924051,8.28358209 C8.22714849,8.28949683 8.26424707,8.29925645 8.29987342,8.31268657 C8.48746835,8.4 8.67746835,8.48955224 8.86265823,8.58358209 C8.96126582,8.63283582 8.95405063,8.71567164 8.85063291,8.76940299 C8.7451443,8.83104404 8.61594702,8.84658864 8.49708861,8.8119403 C8.29974965,8.77810592 8.12591472,8.67049691 8.01607595,8.5141791 C7.96075949,8.40895522 7.98721519,8.33731343 8.11227848,8.29029851 C8.12670886,8.28358209 8.14835443,8.28358209 8.18924051,8.28358209 Z" id="Path" fill="#FFFFFF"></path>
                                        <path d="M9.76696203,7.52910448 C9.64055181,7.52125313 9.52315902,7.46540011 9.44227848,7.37462687 C9.37707727,7.30474266 9.31834461,7.2298487 9.26670886,7.15074627 C9.24537799,7.11996663 9.24120552,7.08152936 9.25549031,7.04739959 C9.2697751,7.01326983 9.30078271,6.98759157 9.33886076,6.97835821 C9.44364257,6.93622187 9.56525798,6.95552873 9.64911392,7.02761194 C9.77003568,7.131542 9.91129,7.21286799 10.0651899,7.26716418 C10.1517722,7.29850746 10.1493671,7.3858209 10.0651899,7.43731343 C9.97771642,7.49468507 9.87393422,7.52662802 9.76696203,7.52910448 Z" id="Path" fill="#FFFFFF"></path>
                                        <path d="M10.0531646,6.40970149 C9.97620253,6.40970149 9.89924051,6.40970149 9.81265823,6.40970149 C9.75623795,6.40699003 9.70531644,6.37736415 9.67797468,6.33134328 C9.64054242,6.29163495 9.64054242,6.23224565 9.67797468,6.19253731 C9.7445106,6.13755055 9.82956178,6.10588185 9.91848101,6.10298507 C10.1382945,6.10063546 10.3574691,6.12547965 10.5702532,6.17686567 C10.6140845,6.1897936 10.6434834,6.22810676 10.6424051,6.27089552 C10.6424051,6.30671642 10.6111392,6.32238806 10.5822785,6.3358209 C10.4719573,6.38504179 10.3510707,6.41030363 10.2287342,6.40970149 L10.0531646,6.40970149 Z" id="Path" fill="#FFFFFF"></path>
                                        <path d="M11.1618987,7.92537313 C11.3085862,7.92071906 11.4530124,7.89033662 11.5875949,7.8358209 C11.6164557,7.82238806 11.6549367,7.81119403 11.6765823,7.8358209 C11.6913641,7.86196371 11.6980269,7.89142393 11.6958228,7.92089552 C11.6932054,7.9729513 11.6647714,8.02092527 11.6188608,8.05074627 C11.4586002,8.15999515 11.2686028,8.22515528 11.0705063,8.23880597 C10.9837409,8.24227624 10.8984822,8.21687946 10.83,8.16716418 C10.7927028,8.14440847 10.7702333,8.10569087 10.7702333,8.0641791 C10.7702333,8.02266734 10.7927028,7.98394974 10.83,7.96119403 C10.9286298,7.90186021 11.0513011,7.88862064 11.1618987,7.92537313 Z" id="Path" fill="#FFFFFF"></path>
                                        <path d="M7.63126582,6.73880597 C7.63681179,6.68798396 7.66861917,6.64286755 7.71649977,6.61790796 C7.76438036,6.59294836 7.82232451,6.59127835 7.87177215,6.61343284 C7.91018338,6.63290719 7.9431376,6.66051574 7.96797468,6.69402985 C8.05696203,6.83507463 8.14113924,6.97835821 8.22291139,7.1238806 C8.2456644,7.17200037 8.23827947,7.22785506 8.20367089,7.26940299 C8.18824512,7.29672133 8.16094647,7.31654737 8.12872872,7.3238308 C8.09651097,7.33111423 8.06248434,7.32515193 8.03531646,7.30746269 C7.95268949,7.2394976 7.87700718,7.16455022 7.80924051,7.08358209 C7.75116914,6.99712827 7.70050602,6.90654945 7.65772152,6.81268657 C7.64563781,6.78917925 7.63675066,6.76436086 7.63126582,6.73880597 Z" id="Path" fill="#FFFFFF"></path>
                                        <path d="M6.66924051,6.17014925 C6.67493016,6.13021883 6.682959,6.09060757 6.69329114,6.05149254 C6.70492585,6.01073422 6.74688173,5.98406214 6.79189873,5.98880597 C6.91547742,5.98839882 7.02807945,6.0547836 7.08050633,6.15895522 C7.11417722,6.23283582 7.15746835,6.30447761 7.1935443,6.38283582 C7.21344059,6.42540017 7.21138828,6.47408886 7.18797036,6.51507115 C7.16455244,6.55605343 7.12232786,6.58485104 7.07329114,6.59328358 C6.99843729,6.61419319 6.91728758,6.59721791 6.85924051,6.54850746 C6.73028493,6.46114838 6.65854,6.31827847 6.66924051,6.17014925 Z" id="Path" fill="#FFFFFF"></path>
                                        <path d="M10.4956962,4.97910448 C10.6462503,5.01584772 10.802098,5.03020403 10.9574684,5.02164179 C11.0031646,5.02164179 11.0272152,5.10895522 10.9983544,5.14925373 C10.9321917,5.24756068 10.8249748,5.31572033 10.7025316,5.33731343 C10.5258323,5.36486444 10.345897,5.30959054 10.221519,5.18955224 C10.1978606,5.16729786 10.1869758,5.13589955 10.1921972,5.10496987 C10.1974185,5.07404019 10.218124,5.04726289 10.2479747,5.03283582 C10.3235167,4.99369118 10.409347,4.9750744 10.4956962,4.97910448 Z" id="Path" fill="#FFFFFF"></path>
                                        <path d="M12.2802532,6.47014925 C12.2970886,6.47014925 12.3283544,6.4858209 12.3331646,6.49925373 C12.3442374,6.52667532 12.3442374,6.55690677 12.3331646,6.58432836 C12.2849367,6.65418393 12.2129661,6.70699211 12.1287342,6.73432836 C11.9748101,6.7880597 11.818481,6.83955224 11.6621519,6.88880597 C11.5975728,6.91003038 11.5256189,6.89328541 11.4793671,6.84626866 C11.4429607,6.80620565 11.4429607,6.74752569 11.4793671,6.70746269 C11.4793671,6.70746269 11.4937975,6.69179104 11.5034177,6.68731343 C11.7397722,6.57740235 11.9928428,6.50189713 12.2537975,6.46343284 L12.2802532,6.47014925 Z" id="Path" fill="#FFFFFF"></path>
                                        <path d="M12.7131646,7.72164179 C12.7131646,7.70597015 12.7131646,7.67014925 12.7348101,7.65 C12.9045574,7.44707454 13.1411213,7.30157819 13.4082278,7.2358209 C13.429171,7.23596635 13.449146,7.24405077 13.4635443,7.25820896 C13.4769948,7.27220193 13.482368,7.2913754 13.4779747,7.30970149 C13.4562365,7.3678494 13.4218494,7.42119934 13.376962,7.46641791 C13.2158228,7.58507463 13.0426582,7.69029851 12.8718987,7.80447761 C12.8237975,7.8358209 12.7227848,7.78880597 12.7131646,7.72164179 Z" id="Path" fill="#FFFFFF"></path>
                                        <path d="M12.3211392,4.25373134 C12.346535,4.27078269 12.3699149,4.29029496 12.3908861,4.3119403 C12.4003302,4.32956139 12.4003302,4.35028936 12.3908861,4.36791045 C12.3211677,4.46114161 12.2289014,4.53782743 12.121519,4.59179104 C12.0108861,4.64104478 11.8978481,4.68358209 11.7848101,4.72164179 C11.7303686,4.74063224 11.6694249,4.71715743 11.6453165,4.66791045 C11.6172683,4.62207887 11.6230363,4.564807 11.6597468,4.52462687 C11.6657161,4.51619667 11.6730128,4.50864966 11.6813924,4.50223881 C11.8753467,4.38162908 12.0926178,4.29723084 12.3211392,4.25373134 Z" id="Path" fill="#FFFFFF"></path>
                                        <path d="M10.3634177,8.95522388 L10.7289873,8.95522388 C10.7494446,8.95817734 10.7681556,8.9676778 10.7818987,8.98208955 C10.7818987,9.00895522 10.7626582,9.04701493 10.7386076,9.05820896 C10.5403014,9.15045277 10.3276726,9.21315585 10.108481,9.24402985 C10.0218987,9.25746269 9.90164557,9.16567164 9.86797468,9.06492537 C9.85678058,9.03463747 9.87397696,9.00162173 9.9064557,8.99104478 C9.94680043,8.9741325 9.98987,8.96354209 10.0339241,8.95970149 C10.144557,8.95970149 10.2551899,8.95970149 10.3658228,8.95970149 L10.3634177,8.95522388 Z" id="Path" fill="#FFFFFF"></path>
                                        <path d="M7.91025316,5.27686567 C8.01455736,5.26438667 8.12045012,5.28238008 8.21329114,5.32835821 C8.26236481,5.35384395 8.29065878,5.40388625 8.28544304,5.45597015 C8.27497172,5.51831336 8.22427024,5.56818144 8.15797468,5.58134328 C8.13739938,5.58574827 8.11601834,5.58574827 8.09544304,5.58134328 C7.95867116,5.53995024 7.81132884,5.53995024 7.67455696,5.58134328 C7.63042543,5.59151048 7.58481483,5.57075342 7.56632911,5.53208955 C7.54466728,5.49459252 7.54941398,5.44863942 7.57835443,5.41567164 C7.65833959,5.32213404 7.78200893,5.27041332 7.91025316,5.27686567 Z" id="Path" fill="#FFFFFF"></path>
                                        <path d="M12.2826582,5.69776119 C12.318119,5.69639413 12.3486328,5.72088073 12.3524051,5.75373134 C12.3606722,5.81586625 12.340611,5.87838472 12.2970886,5.9261194 C12.206941,6.02896341 12.0878724,6.10647225 11.9531646,6.15 C11.8800529,6.18306857 11.7919472,6.16113428 11.7463291,6.09850746 C11.7294937,6.08059701 11.7246835,6.02462687 11.7463291,6.01791045 C11.9170886,5.90597015 12.0902532,5.79402985 12.2634177,5.69552239 C12.2658228,5.69776119 12.2658228,5.7 12.2826582,5.69776119 Z" id="Path" fill="#FFFFFF"></path>
                                        <path d="M3.80721519,6.49253731 L3.88417722,6.53731343 C4.40367089,6.40074627 4.97367089,6.32910448 5.38734177,6.02910448 L5.52202532,5.91716418 C5.47737041,5.55078686 5.27843823,5.2158519 4.96886076,4.9858209 C4.92316456,5.04179104 4.87987342,5.09776119 4.83898734,5.15597015 C4.71537574,5.31246683 4.56697913,5.45060506 4.39886076,5.56567164 C4.22088608,5.70447761 4.04291139,5.84552239 3.86734177,5.98880597 C3.8264557,6.02238806 3.78316456,6.07164179 3.80481013,6.12313433 C3.82983562,6.20352801 3.81388071,6.29016457 3.76151899,6.35820896 C3.73631308,6.40719638 3.75631197,6.46598504 3.80721519,6.49253731 Z" id="Path" fill="#F9A97F"></path>
                                        <path d="M10.9718987,9.55074627 C10.8625535,9.67035183 10.7733513,9.80471897 10.7073418,9.94925373 L10.7073418,9.96940299 C10.7073418,10.0410448 10.7193671,10.1126866 10.7217722,10.1932836 C10.7060977,10.3788181 10.7060977,10.5652118 10.7217722,10.7507463 C10.758534,11.006764 10.7762134,11.2648436 10.7746835,11.5231343 C10.7746835,11.7 10.7626582,11.8768657 10.7746835,12.0514925 C10.7867089,12.2261194 10.83,12.4589552 10.8612658,12.6649254 C10.8677747,12.6954234 10.8791226,12.7248502 10.8949367,12.7522388 C10.9334177,12.8283582 10.981519,12.9089552 11.0825316,12.9044776 C11.1730371,12.8912967 11.2476397,12.8314 11.2749367,12.75 C11.2950242,12.7131008 11.3064991,12.6726633 11.3086076,12.6313433 C11.3109061,12.3938458 11.3301892,12.1567543 11.3663291,11.9216418 C11.381457,11.7428859 11.4424944,11.5701285 11.5443038,11.4179104 C11.6225871,11.2927841 11.6562662,11.1477857 11.6405063,11.0037313 C11.6260759,10.8828358 11.6958228,10.7597015 11.6405063,10.638806 C11.6958228,10.5156716 11.7463291,10.3902985 11.8112658,10.2716418 C11.8660424,10.1468067 11.8906742,10.0122899 11.8834177,9.87761194 C11.887584,9.81194903 11.8980475,9.74676424 11.9146835,9.68283582 C11.8143594,9.54178663 11.6545315,9.44691111 11.4748294,9.42173382 C11.2951274,9.39655653 11.1123796,9.44343524 10.9718987,9.55074627 Z M11.3903797,10.3164179 C11.2868951,10.5265526 11.2414265,10.7574186 11.2581013,10.9880597 C11.2629518,11.007956 11.2629518,11.0286112 11.2581013,11.0485075 C11.2460759,11.0753731 11.2388608,11.1134328 11.1931646,11.1 C11.1739133,11.0921828 11.1596826,11.076452 11.1546835,11.0574627 C11.1510925,11.0060244 11.1510925,10.9544234 11.1546835,10.9029851 C11.1546835,10.7462687 11.1546835,10.591791 11.1546835,10.4373134 L11.1546835,9.85074627 C11.1470493,9.77643799 11.1903548,9.70566825 11.2629114,9.6738806 C11.3783544,9.62462687 11.4697468,9.6738806 11.476962,9.77686567 C11.4928111,9.96051354 11.4631907,10.1450983 11.3903797,10.3164179 Z" id="Shape" fill="#6F575B" fill-rule="nonzero"></path>
                                        <path d="M9.1656962,10.0947761 C9.16673888,10.0999549 9.16673888,10.105269 9.1656962,10.1104478 C9.26189873,10.5156716 9.32443038,10.9231343 9.37734177,11.3350746 C9.41341772,11.6104478 9.41822785,11.8902985 9.45911392,12.1679104 C9.49284465,12.3401362 9.51214328,12.5145421 9.51683544,12.6895522 C9.5181926,12.7102836 9.52306287,12.7306848 9.53126582,12.75 C9.54346278,12.7967912 9.58163031,12.8339268 9.63130816,12.8473375 C9.68098601,12.8607482 9.73457495,12.8483825 9.77177215,12.8149254 C9.80804545,12.7914193 9.83840659,12.7608654 9.86075949,12.7253731 C9.93439792,12.5978277 9.97940272,12.4576742 9.99303797,12.3134328 C9.99303797,12.0447761 10.0844304,11.7850746 10.0675949,11.5141791 C10.0694853,11.4620251 10.0808706,11.4105479 10.1012658,11.3619403 C10.1722825,11.1443178 10.2063638,10.9177084 10.2022785,10.6902985 C10.2165287,10.4322608 10.2733101,10.177796 10.3706329,9.9358209 C10.3771386,9.91452638 10.3895858,9.8952152 10.4067089,9.87985075 C10.2167089,9.4141791 9.24265823,9.66044776 9.1656962,10.0947761 Z M9.86075949,11.0776119 C9.855167,11.1494824 9.83898157,11.2202952 9.81265823,11.2880597 C9.81265823,11.319403 9.81265823,11.3731343 9.75493671,11.3686567 C9.75493671,11.3686567 9.73810127,11.3126866 9.7356962,11.2813433 C9.73049626,11.1997054 9.71680348,11.1187294 9.69481013,11.0395522 C9.65391047,10.8927373 9.6265537,10.7429394 9.61303797,10.591791 C9.60803456,10.4055491 9.57483844,10.2208947 9.51443038,10.0432836 C9.45670886,9.9 9.53367089,9.81940299 9.70202532,9.85970149 C9.75660758,9.86895406 9.81044625,9.88167029 9.86316456,9.89776119 C9.94253165,9.92238806 9.96658228,9.95820896 9.96177215,10.0007463 C9.9002034,10.3569591 9.86644412,10.7168567 9.86075949,11.0776119 Z" id="Shape" fill="#6F575B" fill-rule="nonzero"></path>
                                    </g>
                                </g>
                            </g>
                        </g>
                    </g>
                </g>
            </g>
        </g>
    </g>
</svg>