<?xml version="1.0" encoding="UTF-8"?>
<svg width="230px" height="195px" viewBox="0 0 230 195" version="1.1" xmlns="http://www.w3.org/2000/svg" xmlns:xlink="http://www.w3.org/1999/xlink">
    <!-- Generator: Sketch 52.6 (67491) - http://www.bohemiancoding.com/sketch -->
    <title>flower_circle</title>
    <desc>Created with Sketch.</desc>
    <g id="Page-1" stroke="none" stroke-width="1" fill="none" fill-rule="evenodd">
        <g id="Desktop" transform="translate(-102.000000, -252.000000)">
            <g id="about" transform="translate(0.000000, 80.000000)">
                <g id="flower_circle" transform="translate(102.000000, 172.000000)">
                    <g>
                        <path d="M50.7657237,174.419461 C49.9960816,174.419461 49.3404605,174.419461 48.5993237,174.419461 C47.2805459,174.365558 46.020274,173.91037 45.0219131,173.127363 C44.8109609,172.946501 44.7135211,172.68211 44.762182,172.422614 C44.8108428,172.163117 44.9991811,171.94277 45.2642079,171.835265 C46.1748136,171.470026 47.0357049,171.010424 47.8296816,170.46564 C49.4736311,169.337563 51.6773848,169.142772 53.5307342,169.961722 C53.9426324,170.156911 54.3423156,170.37259 54.7279553,170.607771 C56.3272112,171.479512 58.1640952,171.927163 60.0299343,171.899869 C60.1638184,171.887335 60.2817131,171.814463 60.3434922,171.706055 C60.362106,171.567925 60.3095365,171.429717 60.2009658,171.331346 C58.3053658,170.039248 56.4525237,168.61794 54.4999132,167.455052 C53.3111647,166.658282 52.1782662,165.795215 51.1077868,164.870855 C50.1101026,164.095596 49.1409237,163.320338 48.1289868,162.570921 C45.8131052,161.048797 43.8068512,159.173154 42.1998921,157.027819 C41.6462801,155.910972 40.4551683,155.16455 39.107071,155.089672 C38.5369657,155.089672 38.3374289,154.689122 38.3659341,154.211045 C38.4143787,153.787256 38.25248,153.365878 37.9241026,153.061078 C36.4988394,151.76898 35.3871341,150.089252 33.9761236,148.693786 C32.9356815,147.673029 32.0805236,146.51014 31.1255973,145.463541 C30.8207239,145.148204 30.544284,144.811174 30.2989446,144.455704 C30.1421657,144.210206 29.9426288,143.87426 29.7003341,143.835497 C28.0327762,143.551235 26.7785446,142.362505 24.9684604,142.259137 C22.3602288,142.104086 19.7662498,141.600167 17.1722709,141.251301 C16.3268769,141.130096 15.5086664,140.88575 14.7493235,140.527726 C14.1737979,140.291379 13.8212869,139.755317 13.8656603,139.183944 C13.8494891,138.619735 14.1109331,138.078229 14.5791212,137.706216 C15.0473092,137.334203 15.6737417,137.17022 16.2886077,137.258717 C18.0614263,137.471221 19.7930607,137.906081 21.4338077,138.550816 C22.2889656,138.899682 23.1441235,139.222707 23.9850288,139.584494 C24.6768802,139.905237 25.4458121,140.065079 26.222692,140.049649 C26.3345427,140.042079 26.4351933,139.985279 26.4920617,139.897635 C26.5489301,139.809992 26.55479,139.702642 26.5077446,139.610336 C26.5077446,139.610336 26.4364815,139.468205 26.3937236,139.416521 C24.9684604,137.788478 23.9422709,135.85033 22.3602288,134.248129 C21.8060153,133.663845 21.3541571,133.005806 21.0204814,132.29706 C20.6666141,131.266801 19.7767308,130.460061 18.6402919,130.139256 C18.3697079,130.086645 18.1333921,129.938476 17.9836091,129.727518 C17.833826,129.516561 17.7829182,129.260199 17.8421446,129.015131 C17.8788061,128.219734 17.6176046,127.436483 17.1010077,126.792722 C16.1888393,125.423098 15.347934,123.988869 14.5070288,122.580482 C14.2789867,122.218695 14.1364603,121.805223 13.9511761,121.430515 C13.6718164,120.874472 13.3626404,120.331143 13.0247551,119.802471 C12.6099237,119.009611 11.7265431,118.505935 10.7585866,118.510373 C9.75037037,118.484009 8.74545166,118.393338 7.75128137,118.239032 C5.50040114,117.888091 3.47090905,116.797967 2.05022871,115.17676 C1.8299738,114.982296 1.68498596,114.728478 1.63690239,114.453185 C1.48012344,112.670089 2.32102871,112.192013 3.93157609,112.566721 C5.41305037,113.006196 6.84481905,113.572988 8.20736558,114.25937 C8.47816558,114.375659 8.73471295,114.556552 9.00551295,114.672841 C9.14081436,114.731024 9.29779049,114.731024 9.4330919,114.672841 C9.62987573,114.548371 9.69655001,114.312087 9.58987085,114.117239 C9.37608137,113.6004 9.1622919,113.07064 8.91999716,112.566721 C8.07909189,110.757784 7.12416557,108.961767 6.31176557,107.15283 C5.93650601,106.459495 5.40766132,105.843708 4.75822872,105.343892 C3.51824977,104.297293 2.32102871,103.186088 1.16656555,102.061963 C0.131744515,101.158984 -0.254113688,99.8047317 0.16888133,98.560377 C0.279646109,98.2282376 0.448034412,97.9142035 0.667723438,97.6300663 C1.06024824,97.0755441 1.8326727,96.8529823 2.50631292,97.1003061 C3.40182888,97.3504502 4.19221117,97.84166 4.77248135,98.5086931 C5.45660767,99.271031 6.08372346,100.085053 6.72509189,100.873233 C8.54942874,103.005195 8.44966032,102.785538 10.3025024,101.092889 C11.3999551,100.04629 12.7111972,99.1289002 13.9511761,98.1727475 C14.3551096,97.8178508 14.9291837,97.6714892 15.4779548,97.7834915 C16.026726,97.8954937 16.4762283,98.2507637 16.6734288,98.7283498 C16.8374063,98.9746942 16.8374063,99.2831062 16.6734288,99.5294506 C16.5046104,99.8427149 16.3042216,100.141166 16.0748182,100.420998 C14.7443702,101.897739 13.3164933,103.300079 11.7990288,104.620317 C10.9719621,105.258563 10.0739746,105.817165 9.11953401,106.287124 C8.6799043,106.473928 8.46058443,106.926815 8.60643927,107.346645 C8.75385113,108.033054 8.96360404,108.707241 9.23355506,109.362318 C10.1457235,111.145413 10.9866288,112.954351 11.8417866,114.763288 C12.1441293,115.639206 12.627847,116.454859 13.2670498,117.166591 C13.5405676,117.503311 13.7390554,117.885141 13.8514077,118.290716 C14.8906331,120.546472 16.159873,122.709353 17.6426077,124.751207 C17.7324578,124.911847 17.9142706,125.013074 18.1129446,125.013074 C18.3116185,125.013074 18.4934314,124.911847 18.5832814,124.751207 C19.6237235,123.0844 21.191513,121.792302 22.3887341,120.241784 C22.816313,119.686182 23.4006709,119.699103 23.9565236,120.241784 C24.8306263,120.983723 25.1479458,122.119269 24.7689236,123.149005 C24.0663806,125.077244 23.2187341,126.959514 22.2319551,128.782553 C22.2319551,128.782553 22.1321867,128.898842 22.1036814,128.963447 C21.8756393,129.40276 21.1772604,129.544891 21.2057656,130.126335 C21.2342709,130.70778 21.8186288,131.23754 22.2319551,131.741458 C23.8710078,133.782973 25.524313,135.811567 27.1206078,137.891845 C29.0162078,140.372674 30.7692815,142.931028 32.8216604,145.360173 C34.5177236,147.453372 36.4418289,149.391519 38.2661657,151.394271 C38.4514499,151.601007 38.6652394,151.872348 38.9930499,151.807743 C39.3208605,151.743138 39.5346499,151.329666 39.6201657,150.993721 C39.8909657,149.908358 40.190271,148.797154 40.3755552,147.711792 C40.736745,146.137662 41.5035045,144.6633 42.6132184,143.409105 C42.9303342,142.99476 43.4386541,142.734224 43.9937696,142.701512 C44.5488852,142.668801 45.090131,142.867489 45.4637447,143.241132 C46.1295363,143.747739 46.4937928,144.508688 46.4471763,145.295568 C46.3990081,145.924492 46.3085735,146.550168 46.1763763,147.16911 C46.1763763,147.621345 45.7060394,147.879764 45.3639763,148.164026 C44.1752458,149.165733 43.1182813,150.288703 42.2141447,151.51056 C41.7812187,152.116484 41.3908722,152.746556 41.0454289,153.397024 C40.9026395,153.656255 40.9477547,153.968118 41.15945,154.185203 C41.544271,154.624517 41.9575973,155.050909 42.3424184,155.477302 C45.0040426,158.297122 47.9426521,160.891975 51.1220395,163.229891 C53.4309658,165.000065 55.8681658,166.628109 58.2483553,168.256153 C62.3249912,171.058682 66.611058,173.601599 71.0757238,175.866611 C72.9855764,176.809843 74.8954291,177.714311 76.7767764,178.61878 C77.5179133,178.967646 78.3160607,179.251908 79.0999554,179.549091 C79.2481072,179.582169 79.4048123,179.553756 79.5275343,179.471565 C79.6116429,179.367542 79.6427566,179.235911 79.6130501,179.109777 C79.4917366,178.705604 79.3195749,178.315414 79.0999554,177.946889 C77.9367683,176.42283 77.7627485,174.45082 78.6438712,172.778496 C78.843408,172.326262 78.8291554,171.796502 79.0144396,171.344267 C79.3013672,170.658271 80.1130909,170.279179 80.895787,170.46564 C81.6637943,170.621046 82.3370044,171.037167 82.7771344,171.628529 C83.6980136,172.919323 84.4716393,174.291706 85.0860607,175.72448 C85.4234672,176.529743 85.3874856,177.424458 84.9862923,178.205309 C84.741215,179.005416 84.6071561,179.830109 84.5872186,180.660295 C84.4530513,181.094026 84.518242,181.55852 84.7679413,181.947973 C85.0176407,182.337426 85.4305857,182.618674 85.9127133,182.727652 C88.9263556,183.841562 91.8546499,185.136537 94.6780818,186.603947 C95.8349999,187.180603 97.0650129,187.627507 98.3410081,187.934808 C101.462334,188.761751 104.555156,189.653298 107.662229,190.519004 C108.127297,190.630676 108.606388,190.687139 109.087492,190.686977 C109.358292,190.686977 109.415303,190.428557 109.34404,190.208901 C109.256353,189.864986 109.026886,189.564501 108.702671,189.369037 C108.004292,188.916802 107.277408,188.49041 106.607534,188.076939 C104.964693,187.137171 104.227084,185.311533 104.811703,183.632121 C104.877469,183.362141 104.982931,183.101391 105.125261,182.856862 C106.09444,181.228818 107.50545,181.009162 108.816692,182.404628 C110.646852,184.127058 112.012702,186.209947 112.807429,188.49041 C113.021219,189.239827 113.391787,189.950481 113.591324,190.699898 C113.716521,191.333483 114.307458,191.804921 115.016587,191.836944 L119.164103,192.353784 C120.589366,192.521756 121.929114,192.650966 123.297366,192.870623 C126.673673,193.264609 130.070481,193.497508 133.473745,193.568356 C134.713269,193.578432 135.951906,193.505011 137.179429,193.348699 C137.486422,193.291192 137.798818,193.422306 137.949071,193.671724 C138.087005,194.01166 137.93702,194.392379 137.592756,194.576192 C136.985349,194.897229 136.283899,195.041549 135.583135,194.989664 C134.884756,194.989664 134.157871,194.847533 133.50225,194.795849 C133.030722,194.721291 132.548516,194.721291 132.076987,194.795849 C130.949149,195.084636 129.745922,195.011611 128.670608,194.589113 C128.526956,194.532475 128.371051,194.505974 128.214524,194.511588 C126.019619,194.718323 123.938735,193.981827 121.772335,193.852617 C119.605935,193.723408 117.496545,193.464988 115.30164,193.219489 C114.464547,193.056493 113.59034,193.195534 112.86444,193.607119 C112.605703,193.77798 112.276854,193.836345 111.966147,193.766549 C111.65544,193.696753 111.394697,193.505944 111.253892,193.245331 C110.783448,192.585081 109.968544,192.193682 109.101745,192.211653 C107.87393,192.080759 106.668005,191.816122 105.510082,191.423473 C103.814019,190.932476 102.075198,190.557767 100.379134,190.131375 C98.6830713,189.704982 97.1722923,189.136459 95.561745,188.645462 C93.7174088,187.922527 91.9188052,187.107248 90.1742502,186.203396 C89.1195554,185.751162 88.1503765,185.143876 87.0956818,184.743325 C84.1026291,183.606279 81.2521028,182.159129 78.2733028,181.035004 C75.2945027,179.910878 72.8287975,178.127783 69.9782711,176.874447 C69.2228817,176.551423 68.553008,176.11211 67.7263553,175.827848 C66.9086762,175.596528 66.1652245,175.188587 65.5599553,174.639118 C65.3549623,174.426266 65.0956212,174.262132 64.8045659,174.161041 C63.720359,173.808669 62.7435542,173.22864 61.9540395,172.468393 C61.8756829,172.389916 61.7643689,172.345146 61.6476079,172.345146 C61.530847,172.345146 61.419533,172.389916 61.3411764,172.468393 C61.2563732,172.577056 61.2253819,172.712852 61.2556606,172.843101 C61.3411764,173.114442 61.4837027,173.411624 61.2556606,173.644202 C61.0223889,173.919048 60.7052045,174.125725 60.3434922,174.238567 C59.3816561,174.502017 58.3836513,174.641211 57.3789448,174.652039 C55.1555342,174.367777 52.9178711,174.858774 50.7657237,174.419461 Z M4.9720182,102.28162 L5.10029188,102.423751 L4.91500767,102.320383 C4.86190012,102.192109 4.80001857,102.066963 4.72972346,101.945674 C4.48742872,101.558045 3.86031293,101.36423 3.90307082,101.674334 C3.94582872,101.984437 4.21662872,102.126568 4.53018661,102.217015 C4.84374451,102.307462 4.82949188,102.255778 4.9720182,102.28162 Z M21.6903551,123.820896 C21.1886509,123.963044 20.7817931,124.298787 20.5786499,124.738286 C20.4788814,124.91918 20.3648604,125.112995 20.5786499,125.203441 C20.7924393,125.293888 20.8494499,125.112995 20.9492183,125.022548 C21.3479165,124.688829 21.5794941,124.222294 21.5905867,123.730449 L21.8043762,123.678766 L21.6903551,123.820896 Z M79.812587,173.049837 C79.7941071,173.188431 79.8592603,173.325328 79.9831571,173.408231 C80.107054,173.491135 80.2705537,173.507237 80.4111975,173.450387 C80.6974917,173.349835 80.9700822,173.219771 81.2235975,173.062758 C81.3682871,173.005186 81.4756466,172.890389 81.5146249,172.751566 C81.5536033,172.612744 81.5198526,172.465383 81.4231344,172.352104 C81.3153742,172.167376 81.1233925,172.035008 80.8982476,171.990204 C80.6731027,171.945399 80.4376169,171.9927 80.2544186,172.119526 C79.97362,172.362194 79.8140675,172.698144 79.812587,173.049837 Z M41.97185,146.936533 C41.95528,147.060984 41.95528,147.18679 41.97185,147.311241 C41.97185,147.492135 41.97185,147.724713 42.1998921,147.763476 C42.4279342,147.802238 42.4136815,147.595503 42.51345,147.492135 C42.7839839,147.161002 42.9153779,146.753254 42.8840184,146.342168 C42.8840184,146.225879 42.7985026,146.10959 42.7557447,145.993301 C42.7129868,145.877012 42.4279342,146.070827 42.3709236,146.174195 C42.2220207,146.421223 42.0887798,146.675749 41.97185,146.936533 Z" id="Shape" fill="#715369" fill-rule="nonzero"></path>
                        <path d="M65.6292349,180.08033 C66.546044,180.169629 67.4628531,180.233414 68.3655574,180.335471 C69.8195813,180.546102 71.306514,180.224805 72.4982507,179.442479 C73.4855835,178.79187 73.8240976,178.868412 74.6139639,179.60832 C74.7111445,179.713513 74.8006633,179.824307 74.8819543,179.940003 C74.9920499,180.083697 75.0273204,180.263695 74.9785289,180.432858 C74.9297374,180.60202 74.8017442,180.743497 74.6280687,180.820238 C73.9933547,181.062621 73.3586407,181.292248 72.6957172,181.483603 C72.0453597,181.688089 71.3810469,181.854278 70.7069468,181.981127 C69.8814809,182.138299 69.1054886,182.460886 68.4360812,182.925147 C66.8241794,184.043262 64.6799192,184.309925 62.7941791,183.626784 C62.3318631,183.503489 61.8605455,183.409707 61.3837036,183.346129 C61.1580275,183.346129 60.9182467,183.346129 60.7066754,183.244073 C59.7940298,183.03512 59.1164955,182.341294 59,181.49636 C59.1837418,180.505013 60.1045604,179.762359 61.2144466,179.710376 L65.5728159,179.978274 L65.6292349,180.08033 Z" id="Path" fill="#715369"></path>
                        <path d="M5.03262013,125.010828 L5.72765241,125.157695 C7.04556941,125.330562 8.01724602,126.467009 7.97541638,127.78662 C8.08727081,128.475209 7.81214488,129.169579 7.25778373,129.597798 C6.70342258,130.026017 5.95805803,130.119931 5.31359063,129.842761 C4.45370656,129.645367 3.64351192,129.275528 2.93273538,128.755944 C2.14168706,128.293389 1.79884101,127.333798 2.11939973,126.479501 C2.48884109,125.593759 3.35747222,125.014775 4.32279993,125.010828 C4.55918338,124.996391 4.79623668,124.996391 5.03262013,125.010828 Z" id="Path" fill="#C2B276"></path>
                        <path d="M31.9080167,159.053483 C32.911514,159.032429 33.7816793,159.881872 33.9685416,161.064938 C34.1034574,162.067448 33.7988178,163.082693 33.1622492,163.751995 C32.9344985,163.929574 32.6655621,164.015615 32.3943518,163.997669 C31.6391173,163.868178 30.8911636,163.68358 30.1546508,163.444903 C29.7463125,163.309439 29.4007229,162.982226 29.1959979,162.537226 C28.9912729,162.092227 28.9446963,161.567009 29.0667961,161.080292 C29.1605117,160.423847 29.4684423,159.839286 29.9224264,159.456005 C30.3764105,159.072724 30.9390035,158.922336 31.4856731,159.038128 L31.9080167,159.053483 Z" id="Path" fill="#C2B276"></path>
                        <path d="M63,161.237259 C63.3185319,160.156344 64.2372902,159.310052 65.4159268,159.011886 C66.3772842,158.920997 67.3069111,159.357077 67.7879276,160.124572 C67.9956074,160.438269 68.053817,160.816182 67.9489894,161.17023 C67.8025696,161.666247 67.6268658,162.135452 67.465804,162.618063 C67.3047422,163.100674 66.9094088,163.837997 66.0748159,163.95865 C65.2004911,164.110882 64.3025131,163.836826 63.7028151,163.234733 C63.2525326,162.649657 63.0073997,161.952964 63,161.237259 Z" id="Path" fill="#C2B276"></path>
                        <path d="M9.9769627,86.07841 C9.93385215,87.0048767 9.61442071,87.8870664 9.07123792,88.579795 C8.5974742,89.1497308 7.81715746,89.1655623 7.60814405,88.4689741 C7.39913064,87.7723859 6.6606166,87.344934 6.29832668,86.7275035 C5.90055777,86.186793 5.90055777,85.4000911 6.29832668,84.8593805 C6.72666627,84.3127058 7.34017211,84 7.98436819,84 C8.62856427,84 9.24207012,84.3127058 9.6704097,84.8593805 C9.93883239,85.1862996 10.0528554,85.63972 9.9769627,86.07841 Z" id="Path" fill="#C2B276"></path>
                        <path d="M15.0740961,69.4376958 C14.7775994,68.8410467 14.5145996,68.2314302 14.2860867,67.6111407 C13.8771002,66.4735857 13.9073872,65.2454396 14.3720513,64.1252504 C14.4816464,63.8808498 14.718615,63.7008146 15.0052182,63.6442064 C15.2918215,63.5875981 15.5910708,63.6617227 15.8047958,63.842263 C16.5233613,64.508926 17.331973,65.0922907 18.2118065,65.5787766 C19.9671863,66.5726763 20.9526529,68.3670166 20.7620916,70.2223427 C20.7186989,70.6561939 20.6372575,71.0862965 20.5185251,71.508649 C20.1673207,73.1648007 20.3410667,74.8762089 21.0199857,76.4480655 C21.0804745,76.5593994 21.1985767,76.636513 21.3351894,76.6538746 C21.4811033,76.6223334 21.6026771,76.5321677 21.6647207,76.4094764 C22.3667654,74.3385231 23.0974651,72.2804329 23.6848904,70.1837535 C24.073923,68.9059179 24.5524569,67.6514162 25.1176348,66.4277388 C25.5617856,65.3215153 26.0202638,64.2281549 26.4357597,63.1090684 C27.1949058,60.6167742 28.4311664,58.262035 30.0892581,56.1501509 C31.1136032,55.2626627 31.4614872,53.9176396 30.9775597,52.7157128 C30.7913029,52.2269164 31.1351616,51.9310659 31.6366221,51.7767092 C32.0933779,51.6737818 32.4730667,51.3897138 32.6681981,51.0049253 C33.5278448,49.2812748 34.8459697,47.8148855 35.7915811,46.1298241 C36.4792984,44.8435178 37.3819274,43.7630204 38.1126271,42.5410293 C38.338663,42.1784115 38.5923877,41.8302767 38.8719817,41.4991212 C39.0582384,41.2804491 39.3304599,40.9974617 39.2874775,40.7787896 C39.0009287,39.2609481 39.7889381,37.7945588 39.2874775,36.225265 C38.528123,33.9613658 38.1269545,31.6074251 37.5681842,29.2920736 C37.3796901,28.5369742 37.3264885,27.7597237 37.4105823,26.9895852 C37.4512336,26.4035488 37.9287578,25.9166106 38.5711053,25.8061833 C39.1503759,25.5865196 39.8089832,25.6124676 40.3645942,25.8768439 C40.9202051,26.1412201 41.3138664,26.6159726 41.4365942,27.1696681 C41.8668236,28.7295483 42.050106,30.3360706 41.9810371,31.9418648 C41.9810371,32.790827 41.8950725,33.6269261 41.8234352,34.5144775 C41.7411407,35.213304 41.8493149,35.9196162 42.138639,36.5725677 C42.1924537,36.6592107 42.2877979,36.7187047 42.3970098,36.7337893 C42.5062218,36.7488739 42.6170754,36.7178602 42.6974094,36.6497461 L42.8550113,36.4953894 C44.0155343,34.6816974 45.7205002,33.1638558 46.7377488,31.2858485 C47.1420115,30.6142063 47.6590852,30.002471 48.2707853,29.4721565 C49.2257535,28.8178399 49.7614229,27.7838627 49.7035298,26.7065978 C49.6174026,26.1926104 50.0064515,25.7116278 50.5775039,25.6261004 C51.3876622,25.3757414 52.0828299,24.8918255 52.5546913,24.2497526 C53.6579045,22.9634462 54.832755,21.7800444 56.0076054,20.5709164 C56.3084818,20.2493398 56.6666679,19.9920785 56.9961991,19.696228 C57.4994921,19.259576 57.9776927,18.8001986 58.4289436,18.3198802 C59.0705505,17.6841595 59.2539036,16.7762942 58.9017492,15.9788026 C58.5689825,15.1179302 58.3056329,14.2366793 58.1137398,13.3418745 C57.700582,11.3333195 58.1129218,9.25839728 59.2742628,7.50204354 C59.3970112,7.24755269 59.6080847,7.03549311 59.8760155,6.89747954 C61.6669461,6.13855877 62.469283,6.67880745 62.6555397,8.18378592 C62.6984204,9.57029744 62.5928678,10.9573015 62.3403359,12.3256925 C62.3403359,12.5958168 62.2257164,12.8788042 62.1970615,13.1489285 C62.205153,13.2823457 62.2721934,13.4073524 62.3833183,13.4962313 C62.5671837,13.6296416 62.8298604,13.6296416 63.0137258,13.4962313 C63.4865315,13.1360655 63.9450097,12.7758997 64.4464703,12.3771447 C65.9938343,11.01366 67.5268709,9.62444906 69.0885624,8.2609643 C69.673679,7.70055621 70.1268681,7.03994011 70.4210147,6.31864167 C71.0657497,4.90370465 71.8537592,3.50163069 72.5414765,2.12528286 C73.2488633,0.585536411 75.0848539,-0.276587449 76.8970197,0.0800557189 C77.6166982,0.210515162 78.129376,0.78450886 78.1148525,1.44354048 C78.1626944,2.28194401 77.9333983,3.11433492 77.45579,3.83607035 C76.8970197,4.6721695 76.2809396,5.48254252 75.6935143,6.3057786 C74.103168,8.55681477 74.2607699,8.42818413 76.7394178,9.40577698 C78.1721623,10.023204 79.6049067,10.6920834 81.0376512,11.4638672 C81.5494447,11.677117 81.9057759,12.1089205 81.9839479,12.6105932 C82.0621199,13.112266 81.851455,13.615283 81.4244922,13.9464385 C81.2343741,14.1753036 80.9241396,14.2974641 80.6078278,14.2680151 C80.22052,14.2255077 79.8373575,14.1567076 79.4616323,14.0622061 C77.4661145,13.4739106 75.5137364,12.7736382 73.6160349,11.9655267 C72.6567967,11.5038927 71.7581249,10.9473162 70.9368027,10.3061914 C70.5877973,9.99688584 70.0389821,9.96403772 69.6473327,10.2290131 C68.9896064,10.6186591 68.3624961,11.0484412 67.7704375,11.5153194 C66.2517283,12.9173934 64.6757094,14.255152 63.0996905,15.6186368 C62.3080644,16.1872134 61.6381176,16.8802147 61.1225032,17.6638639 C60.8712811,18.0139624 60.5449634,18.3156729 60.1625644,18.5514153 C58.1851392,20.2281476 56.3864028,22.0669701 54.7897726,24.0439436 C54.653846,24.1738337 54.6101424,24.3610197 54.6765272,24.5289827 C54.7429121,24.6969458 54.9082589,24.8175343 55.1049764,24.8414535 C57.1967833,25.124441 59.1023335,25.9991293 61.1368306,26.4621996 C61.8532028,26.6294194 62.0537871,27.1182158 61.7385833,27.748506 C61.2881628,28.7408503 60.2372408,29.408333 59.0450237,29.4592935 C56.7944328,29.5557177 54.5389992,29.5041277 52.2967973,29.3049367 L52.0675582,29.3049367 C51.5374427,29.3049367 51.1219468,28.7260988 50.5345216,28.957634 C49.9470963,29.1891691 49.6175651,29.8580484 49.2307241,30.385434 C47.6976875,32.4949765 46.1789784,34.604519 44.5886321,36.6754723 C42.6974094,39.1451805 40.6485848,41.5377104 38.8576542,44.0588709 C37.2959627,46.2327287 35.9921653,48.5352171 34.5594208,50.7862532 C34.4161464,51.0177884 34.2012347,51.2879127 34.3874915,51.545174 C34.5737483,51.8024353 35.0752088,51.8410245 35.4620498,51.7895722 C36.6798826,51.6352155 37.9406978,51.4937218 39.1298757,51.2621866 C40.8918473,51.0137207 42.6944124,51.1460092 44.3880478,51.6480785 C44.9214203,51.7707031 45.3642651,52.1035559 45.5925173,52.5533868 C45.8207695,53.0032177 45.8098796,53.5216454 45.5628983,53.96343 C45.261103,54.6926457 44.6079834,55.2600962 43.7862952,55.5069977 C43.1126848,55.6860009 42.4287343,55.8319977 41.7374706,55.9443418 C41.2705163,55.9729131 40.8077082,55.8496313 40.4336731,55.5970391 C38.9615115,54.9523286 37.4142387,54.4562111 35.8202359,54.1177868 C35.0594857,53.9733666 34.2888789,53.8745316 33.5135174,53.8219363 C33.1943903,53.7900955 32.8865243,53.9385324 32.7398354,54.1949652 C32.4246316,54.6708985 32.1237552,55.172558 31.8228789,55.6484914 C29.8314047,58.8913917 28.167546,62.2879545 26.8512556,65.7974487 C25.834007,68.3700615 25.0173427,70.9426742 24.1863509,73.6053284 C22.7305247,78.0334851 21.6151358,82.5461737 20.8480563,87.1115454 C20.54718,89.0538681 20.289286,90.9704646 20.0457194,92.9256503 C19.9454273,93.6974341 19.9310999,94.4563549 19.902445,95.2281387 C19.9178213,95.3618753 20.0028583,95.4811652 20.1316841,95.5497153 C20.2577897,95.6070222 20.406747,95.6070222 20.5328525,95.5497153 C20.9186176,95.3157517 21.2658682,95.0343028 21.5644285,94.7136161 C22.7444538,93.1844828 24.7431488,92.3363044 26.8082733,92.4883061 C27.3383887,92.4883061 27.8828316,92.3082232 28.4272745,92.2953602 C29.2370333,92.3098535 29.9102777,92.8593384 30.0032934,93.5816665 C30.107029,94.2862946 29.9183347,95.0005563 29.473178,95.5883045 C28.4573798,96.8174786 27.3052838,97.9509455 26.0345913,98.9712903 C25.3179415,99.5364756 24.3782705,99.8192304 23.4269963,99.7559372 C22.5081828,99.8379586 21.6037747,100.019356 20.7334368,100.296186 C20.2362578,100.331222 19.7768869,100.547929 19.4627112,100.895646 C19.1485354,101.243363 19.0070946,101.691612 19.0714532,102.135604 C18.9829785,105.069499 18.6862764,107.995347 18.1831516,110.89535 C17.9681162,112.06834 17.9103951,113.260237 18.0112223,114.445556 C18.2691163,117.365472 18.4410456,120.29825 18.6702847,123.218166 C18.7105648,123.632645 18.8167088,124.039815 18.9854885,124.427294 C19.0714532,124.658829 19.3580021,124.607376 19.5585863,124.427294 C19.8805084,124.229078 20.1099864,123.931488 20.2033213,123.591194 C20.418233,122.845137 20.6188172,122.099079 20.8337289,121.353021 C21.2256366,119.643234 22.8472028,118.38257 24.7881036,118.278749 C25.0975085,118.24675 25.4099826,118.24675 25.7193875,118.278749 C27.7395572,118.53601 28.4845843,119.642234 27.4959906,121.237254 C26.3556967,123.38973 24.6791322,125.277839 22.5960046,126.755508 C21.9082872,127.192852 21.2922071,127.758827 20.5901623,128.183308 C19.9624406,128.51541 19.6858686,129.200945 19.9310999,129.816917 C20.2463036,131.103224 20.5615074,132.273762 20.8623838,133.495754 C21.1632601,134.717745 21.5357737,135.939736 21.7936677,137.17459 C22.57468,140.15929 23.531182,143.104768 24.6591566,145.998652 C25.0801315,147.055647 25.5976807,148.079602 26.2065206,149.060061 C26.3951691,149.284686 26.3951691,149.594356 26.2065206,149.818981 C25.8987778,150.06034 25.4397051,150.06034 25.1319623,149.818981 C24.5858703,149.421994 24.1904051,148.882684 24.0000941,148.275414 C23.7995099,147.67085 23.641908,146.989107 23.4556512,146.448859 C23.380147,146.035358 23.230133,145.635659 23.0115005,145.265457 C22.3134877,144.4104 21.9644187,143.365763 22.0229068,142.306952 C22.0374478,142.169383 22.0076065,142.030961 21.9369421,141.908197 C20.9483484,140.120231 20.9770033,138.049278 20.3322683,136.235586 C19.6875333,134.421894 19.2004002,132.453845 18.6846122,130.550112 C18.5537705,129.766727 18.0725188,129.065204 17.3521598,128.607789 C17.0847025,128.44724 16.9086361,128.189868 16.8700859,127.903099 C16.8315357,127.61633 16.9343434,127.328741 17.1515756,127.115674 C17.6716348,126.48506 17.7909018,125.657648 17.4667794,124.928953 C17.1637393,123.848032 17.0097599,122.73778 17.0083012,121.623146 C16.908009,120.015263 16.6787699,118.420243 16.5784778,116.825223 C16.4781857,115.230203 16.4638583,113.763814 16.4065485,112.233109 C16.497593,110.41898 16.703284,108.610954 17.0226286,106.817759 C17.1085933,105.775851 17.3951422,104.746806 17.4381245,103.704898 C17.5527441,100.784982 18.0112223,97.8779298 18.1401693,94.9580144 C18.2691163,92.0380989 19.2290551,89.3368555 19.5729137,86.4941184 C19.644551,85.7351976 19.8451352,84.9762768 19.8594626,84.2173561 C19.8064031,83.4475566 19.9689509,82.6780856 20.3322683,81.979183 C20.4739742,81.7280178 20.5476098,81.4503581 20.54718,81.16881 C20.5220816,80.1194606 20.7723952,79.0795356 21.2778797,78.1331269 C21.3413286,78.0434083 21.355531,77.932547 21.3164263,77.8322387 C21.2773216,77.7319304 21.1892145,77.6532175 21.0772954,77.6186043 C20.9457416,77.5629167 20.7933533,77.5629167 20.6617995,77.6186043 C20.418233,77.7858242 20.160339,78.0173593 19.8451352,77.9144548 C19.4771192,77.8158039 19.1487268,77.623719 18.8995238,77.3613431 C18.3002009,76.6369073 17.8178551,75.8401025 17.4667794,74.9945393 C16.6787699,73.103669 15.3892999,71.3800184 15.0740961,69.4376958 Z M73.6160349,5.35391188 L73.5014153,5.50826865 L73.5014153,5.31532269 L73.8166191,5.03233528 C74.1318229,4.69789563 74.103168,4.09333163 73.8166191,4.23482533 C73.5538129,4.39305236 73.419137,4.67517789 73.4727604,4.9551569 C73.5300702,5.12237673 73.58738,5.21241818 73.6160349,5.35391188 Z M57.2111108,27.0539005 C56.8910917,26.6738903 56.3948491,26.4463893 55.864331,26.4364735 C55.6494193,26.4364735 55.4058528,26.4364735 55.4058528,26.6551455 C55.4058528,26.8738176 55.5921095,26.8480915 55.7210565,26.8866807 C56.1901663,27.1045441 56.7364586,27.1461866 57.2397657,27.0024483 L57.3973676,27.0924897 L57.2111108,27.0539005 Z M26.7939458,93.4015836 C26.6454206,93.4358982 26.5285125,93.538662 26.4871609,93.6712517 C26.4458093,93.8038414 26.4862798,93.9461673 26.5933616,94.0447368 C26.7980344,94.2523373 27.0288126,94.4379457 27.281079,94.5978486 C27.5533004,94.7650684 27.8541767,94.8165207 28.0834159,94.5206702 C28.2418791,94.3645875 28.3143872,94.1531079 28.2811201,93.9440393 C28.247853,93.7349707 28.1122897,93.5501774 27.9114865,93.4401728 C27.5601771,93.2919234 27.1569007,93.277998 26.7939458,93.4015836 Z M40.4193457,52.3169578 L40.0181772,52.4069993 C39.8462479,52.4841777 39.5740264,52.5227669 39.6313362,52.7671651 C39.688646,53.0115633 39.8749028,52.8957957 40.0181772,52.9343849 C40.4584515,53.0514722 40.9307635,53.0241149 41.3506296,52.8572065 C41.4655441,52.7865761 41.5712728,52.7045977 41.6658334,52.6128083 C41.5655412,52.5227669 41.4652491,52.3684101 41.3506296,52.355547 C41.0412595,52.3269397 40.7303356,52.3140561 40.4193457,52.3169578 Z" id="Shape" fill="#715369" fill-rule="nonzero"></path>
                        <path d="M15.4779385,83.4600458 C15.6906424,84.3137647 15.9158582,85.1539325 16.103538,86.0212024 C16.3701615,87.4074813 17.1355667,88.62168 18.2305762,89.3954246 C19.1189275,90.032326 19.1689755,90.3575522 18.7310558,91.346782 C18.6662499,91.475799 18.5908751,91.5982508 18.50584,91.7126616 C18.4123271,91.8709122 18.2578974,91.9750392 18.0855105,91.9960762 C17.9131236,92.0171132 17.7411717,91.9528158 17.6174888,91.8210703 C17.1920811,91.346782 16.7916974,90.8453916 16.3662898,90.3304501 C15.9756545,89.8235477 15.6162028,89.2893868 15.2902587,88.7314211 C14.8865327,88.0477771 14.3481667,87.4693281 13.713748,87.0375344 C12.1807811,86.0149546 11.2620939,84.1899601 11.298934,82.2404475 C11.2774512,81.7848391 11.2230664,81.3317517 11.1362782,80.8853381 C11.1362782,80.6685206 11.0361822,80.4652543 11.0111583,80.2348857 C10.9226635,79.3230751 11.3666893,78.4477264 12.1247253,78.0396086 C13.0984041,77.8408103 14.0680559,78.4054233 14.4519554,79.3947179 L15.5780345,83.4600458 L15.4779385,83.4600458 Z" id="Path" fill="#715369"></path>
                        <path d="M49.8544984,13.8006217 C49.8544984,13.993977 49.9304032,14.1873324 49.9557048,14.3806877 C50.1754343,15.4175037 49.5593866,16.4499265 48.5135132,16.7976296 C47.9909652,17.0776153 47.3509055,17.06638 46.8394786,16.7682442 C46.3280517,16.4701085 46.0249006,15.9315002 46.0466066,15.3595492 C45.9511122,14.6439051 46.0026784,13.9173386 46.1984162,13.2205556 C46.3687297,12.5095711 47.028902,12.0040652 47.7924174,12 C48.6253964,11.9999839 49.3776238,12.4758561 49.7026887,13.2084709 C49.7659427,13.413911 49.8038952,13.6072663 49.8544984,13.8006217 Z" id="Path" fill="#C2B276"></path>
                        <path d="M25.8535125,48.1103256 C26.223054,49.0650268 25.873405,50.1597329 25.0301111,50.6882896 C24.3240521,51.1039035 23.4625993,51.1039035 22.7565403,50.6882896 C22.5374273,50.5332322 22.3800419,50.2993795 22.3141157,50.0309088 C22.1685726,49.2818248 22.0659755,48.5242632 22.0068764,47.7623005 C21.9283012,46.8947179 22.532091,46.1232676 23.3587293,46.0350646 C23.8819367,45.9335451 24.4221563,46.0545192 24.8602128,46.3712993 C25.2982693,46.6880794 25.5981674,47.1746356 25.693748,47.723631 C25.7551959,47.8525292 25.8043542,47.9814274 25.8535125,48.1103256 Z" id="Path" fill="#C2B276"></path>
                        <path d="M33.8842895,75.0132246 C35.0143715,74.9027958 36.1100374,75.4898623 36.7574739,76.5526997 C37.1605599,77.4654377 37.0548315,78.5634868 36.4876913,79.3545445 C36.260638,79.6866627 35.9242547,79.8980885 35.5569415,79.939545 L34.03267,79.9549398 C33.3718312,80.1281777 32.6889798,79.7915121 32.3465289,79.1236232 C31.9207234,78.3229586 31.8850653,77.328826 32.252105,76.4911207 C32.6492112,75.8177623 33.2194384,75.301438 33.8842895,75.0132246 Z" id="Path" fill="#C2B276"></path>
                        <path d="M9.49961641,110.10622 C10.2104862,109.818199 10.9805836,110.127575 11.4575382,110.89279 C12.0033301,111.748398 12.1503123,112.941085 11.8389516,113.987769 C11.7947591,114.161611 11.7155314,114.315526 11.6101036,114.432351 C10.7511272,115.242949 9.59501495,115.179913 8.78764484,114.278457 C8.64372071,114.080686 8.51586227,113.862867 8.4062315,113.628683 C7.61797726,111.90165 7.97396304,110.670498 9.49961641,110.10622 Z" id="Path" fill="#C2B276"></path>
                        <path d="M92.8618048,4.80403438 C92.1411073,5.06532187 91.3580766,5.06532187 90.6373791,4.80403438 C90.0485605,4.52858611 89.7606936,3.81242062 90.2448333,3.42679304 C90.7289731,3.04116546 90.7813125,2.24236548 91.1215188,1.70524136 C91.3876489,1.11917593 92.0384933,0.848763973 92.6131926,1.08548276 C93.1916089,1.30684037 93.649131,1.7833646 93.8655101,2.38981238 C94.0818892,2.99626015 94.0354838,3.6719765 93.7384903,4.23936543 C93.5452522,4.5604823 93.2214085,4.76906848 92.8618048,4.80403438 Z" id="Path" fill="#C2B276"></path>
                        <path d="M172.680775,173.657626 C171.675288,173.647667 170.676451,173.508493 169.714155,173.244268 C169.35219,173.131457 169.034784,172.924838 168.801349,172.650067 C168.573147,172.417553 168.730036,172.120452 168.801349,171.849186 C168.831649,171.718972 168.800636,171.583214 168.715773,171.47458 C168.637362,171.396125 168.52597,171.351367 168.409127,171.351367 C168.292285,171.351367 168.180893,171.396125 168.102482,171.47458 C167.310004,172.23201 166.33325,172.811444 165.249962,173.166764 C164.956367,173.270826 164.692927,173.434307 164.479782,173.644709 C163.879567,174.193891 163.140225,174.601866 162.32613,174.833113 C161.541687,175.117296 160.89987,175.556489 160.07264,175.879425 C157.22012,177.171168 154.709903,178.902104 151.771808,180.038839 C148.833713,181.175573 145.938406,182.622325 142.943261,183.746142 C141.873566,184.146582 140.903709,184.753702 139.86254,185.205812 C138.116765,186.109416 136.316904,186.92447 134.471278,187.647207 C132.859605,188.138069 131.262194,188.680602 129.636258,189.132712 C128.010322,189.584822 126.213235,189.985262 124.515986,190.424455 C123.356769,190.815568 122.150193,191.08009 120.921811,191.212418 C120.05133,191.197422 119.23308,191.587463 118.753897,192.245813 C118.612994,192.506355 118.352068,192.697111 118.041144,192.766888 C117.73022,192.836664 117.401141,192.778316 117.142223,192.607501 C116.421894,192.194179 115.550606,192.054924 114.717582,192.219978 C112.549667,192.46541 110.438803,192.736676 108.242363,192.852933 C106.045923,192.969189 103.963584,193.718401 101.795669,193.511722 C101.639032,193.506109 101.483018,193.532603 101.339266,193.589226 C100.263201,194.011608 99.059132,194.084613 97.9305053,193.795905 C97.4586721,193.721107 96.9760789,193.721107 96.5042456,193.795905 C95.8053784,193.795905 95.077986,193.937997 94.4219065,193.989667 C93.720652,194.041538 93.0187122,193.897257 92.4108803,193.576309 C92.061541,193.396193 91.9099947,193.011883 92.0543154,192.672088 C92.2046744,192.42274 92.5172879,192.291661 92.8244957,192.349153 C94.0528287,192.50585 95.2923669,192.579253 96.5327708,192.568749 C99.9383875,192.497423 103.337542,192.26459 106.716265,191.871208 C108.142525,191.651611 109.468946,191.522437 110.852418,191.35451 L115.002834,190.837813 C115.712458,190.805798 116.303809,190.33449 116.429093,189.701079 C116.62877,188.951868 116.985335,188.241409 117.213536,187.492198 C118.008819,185.212361 119.375624,183.130044 121.207063,181.408086 C122.50496,180.013004 123.916957,180.2326 124.886813,181.860197 C125.040037,182.101506 125.150717,182.363004 125.214853,182.635243 C125.799881,184.314193 125.061756,186.13933 123.417766,187.07884 C122.718899,187.518033 121.991506,187.944308 121.321164,188.370583 C120.997225,188.569089 120.764043,188.86751 120.665085,189.210216 C120.665085,189.429813 120.665085,189.688161 120.936074,189.688161 C121.417515,189.688323 121.896941,189.631876 122.362334,189.520235 C125.47158,188.667684 128.566563,187.776381 131.690072,186.936748 C132.954546,186.603722 134.17069,186.135392 135.312772,185.541665 C138.134757,184.077214 141.060165,182.78267 144.070006,181.666435 C144.554656,181.560751 144.97051,181.28017 145.221019,180.889834 C145.471528,180.499498 145.534902,180.033361 145.396427,179.599646 C145.381423,178.770209 145.252058,177.94572 145.011337,177.145333 C144.605223,176.366459 144.564071,175.471959 144.897237,174.665186 C145.523682,173.237539 146.297282,171.866536 147.207777,170.57036 C147.656758,169.981119 148.333805,169.566177 149.104703,169.407791 C149.887946,169.221381 150.700237,169.600368 150.987365,170.286176 C151.158517,170.738286 151.144254,171.267901 151.358193,171.720011 C152.239932,173.391876 152.06579,175.363344 150.90179,176.886985 C150.675971,177.25282 150.503386,177.64359 150.388336,178.049554 C150.349987,178.17554 150.38193,178.310549 150.473912,178.411242 C150.59672,178.49341 150.753534,178.521815 150.90179,178.488746 C151.686233,178.191646 152.470676,177.907462 153.226593,177.558691 C155.152044,176.654471 157.077494,175.750251 158.931632,174.807278 C163.401144,172.545466 167.690401,170.003133 171.767969,167.19891 C174.178348,165.571313 176.617252,163.943716 178.899267,162.174028 C182.076345,159.836579 185.012256,157.24242 187.670764,154.423568 C188.070117,153.997293 188.483732,153.571017 188.868823,153.131825 C189.073535,152.911904 189.118098,152.604153 188.982923,152.343861 C188.649523,151.707785 188.27323,151.090889 187.856178,150.496668 C186.951409,149.275147 185.893706,148.152485 184.704144,147.151053 C184.310418,146.915427 184.018296,146.564187 183.876914,146.15641 C183.756275,145.536421 183.670589,144.911268 183.620187,144.283383 C183.583072,143.501016 183.939773,142.745627 184.590044,142.229511 C184.966607,141.860538 185.506891,141.665152 186.060494,141.697742 C186.614096,141.730333 187.121907,141.98742 187.442563,142.397437 C188.548053,143.654111 189.314762,145.126942 189.681791,146.698943 C189.852942,147.784007 190.166719,148.894906 190.437708,149.979971 C190.509021,150.315824 190.608859,150.716264 191.065262,150.793769 C191.521666,150.871274 191.592979,150.58709 191.792655,150.380411 C193.618267,148.378209 195.543718,146.505181 197.240967,144.34797 C199.223468,141.919492 200.977767,139.36184 202.874693,136.881693 C204.472103,134.801986 206.126565,132.773949 207.766763,130.732995 C208.180379,130.229215 208.765145,129.815857 208.79367,129.118316 C208.822195,128.420774 208.123328,128.394939 207.895127,127.955747 C207.847358,127.898488 207.804447,127.838033 207.766763,127.774903 C206.773503,125.954722 205.925095,124.072597 205.228021,122.142902 C204.848914,121.115807 205.160271,119.982805 206.026727,119.236479 C206.59723,118.745617 207.181997,118.732699 207.595612,119.236479 C208.953737,120.679225 210.229528,122.183918 211.417988,123.744663 C211.503153,123.906561 211.683515,124.009679 211.881523,124.009679 C212.07953,124.009679 212.259892,123.906561 212.345057,123.744663 C213.833396,121.703677 215.108289,119.541405 216.15317,117.285947 C216.265601,116.880483 216.464228,116.498758 216.737937,116.16213 C217.366458,115.443918 217.849356,114.63044 218.164196,113.759487 C219.019952,111.951047 219.847183,110.142606 220.774252,108.36 C221.044391,107.705103 221.254291,107.031102 221.401806,106.34488 C221.547763,105.925166 221.328289,105.472403 220.888352,105.285651 C219.933244,104.815821 219.034629,104.257372 218.206984,103.619302 C216.688459,102.299426 215.259583,100.897471 213.928205,99.421136 C213.699063,99.1385818 213.494039,98.8406175 213.314913,98.5298331 C213.156952,98.2820397 213.156952,97.9767456 213.314913,97.7289522 C213.512252,97.2514973 213.962068,96.8963249 214.511223,96.7843534 C215.060378,96.6723819 215.634854,96.8187033 216.039069,97.1735026 C217.279915,98.1164752 218.520761,99.0465305 219.690294,100.092843 C221.544432,101.785026 221.501644,102.01754 223.270206,99.8732462 C223.912023,99.0852828 224.539577,98.2714844 225.209919,97.5093559 C225.796027,96.8477882 226.585011,96.3579245 227.477672,96.1013556 C228.15598,95.8523753 228.933949,96.0745938 229.33181,96.6309704 C229.551652,96.9150296 229.720158,97.2289775 229.831001,97.5610256 C230.254291,98.8050386 229.868163,100.158919 228.832619,101.06165 C227.663086,102.185467 226.465028,103.283449 225.224182,104.342678 C224.578552,104.842859 224.054115,105.458568 223.683821,106.151119 C222.813803,107.95956 221.915259,109.742165 221.045241,111.537689 C220.788514,112.041469 220.574575,112.571083 220.374899,113.087781 C220.268145,113.282575 220.334866,113.518794 220.531787,113.64323 C220.662272,113.701036 220.814918,113.701036 220.945403,113.64323 C221.230655,113.526973 221.473119,113.346129 221.758371,113.229872 C223.12152,112.543039 224.554359,111.976376 226.03715,111.537689 C227.663086,111.163083 228.504579,111.641028 228.347691,113.423634 C228.299573,113.698852 228.154484,113.9526 227.934075,114.14701 C226.51062,115.765921 224.480553,116.855293 222.229036,117.208442 C221.239061,117.363345 220.238131,117.453998 219.233891,117.479708 C218.262107,117.476597 217.374626,117.978959 216.951876,118.771451 C216.609573,119.301066 216.338584,119.895268 216.039069,120.463635 C215.853656,120.838241 215.696767,121.251599 215.482828,121.613287 C214.627072,123.021287 213.799842,124.455122 212.887036,125.82437 C212.385286,126.450313 212.124687,127.208304 212.145381,127.981581 C212.2043,128.228425 212.151431,128.486358 211.998616,128.697603 C211.845802,128.908847 211.605815,129.055748 211.332413,129.105398 C210.201086,129.427429 209.312912,130.227018 208.950559,131.249692 C208.627156,131.960263 208.179257,132.618908 207.624137,133.200225 C206.040989,134.750317 205.05687,136.687932 203.587822,138.367198 C203.541358,138.427413 203.50305,138.492467 203.473722,138.56096 C203.426643,138.65324 203.432507,138.76056 203.489416,138.84818 C203.546324,138.935799 203.647045,138.992584 203.758974,139.000152 C204.536214,139.013968 205.305256,138.854259 205.998201,138.535125 C206.839695,138.173437 207.69545,137.850501 208.551206,137.50173 C210.1931,136.857172 211.925945,136.422431 213.700004,136.209987 C214.3153,136.121513 214.94217,136.285452 215.410685,136.657363 C215.879201,137.029273 216.140828,137.57063 216.124645,138.134684 C216.203875,138.711609 215.872208,139.27095 215.297414,139.529767 C214.536678,139.885837 213.718233,140.130015 212.872773,140.253143 C210.27698,140.601914 207.681188,141.105694 205.071133,141.260703 C203.24552,141.364043 202.004674,142.552446 200.33595,142.83663 C200.093486,142.83663 199.89381,143.211236 199.722659,143.456667 C199.482012,143.811765 199.210142,144.14871 198.909691,144.464227 C197.911309,145.510539 197.041291,146.673108 196.057171,147.693585 C194.630912,149.088668 193.57548,150.729182 192.106432,152.059678 C191.770613,152.360309 191.60736,152.784799 191.664292,153.209329 C191.664292,153.687274 191.49314,154.074797 190.922636,154.087715 C189.571575,154.166378 188.377329,154.910606 187.81339,156.02533 C186.210475,158.169656 184.207574,160.04485 181.894413,161.566909 C180.881768,162.31612 179.897649,163.091166 178.91353,163.866212 C177.842302,164.790318 176.708612,165.653148 175.519032,166.449698 C173.522268,167.638102 171.682393,169.033185 169.813993,170.324929 C169.708598,170.424597 169.661057,170.563335 169.68563,170.699534 C169.747452,170.807912 169.865429,170.880765 169.999407,170.893296 C171.866551,170.920581 173.704719,170.473054 175.305093,169.601552 C175.691002,169.366435 176.090965,169.150816 176.503151,168.955681 C178.357796,168.136955 180.563091,168.331693 182.20819,169.45946 C183.000734,170.006778 183.862588,170.466446 184.775457,170.828708 C185.040669,170.936184 185.229139,171.156471 185.277834,171.415897 C185.326529,171.675322 185.229021,171.93964 185.017921,172.120452 C184.018862,172.903244 182.757709,173.358307 181.43801,173.412195 C180.739142,173.412195 180.01175,173.412195 179.255832,173.412195 C177.144968,174.032232 174.934265,173.541369 172.680775,173.657626 Z M225.637797,101.410421 C225.951574,101.319999 226.222564,101.16499 226.265351,100.867889 C226.308139,100.570788 225.666322,100.751632 225.438121,101.139155 C225.366808,101.255412 225.309757,101.384586 225.238444,101.51376 L225.067293,101.6171 L225.195657,101.475008 C225.295495,101.449173 225.452383,101.449173 225.637797,101.410421 Z M208.308742,122.866278 L208.451368,122.9567 C208.467795,123.450002 208.704552,123.91615 209.107447,124.248443 C209.193023,124.338865 209.378437,124.46804 209.464012,124.429287 C209.549588,124.390535 209.635164,124.145104 209.535325,123.96426 C209.32571,123.52415 208.91406,123.189078 208.40858,123.047122 L208.308742,122.866278 Z M149.832095,171.280819 C149.648769,171.154027 149.413118,171.10674 149.187816,171.151532 C148.962514,171.196324 148.770398,171.328656 148.662562,171.513332 C148.570183,171.626422 148.537504,171.770628 148.573233,171.907531 C148.608961,172.044433 148.709468,172.160128 148.847976,172.223791 C149.108357,172.378253 149.385553,172.508108 149.675207,172.611314 C149.815949,172.668149 149.979563,172.652051 150.103546,172.56917 C150.22753,172.486289 150.292728,172.34943 150.274236,172.210874 C150.28023,171.869367 150.136642,171.539609 149.874883,171.293736 L149.832095,171.280819 Z M187.69929,145.342612 C187.69929,145.239273 187.456825,145.213438 187.328462,145.161768 C187.256166,145.268446 187.207707,145.386946 187.185836,145.510539 C187.158535,145.923105 187.295132,146.330902 187.570926,146.66019 C187.656502,146.76353 187.799128,146.931456 187.884703,146.931456 C187.970279,146.931456 188.098642,146.66019 188.112905,146.479346 C188.125504,146.354738 188.125504,146.229349 188.112905,146.104741 C188.010729,145.846747 187.886753,145.596268 187.742077,145.35553 L187.69929,145.342612 Z" id="Shape" fill="#715369" fill-rule="nonzero"></path>
                        <path d="M164.373731,180.08033 C163.457332,180.169629 162.540933,180.233414 161.624534,180.335471 C160.171221,180.544673 158.685553,180.223506 157.49369,179.442479 C156.520897,178.79187 156.182534,178.868412 155.393022,179.60832 C155.291403,179.710281 155.201641,179.821426 155.125151,179.940003 C155.010046,180.082346 154.971802,180.263987 155.021006,180.434655 C155.070209,180.605322 155.20164,180.746912 155.378923,180.820238 C156.013353,181.062621 156.647783,181.292248 157.31041,181.483603 C157.960477,181.688089 158.624492,181.854278 159.298291,181.981127 C160.123387,182.138299 160.899032,182.460886 161.56814,182.925147 C163.179321,184.043262 165.322622,184.309925 167.207518,183.626784 C167.669628,183.503489 168.140734,183.409707 168.617363,183.346129 C168.842938,183.346129 169.068513,183.346129 169.294088,183.244073 C170.206325,183.03512 170.883557,182.341294 171,181.49636 C170.811461,180.507456 169.893808,179.767024 168.786544,179.710376 L164.430125,179.978274 L164.373731,180.08033 Z" id="Path" fill="#715369"></path>
                        <path d="M223.985462,125.010382 L223.274858,125.157263 C221.95193,125.323654 220.975704,126.464265 221.024611,127.786422 C220.912633,128.475073 221.188063,129.169504 221.743036,129.597762 C222.29801,130.026019 223.044198,130.119942 223.689377,129.842747 C224.550211,129.645335 225.361301,129.275463 226.072863,128.755832 C226.855116,128.285373 227.195508,127.333617 226.887097,126.479186 C226.510951,125.598503 225.64525,125.022058 224.681263,125.010382 C224.449539,124.996539 224.217186,124.996539 223.985462,125.010382 Z" id="Path" fill="#C2B276"></path>
                        <path d="M198.0935,159.053474 C197.090526,159.032424 196.220814,159.881724 196.03405,161.06459 C195.893579,162.064461 196.193503,163.080472 196.82713,163.751196 C197.058344,163.931936 197.332056,164.0181 197.607418,163.996829 C198.362259,163.867359 199.109823,163.682793 199.845951,163.444156 C200.254077,163.308714 200.599486,162.981556 200.804104,162.536632 C201.008723,162.091707 201.055275,161.566578 200.933239,161.079943 C200.839572,160.423608 200.531802,159.839145 200.078055,159.455929 C199.624307,159.072712 199.062008,158.922349 198.515623,159.038122 L198.0935,159.053474 Z" id="Path" fill="#C2B276"></path>
                        <path d="M167,161.236193 C166.676224,160.158567 165.759647,159.314686 164.584073,159.01188 C163.622716,158.921034 162.693089,159.356907 162.212072,160.124036 C162.004393,160.437584 161.946183,160.815316 162.051011,161.169196 C162.182788,161.664976 162.373134,162.133958 162.534196,162.616339 C162.695258,163.09872 163.090591,163.835691 163.910542,163.956287 C164.785256,164.11389 165.686103,163.83909 166.282543,163.232715 C166.743189,162.651884 166.994027,161.953858 167,161.236193 Z" id="Path" fill="#C2B276"></path>
                        <path d="M219.021039,86.0603373 C219.064171,86.9925351 219.383763,87.8801819 219.927219,88.5771956 C220.387279,89.150657 221.181929,89.1665865 221.391048,88.4656892 C221.600166,87.764792 222.311169,87.3665549 222.701523,86.7453051 C223.099492,86.2012498 223.099492,85.4096814 222.701523,84.8656261 C222.270424,84.3148317 221.65436,84 221.007664,84 C220.360968,84 219.744904,84.3148317 219.313805,84.8656261 C219.058899,85.190156 218.950686,85.6317467 219.021039,86.0603373 Z" id="Path" fill="#C2B276"></path>
                        <path d="M211.638576,75.002821 C211.282,75.8463171 210.800071,76.6426477 210.205885,77.3701754 C209.954077,77.6299281 209.626632,77.8215103 209.260308,77.9234158 C208.945116,78.0263443 208.687232,77.7947553 208.429347,77.6274966 C208.298274,77.5699204 208.14494,77.5699204 208.013866,77.6274966 C207.905427,77.6659144 207.82096,77.7447932 207.78245,77.8436025 C207.74394,77.9424118 207.755196,78.0513776 207.81329,78.1421388 C208.32945,79.085885 208.584984,80.1273661 208.558289,81.1785281 C208.557859,81.4601418 208.631492,81.7378661 208.773193,81.9890897 C209.136497,82.6881549 209.299039,83.4578049 209.245981,84.2277835 C209.245981,84.9868808 209.460885,85.7459782 209.53252,86.5050755 C209.819058,89.348474 210.764634,92.088944 210.893576,94.9709407 C211.022519,97.8529373 211.48098,100.799264 211.609922,103.719859 C211.609922,104.76201 211.939441,105.791294 212.025403,106.833445 C212.344736,108.627057 212.550419,110.435503 212.64146,112.250055 C212.64146,113.781115 212.64146,115.312176 212.469537,116.843237 C212.297614,118.374297 212.140018,120.034019 212.03973,121.642276 C212.038271,122.757169 211.884297,123.867679 211.581268,124.948852 C211.257158,125.677716 211.376421,126.505322 211.896461,127.136082 C212.112278,127.350926 212.212719,127.639762 212.171399,127.926718 C212.13008,128.213674 211.95113,128.470066 211.681557,128.628544 C211.002481,129.096257 210.554917,129.784616 210.435115,130.545587 C209.905019,132.449763 209.432231,134.405404 208.78752,136.232384 C208.142809,138.059364 208.171463,140.092201 207.182905,141.906315 C207.112244,142.029107 207.082403,142.167561 207.096944,142.305162 C207.15013,143.365621 206.796081,144.410306 206.09406,145.264355 C205.886994,145.637876 205.742178,146.036696 205.664252,146.448033 C205.478003,147.052737 205.320406,147.734638 205.11983,148.275013 C204.929526,148.882425 204.534075,149.421859 203.988003,149.818939 C203.680272,150.060354 203.221216,150.060354 202.913485,149.818939 C202.702817,149.608938 202.673539,149.298685 202.84185,149.059842 C203.450667,148.079155 203.968198,147.054962 204.389157,145.997721 C205.51709,143.103163 206.473557,140.157001 207.25454,137.171606 C207.512424,135.885 207.870597,134.714189 208.171463,133.491914 L209.117039,129.812222 C209.35631,129.196128 209.081113,128.513817 208.458001,128.178232 C207.741655,127.753653 207.139925,127.187546 206.437906,126.7501 C204.36272,125.265008 202.68779,123.378231 201.538101,121.230562 C200.563871,119.635171 201.294543,118.52869 203.328965,118.271369 C203.633557,118.239203 203.941296,118.239203 204.245888,118.271369 C206.19217,118.36958 207.821145,119.631772 208.214443,121.346356 C208.429347,122.092588 208.615597,122.838819 208.830501,123.58505 C208.923546,123.929023 209.159263,124.228139 209.489539,124.421344 C209.690116,124.550004 209.962327,124.601469 210.062615,124.421344 C210.231389,124.033775 210.337529,123.62651 210.377808,123.211935 C210.607038,120.29134 210.764634,117.357879 211.036846,114.437284 C211.137669,113.251689 211.07995,112.059515 210.864923,110.886253 C210.361816,107.985575 210.065125,105.059046 209.976654,102.124468 C210.041014,101.678302 209.89768,101.228046 209.580443,100.879847 C209.263205,100.531648 208.800136,100.316319 208.300405,100.284622 C207.422234,99.9670955 206.502742,99.7509344 205.563964,99.6413192 C204.612725,99.7046271 203.673089,99.4218066 202.956465,98.8564897 C201.68582,97.8359076 200.533766,96.7021769 199.518006,95.4727169 C199.072866,94.884832 198.884178,94.1704041 198.98791,93.4656121 C199.068647,92.7375152 199.7491,92.1819972 200.563871,92.1790064 C201.108293,92.1790064 201.638389,92.3977294 202.182812,92.3719973 C204.24786,92.2199602 206.246481,93.0683359 207.426463,94.597825 C207.723416,94.9152807 208.065396,95.196437 208.443674,95.4341187 C208.570296,95.4894429 208.718205,95.4894429 208.844828,95.4341187 C208.977548,95.3669959 209.067665,95.2479845 209.088385,95.1124673 C209.088385,94.3405039 209.088385,93.5814066 208.945116,92.8094432 C208.701558,90.8666687 208.429347,88.9496262 208.128482,86.9939857 C207.375225,82.4252545 206.259665,77.9106551 204.790311,73.4846264 C203.973676,70.9114151 203.157042,68.2481414 202.139831,65.6749301 C200.823589,62.1646194 199.159792,58.7672663 197.168392,55.5236115 C196.867526,55.0475675 196.566661,54.5457912 196.251469,54.0697472 C196.104786,53.8132547 195.796931,53.6647833 195.477816,53.6966315 C194.697853,53.750116 193.922573,53.8489631 193.156855,53.9925508 C191.567513,54.3310461 190.025043,54.8272979 188.557916,55.4721473 C188.178341,55.7246644 187.711171,55.8477886 187.239839,55.8195308 C186.553687,55.7055941 185.874623,55.5595802 185.205417,55.3820849 C184.38376,55.135126 183.730664,54.5675435 183.42888,53.8381581 C183.181908,53.3962707 183.171018,52.8777225 183.399262,52.4277869 C183.627506,51.9778513 184.070334,51.644921 184.603687,51.522268 C186.292455,51.020674 188.090157,50.8883463 189.847338,51.1362863 C191.050799,51.3678753 192.297241,51.5094019 193.529355,51.6637946 C193.901855,51.6637946 194.345989,51.7667231 194.603874,51.4193395 C194.861758,51.071956 194.603874,50.8918312 194.417624,50.6602422 C192.984932,48.4086823 191.666856,46.1056582 190.119549,43.9312947 C188.300031,41.3580834 186.265609,39.0164611 184.388783,36.5461783 C182.798496,34.4747432 181.279843,32.3647099 179.746863,30.2546766 C179.360036,29.7271683 179.145132,29.0967316 178.443113,28.8265444 C177.741095,28.5563572 177.440229,29.1353297 176.910134,29.1739279 C176.824172,29.1739279 176.752538,29.1739279 176.680903,29.1739279 C174.438784,29.3731652 172.183434,29.4247673 169.932926,29.3283206 C168.731887,29.2848716 167.666345,28.6235636 167.196485,27.6300011 C166.89562,26.9738322 167.096197,26.4849221 167.812542,26.3433955 C169.791305,25.7118776 171.80443,25.1708094 173.844174,24.7222724 C174.040884,24.6983475 174.206225,24.577731 174.272607,24.4097289 C174.338989,24.2417268 174.295287,24.0544972 174.159366,23.9245769 C172.562795,21.9471434 170.764125,20.1078931 168.786773,18.4307707 C168.404388,18.1949735 168.078082,17.8931927 167.826869,17.5430129 C167.311274,16.7591813 166.641352,16.0660188 165.849755,15.4973099 C164.273794,14.1335079 162.683507,12.795438 161.164854,11.3930379 C160.580538,10.9231446 159.957975,10.4930809 159.302355,10.1064322 C158.91072,9.84139522 158.361925,9.87425099 158.012932,10.1836286 C157.221795,10.8533773 156.352354,11.4443603 155.419761,11.9462783 C153.503381,12.7673564 151.532016,13.4806538 149.517072,14.0820437 C149.14136,14.1765672 148.758212,14.2453832 148.370918,14.2879006 C148.054618,14.3173564 147.744395,14.1951675 147.554284,13.9662492 C147.140493,13.6340367 146.938693,13.1382438 147.016382,12.6447023 C147.094072,12.1511609 147.440994,11.7250267 147.941111,11.5088324 C149.373803,10.7883332 150.806494,10.067834 152.239186,9.45026333 C154.646107,8.47244304 154.875338,8.60110361 153.270723,6.34954373 C152.697647,5.52611611 152.067263,4.71555455 151.52284,3.87926088 C151.039713,3.14996169 150.810221,2.30767328 150.863802,1.46044227 C150.84211,0.803464326 151.350089,0.227804875 152.067263,0.0966402829 C152.442213,0.0156691845 152.828504,-0.0146848046 153.213416,0.00657788765 C154.653604,0.0885217877 155.921014,0.888725192 156.494279,2.07801298 C157.239279,3.45468102 157.926971,4.85708118 158.614663,6.27234739 C158.908799,6.99381365 159.361971,7.65458344 159.947066,8.21512191 C161.5087,9.5789239 163.04168,10.968458 164.588986,12.33226 C165.033121,12.7311077 165.491582,13.0913573 166.021678,13.4516069 C166.205537,13.5850482 166.468204,13.5850482 166.652062,13.4516069 C166.765329,13.3653943 166.828627,13.2374966 166.823985,13.1042234 C166.823985,12.8340362 166.70937,12.5509829 166.680716,12.2807958 C166.456468,10.896669 166.374937,9.49691085 166.437159,8.09932741 C166.623408,6.60686486 167.425716,6.06649048 169.21658,6.81272176 C169.484501,6.95076744 169.695567,7.16287636 169.818311,7.41742641 C170.979609,9.17418879 171.391933,11.2495938 170.978791,13.258616 C170.786905,14.153629 170.523565,15.0350849 170.19081,15.8961576 C169.841778,16.6920751 170.018856,17.5965133 170.649272,18.2377799 C171.093406,18.72669 171.609175,19.164136 172.081963,19.6144479 C172.554751,20.0647599 172.769655,20.1676884 173.07052,20.4893398 C174.231,21.6987491 175.420134,22.9081584 176.523307,24.1690319 C176.995151,24.8112542 177.690293,25.2952827 178.500421,25.5457 C179.071453,25.6312472 179.460487,26.1123417 179.374363,26.6264487 C179.313959,27.7044054 179.850127,28.7396236 180.807055,29.3926509 C181.423137,29.9227039 181.944981,30.5345311 182.354361,31.2067648 C183.414553,33.0852091 185.076475,34.6034037 186.236955,36.4175177 L186.380225,36.5719104 C186.463146,36.6402229 186.57601,36.6712118 186.687293,36.6562215 C186.798575,36.6412312 186.896348,36.5818684 186.953301,36.494714 C187.235634,35.8399743 187.343572,35.1350178 187.268493,34.436145 C187.182532,33.5998513 187.153878,32.7635577 187.09657,31.8629337 C187.041897,30.2572022 187.224973,28.652063 187.640993,27.0896267 C187.768465,26.5383346 188.162826,26.066711 188.716811,25.8030374 C189.270796,25.5393639 189.926795,25.5110601 190.506376,25.7258248 C191.136127,25.8556321 191.603236,26.3320783 191.666856,26.909502 C191.76506,27.6777722 191.72637,28.455186 191.552241,29.2125261 C190.993491,31.5284162 190.592338,33.8829046 189.818684,36.1473305 C189.288588,37.7169894 190.076569,39.1837198 189.818684,40.7019145 C189.818684,40.9206375 190.062242,41.2036907 190.248492,41.4224137 C190.528075,41.7536462 190.781791,42.1018621 191.007818,42.4645642 C191.738491,43.7511699 192.62676,44.8190526 193.328778,46.054194 C194.274355,47.7396474 195.592431,49.2063778 196.452046,50.9304294 C196.64717,51.3153074 197.026845,51.5994415 197.483584,51.7023928 C197.985026,51.8567854 198.328872,52.1527047 198.128295,52.6416149 C197.725076,53.8071426 198.078676,55.0773204 199.045218,55.9353253 C200.67187,58.0784244 201.869429,60.4600861 202.583966,62.9730582 C202.985119,64.0924051 203.457907,65.1860199 203.902042,66.2925008 C204.460844,67.5186132 204.939227,68.7730559 205.334733,70.0493893 C205.864829,72.1465565 206.65281,74.2051255 207.354828,76.2765606 C207.41687,76.3992806 207.538439,76.4894672 207.684347,76.5210157 C207.818856,76.5066275 207.934064,76.4278001 207.985213,76.3151588 C208.676585,74.7458102 208.855498,73.0319957 208.500982,71.3745931 C208.382254,70.9521423 208.300815,70.5219396 208.257424,70.0879875 C208.101506,68.2692755 209.0771,66.5219929 210.793288,65.5462695 C211.645546,65.067326 212.429739,64.497028 213.128575,63.8479501 C213.340279,63.6363032 213.661478,63.5419296 213.971545,63.6002717 C214.281613,63.6586139 214.533611,63.86084 214.632901,64.1310033 C215.09096,65.2525792 215.121196,66.4790218 214.718863,67.6177046 C214.490358,68.2381384 214.227368,68.8478968 213.930882,69.4446846 C213.61569,71.348861 212.326268,73.0729126 211.638576,75.002821 Z M155.419761,4.9085454 C155.484253,4.63046833 155.35376,4.34514147 155.090242,4.18804624 C154.77505,4.04651962 154.760723,4.65122427 155.090242,4.98574174 L155.405434,5.26879498 L155.405434,5.46178583 L155.419761,5.30739315 C155.431987,5.1746706 155.431987,5.04126795 155.419761,4.9085454 Z M171.609175,27.0510286 L171.766771,26.9609662 C172.270236,27.1033176 172.815891,27.0617123 173.285424,26.8451717 C173.414366,26.8451717 173.600616,26.690779 173.600616,26.6135827 C173.600616,26.5363863 173.357059,26.3691276 173.142155,26.3948597 C172.611656,26.4047779 172.115432,26.6323317 171.795425,27.0124304 L171.609175,27.0510286 Z M201.093966,93.4141478 C200.893171,93.524178 200.757612,93.7090143 200.724347,93.9181315 C200.691081,94.1272487 200.763586,94.3387776 200.922043,94.4948966 C201.151274,94.7908159 201.452139,94.7393517 201.724351,94.5720929 C201.972077,94.4119091 202.198071,94.2262319 202.397716,94.0188525 C202.514465,93.9257373 202.563221,93.7817002 202.52393,93.6459879 C202.484638,93.5102756 202.363934,93.4058056 202.211466,93.3755497 C201.848524,93.2519353 201.445263,93.2658639 201.093966,93.4141478 Z M187.626666,52.3199635 C187.512051,52.3199635 187.411762,52.4872222 187.297147,52.5772846 C187.712772,52.999978 188.386463,53.1303653 188.959069,52.898936 C189.088011,52.898936 189.317242,52.8088736 189.331569,52.7316773 C189.345896,52.6544809 189.130992,52.448624 188.959069,52.3714277 L188.557916,52.2813653 C188.246937,52.2784629 187.936025,52.2913495 187.626666,52.3199635 Z" id="Shape" fill="#715369" fill-rule="nonzero"></path>
                        <path d="M214.543936,83.4929828 C214.329911,84.343409 214.103296,85.1803364 213.914451,86.0442615 C213.646172,87.4251937 212.876013,88.6347095 211.774202,89.40547 C210.880334,90.0399149 210.829975,90.3638868 211.270614,91.3493014 C211.327142,91.4832093 211.403688,91.6063193 211.497229,91.7137698 C211.591323,91.8714101 211.746712,91.9751355 211.920169,91.9960914 C212.093627,92.0170472 212.266646,91.9529978 212.391098,91.8217604 C212.806558,91.3493014 213.222018,90.8498447 213.650067,90.3368892 C214.043129,89.8319418 214.404813,89.2998411 214.732781,88.7440273 C215.139015,88.06302 215.680724,87.486802 216.319083,87.0566737 C217.862087,86.0124698 218.768942,84.1655348 218.698536,82.210594 C218.720152,81.7567429 218.774875,81.3054029 218.862202,80.8607111 C218.862202,80.6447298 218.96292,80.4422474 218.988099,80.2127673 C219.078397,79.3185223 218.648801,78.4562039 217.905385,78.0394558 C216.925659,77.8414243 215.949985,78.4038596 215.563701,79.3893387 C215.173421,80.7392217 214.808319,82.0891046 214.430629,83.4389875 L214.543936,83.4929828 Z" id="Path" fill="#715369"></path>
                        <path d="M179.13299,13.8380627 C179.13299,14.0290286 179.13299,14.2199944 179.044342,14.4109603 C178.824381,15.4349632 179.441076,16.4546273 180.488048,16.7980334 C181.009372,17.0767 181.650195,17.0663462 182.161078,16.7710021 C182.67196,16.4756581 182.972182,15.9419891 182.944881,15.3777249 C183.05324,14.6713309 183.001444,13.9513113 182.792912,13.2651652 C182.653799,12.5411298 181.990549,12.0110574 181.209901,12.0000164 C180.375028,11.9967992 179.6203,12.4678583 179.297624,13.193553 C179.234303,13.456131 179.183647,13.6470969 179.13299,13.8380627 Z" id="Path" fill="#C2B276"></path>
                        <path d="M204.144208,48.1119993 C203.782083,49.0632628 204.121154,50.1527111 204.94613,50.6886073 C205.648565,51.1037976 206.503657,51.1037976 207.206092,50.6886073 C207.418936,50.529573 207.57345,50.2974784 207.643503,50.0315723 C207.80421,49.2797009 207.921878,48.5182111 207.995863,47.7512742 C208.025836,47.323132 207.892019,46.9002179 207.62458,46.5778734 C207.357141,46.2555289 206.978593,46.0608879 206.574274,46.0378299 C206.056931,45.93229 205.521249,46.0496537 205.085726,46.3639593 C204.650202,46.6782649 204.350732,47.1636074 204.253561,47.7126251 C204.265712,47.8543385 204.21711,47.9831689 204.144208,48.1119993 Z" id="Path" fill="#C2B276"></path>
                        <path d="M196.119267,75.0121623 C194.986032,74.9076015 193.887992,75.4827586 193.232517,76.5242517 C192.840175,77.4250324 192.950756,78.4993004 193.515796,79.2762543 C193.742855,79.6024645 194.079247,79.8101292 194.44657,79.8508483 L195.970882,79.9566945 C196.627822,80.1246948 197.305817,79.7937309 197.643579,79.1401663 C198.082506,78.3582464 198.118449,77.3740114 197.738005,76.5544935 C197.355022,75.8638296 196.789066,75.3245874 196.119267,75.0121623 Z" id="Path" fill="#C2B276"></path>
                        <path d="M220.503752,110.104423 C219.79278,109.821276 219.022572,110.125416 218.545548,110.87768 C218.003271,111.720341 217.852114,112.88708 218.151365,113.920279 C218.205109,114.088806 218.28783,114.238452 218.392961,114.357337 C218.87597,114.886951 219.512188,115.104994 220.128997,114.952306 C220.745805,114.799619 221.279243,114.292034 221.584579,113.56727 C222.385662,111.869466 222.029625,110.659151 220.503752,110.104423 Z" id="Path" fill="#C2B276"></path>
                        <path d="M136.173849,4.80429969 C136.887014,5.06523344 137.66186,5.06523344 138.375025,4.80429969 C138.957689,4.52922434 139.229599,3.81402844 138.763468,3.42892295 C138.297336,3.04381746 138.232596,2.24609895 137.895946,1.70970202 C137.627001,1.11526388 136.969944,0.84451105 136.393966,1.09078249 C135.816999,1.30599176 135.358085,1.77943974 135.138734,2.38576767 C134.919383,2.99209561 134.96172,3.67014944 135.254534,4.24039523 C135.453156,4.57957157 135.798011,4.7911044 136.173849,4.80429969 Z" id="Path" fill="#C2B276"></path>
                    </g>
                </g>
            </g>
        </g>
    </g>
</svg>