<?xml version="1.0" encoding="UTF-8"?>
<svg width="24px" height="24px" viewBox="0 0 24 24" version="1.1" xmlns="http://www.w3.org/2000/svg" xmlns:xlink="http://www.w3.org/1999/xlink">
    <!-- Generator: Sketch 52.6 (67491) - http://www.bohemiancoding.com/sketch -->
    <title>Brands/github</title>
    <desc>Created with Sketch.</desc>
    <defs>
        <path d="M8.02741935,19.1322581 C8.02741935,19.2290323 7.91612903,19.3064516 7.77580645,19.3064516 C7.61612903,19.3209677 7.50483871,19.2435484 7.50483871,19.1322581 C7.50483871,19.0354839 7.61612903,18.9580645 7.75645161,18.9580645 C7.9016129,18.9435484 8.02741935,19.0209677 8.02741935,19.1322581 Z M6.52258065,18.9145161 C6.48870968,19.0112903 6.58548387,19.1225806 6.73064516,19.1516129 C6.85645161,19.2 7.0016129,19.1516129 7.03064516,19.0548387 C7.05967742,18.9580645 6.96774194,18.8467742 6.82258065,18.8032258 C6.69677419,18.7693548 6.55645161,18.8177419 6.52258065,18.9145161 Z M8.66129032,18.8322581 C8.52096774,18.866129 8.42419355,18.9580645 8.43870968,19.0693548 C8.45322581,19.166129 8.57903226,19.2290323 8.72419355,19.1951613 C8.86451613,19.1612903 8.96129032,19.0693548 8.94677419,18.9725806 C8.93225806,18.8806452 8.8016129,18.8177419 8.66129032,18.8322581 Z M11.8451613,0.290322581 C5.13387097,0.290322581 0,5.38548387 0,12.0967742 C0,17.4629032 3.37741935,22.0548387 8.2016129,23.6709677 C8.82096774,23.7822581 9.03870968,23.4 9.03870968,23.0854839 C9.03870968,22.7854839 9.02419355,21.1306452 9.02419355,20.1145161 C9.02419355,20.1145161 5.63709677,20.8403226 4.92580645,18.6725806 C4.92580645,18.6725806 4.37419355,17.2645161 3.58064516,16.9016129 C3.58064516,16.9016129 2.47258065,16.1419355 3.65806452,16.1564516 C3.65806452,16.1564516 4.86290323,16.2532258 5.52580645,17.4048387 C6.58548387,19.2725806 8.36129032,18.7354839 9.05322581,18.416129 C9.16451613,17.6419355 9.47903226,17.1048387 9.82741935,16.7854839 C7.12258065,16.4854839 4.39354839,16.0935484 4.39354839,11.4387097 C4.39354839,10.1080645 4.76129032,9.44032258 5.53548387,8.58870968 C5.40967742,8.27419355 4.9983871,6.97741935 5.66129032,5.30322581 C6.67258065,4.98870968 9,6.60967742 9,6.60967742 C9.96774194,6.33870968 11.0080645,6.1983871 12.0387097,6.1983871 C13.0693548,6.1983871 14.1096774,6.33870968 15.0774194,6.60967742 C15.0774194,6.60967742 17.4048387,4.98387097 18.416129,5.30322581 C19.0790323,6.98225806 18.6677419,8.27419355 18.5419355,8.58870968 C19.316129,9.44516129 19.7903226,10.1129032 19.7903226,11.4387097 C19.7903226,16.1080645 16.9403226,16.4806452 14.2354839,16.7854839 C14.6806452,17.1677419 15.0580645,17.8935484 15.0580645,19.0306452 C15.0580645,20.6612903 15.0435484,22.6790323 15.0435484,23.0758065 C15.0435484,23.3903226 15.266129,23.7725806 15.8806452,23.6612903 C20.7193548,22.0548387 24,17.4629032 24,12.0967742 C24,5.38548387 18.5564516,0.290322581 11.8451613,0.290322581 Z M4.70322581,16.9790323 C4.64032258,17.0274194 4.65483871,17.1387097 4.73709677,17.2306452 C4.81451613,17.3080645 4.92580645,17.3419355 4.98870968,17.2790323 C5.0516129,17.2306452 5.03709677,17.1193548 4.95483871,17.0274194 C4.87741935,16.95 4.76612903,16.916129 4.70322581,16.9790323 Z M4.18064516,16.5870968 C4.14677419,16.65 4.19516129,16.7274194 4.29193548,16.7758065 C4.36935484,16.8241935 4.46612903,16.8096774 4.5,16.7419355 C4.53387097,16.6790323 4.48548387,16.6016129 4.38870968,16.5532258 C4.29193548,16.5241935 4.21451613,16.5387097 4.18064516,16.5870968 Z M5.7483871,18.3096774 C5.67096774,18.3725806 5.7,18.5177419 5.81129032,18.6096774 C5.92258065,18.7209677 6.06290323,18.7354839 6.12580645,18.6580645 C6.18870968,18.5951613 6.15967742,18.45 6.06290323,18.3580645 C5.95645161,18.2467742 5.81129032,18.2322581 5.7483871,18.3096774 Z M5.19677419,17.5983871 C5.11935484,17.6467742 5.11935484,17.7725806 5.19677419,17.883871 C5.27419355,17.9951613 5.40483871,18.0435484 5.46774194,17.9951613 C5.54516129,17.9322581 5.54516129,17.8064516 5.46774194,17.6951613 C5.4,17.583871 5.27419355,17.5354839 5.19677419,17.5983871 Z" id="path-1"></path>
    </defs>
    <g id="Page-1" stroke="none" stroke-width="1" fill="none" fill-rule="evenodd">
        <g id="Desktop" transform="translate(-91.000000, -31.000000)">
            <g id="header">
                <g id="header_icons" transform="translate(41.000000, 25.000000)">
                    <g id="Brands/github" transform="translate(50.000000, 6.000000)">
                        <mask id="mask-2" fill="white">
                            <use xlink:href="#path-1"></use>
                        </mask>
                        <g id="Mask"></g>
                        <g id="Color/Black" mask="url(#mask-2)" fill="#725269" fill-rule="evenodd">
                            <rect id="Black" x="0" y="0" width="24" height="24"></rect>
                        </g>
                    </g>
                </g>
            </g>
        </g>
    </g>
</svg>