<?xml version="1.0" encoding="UTF-8"?>
<svg width="72px" height="73px" viewBox="0 0 72 73" version="1.1" xmlns="http://www.w3.org/2000/svg" xmlns:xlink="http://www.w3.org/1999/xlink">
    <!-- Generator: Sketch 52.6 (67491) - http://www.bohemiancoding.com/sketch -->
    <title>くみ きめ</title>
    <desc>Created with Sketch.</desc>
    <g id="Page-1" stroke="none" stroke-width="1" fill="none" fill-rule="evenodd">
        <g id="Desktop" transform="translate(-208.000000, -307.000000)" fill="#725269">
            <g id="くみ-きめ" transform="translate(208.000000, 306.000000)">
                <path d="M22.880001,5.32 C22.480001,6.44 21.720001,7.28 20.640001,7.84 C19.400001,8.52 18.200001,9.28 17.080001,10.08 C15.880001,10.76 14.760001,11.6 13.720001,12.56 C12.520001,13.6 11.400001,14.72 10.400001,15.96 C9.56000095,17.04 8.76000095,18.12 7.96000095,19.2 C7.60000095,19.56 7.24000095,19.96 6.92000095,20.4 C7.44000095,20.92 7.96000095,21.44 8.52000095,21.92 C10.400001,23.6 12.280001,24.8 14.080001,25.56 C15.920001,26.28 17.440001,26.96 18.680001,27.56 C19.200001,27.92 19.760001,28.2 20.360001,28.48 C21.400001,28.64 22.000001,28.88 22.200001,29.2 C22.240001,29.84 22.000001,30.36 21.520001,30.84 C21.000001,31.24 20.440001,31.32 19.840001,31.12 C18.280001,30.92 16.760001,30.72 15.280001,30.44 C12.600001,29.6 10.000001,28.64 7.44000095,27.56 C6.08000095,27.16 4.92000095,26.44 3.92000095,25.48 C3.56000095,25.04 3.04000095,24.8 2.44000095,24.8 C1.72000095,24.8 1.32000095,24.44 1.28000095,23.64 C1.00000095,22.12 1.04000095,20.6 1.44000095,19.04 C1.88000095,17.52 2.44000095,16 3.16000095,14.56 L5.72000095,10.56 C6.72000095,9.32 7.80000095,8.12 8.92000095,7 C11.280001,4.48 13.400001,2.88 15.360001,2.24 C17.280001,1.56 18.560001,1.32 19.200001,1.56 C20.880001,2.36 21.920001,3 22.280001,3.48 C22.520001,4.08 22.720001,4.72 22.880001,5.32 Z M62.32,24.4 C60.88,23.96 59.44,23.68 57.96,23.56 C57.24,23.52 56.56,23.56 55.84,23.64 L53.6,26.4 C53.32,26.84 53,27.36 52.68,27.84 C51.8,28.8 50.72,29.44 49.4,29.72 C48.04,30.04 46.76,29.88 45.52,29.24 C44.12,28.52 43.32,27.84 43.12,27.24 C42.52,26.04 42,24.76 41.6,23.48 C41.24,21.88 41.44,20.32 42.24,18.76 C42.96,17.44 44.08,16.72 45.52,16.6 C47,16.48 48.4,16.48 49.76,16.56 C50.52,16.56 51.28,16.64 52.04,16.72 L53.84,16.88 C54.12,16.16 54.32,15.48 54.44,14.84 C54.68,13.96 54.92,13.04 55.16,12.16 C55.68,10.84 55.88,9.52 55.84,8.16 L54.28,8.24 C51.12,8.52 48.64,8.76 46.84,8.96 C45.04,9.16 43.4,9.08 41.96,8.68 C40.56,8.28 40.04,7.08 40.4,5.08 C40.76,4.12 41.28,3.32 41.96,2.64 C42.8,2.16 43.68,1.84 44.64,1.68 C46.88,1 49.2,0.8 51.52,1.12 C53.8,1.24 56.08,1.52 58.32,1.88 C59.2,2.04 59.96,2.4 60.56,3.04 C60.76,3.36 60.96,3.72 61.16,4.08 C61.32,4.52 61.44,5 61.44,5.48 C61.44,7.52 61.2,9.52 60.68,11.52 C60.48,12.52 60.2,13.48 59.84,14.32 C59.48,15.16 59.2,16.04 58.96,16.88 C58.72,17.28 58.48,17.68 58.32,18.08 C58.76,18.32 59.28,18.56 59.8,18.76 C61,19.2 62.16,19.68 63.28,20.28 C64.16,17.76 65,16.2 65.76,15.6 C67.44,14.84 69,15.12 70.32,16.44 C70.88,17.28 70.96,18.16 70.56,19 C70.16,19.84 69.68,20.6 69.12,21.32 L68.52,22.16 C70.28,23.44 71.36,24.48 71.76,25.28 C71.68,25.84 71.36,26.08 70.84,26 C70.28,25.88 69.8,25.8 69.32,25.68 C68.88,25.6 67.84,25.44 66.2,25.24 L64.56,27.52 C63.88,28.16 63.52,28.96 63.52,29.88 C63.32,30.64 62.88,30.8 62.16,30.32 C61.6,29.44 61.44,28.44 61.64,27.4 C61.88,26.36 62.08,25.36 62.32,24.4 Z M51.32,23.4 C49.4,23.16 47.6,23.52 45.92,24.48 C46.72,25.6 47.76,26.28 49.04,26.56 C50.12,25.76 50.88,24.72 51.32,23.4 Z M10.960001,52.4 L10.400001,50.64 C9.16000095,51.04 8.12000095,51.4 7.28000095,51.72 C6.60000095,51.92 5.84000095,52 5.08000095,52 C4.36000095,52.2 3.64000095,52.2 2.92000095,52 C1.64000095,51.48 0.920000954,50.64 0.680000954,49.52 C0.400000954,48.96 0.240000954,48.4 0.240000954,47.76 C0.520000954,47.2 1.08000095,46.88 2.00000095,46.84 C3.68000095,46.52 5.36000095,46.24 7.08000095,46 C7.52000095,46 7.92000095,45.96 8.36000095,45.84 L9.28000095,45.6 C9.12000095,44.72 9.04000095,43.92 9.08000095,43.2 C9.04000095,42.52 9.16000095,41.88 9.44000095,41.32 C10.000001,40.8 10.720001,40.52 11.600001,40.36 L13.280001,40.36 C14.240001,40.28 15.080001,40.52 15.840001,41.04 C16.800001,41.92 17.200001,42.96 17.080001,44.12 L17.160001,45.16 C19.840001,45.44 21.560001,45.68 22.320001,45.88 C23.080001,46.04 23.240001,46.44 22.760001,46.96 C22.240001,47.4 21.600001,47.72 20.880001,47.84 L18.560001,48.76 L17.160001,49.24 L17.280001,51.84 L19.640001,51.8 C21.400001,51.56 23.120001,51.64 24.800001,52 C25.600001,52.32 25.720001,52.68 25.120001,53.12 C24.240001,53.4 23.400001,53.68 22.560001,54 C21.400001,54.48 20.200001,54.88 19.000001,55.2 L17.280001,56.12 L17.280001,58.48 C17.360001,59.48 17.520001,60.48 17.840001,61.44 C17.720001,61.88 17.520001,62.36 17.200001,62.84 C16.400001,63.24 15.720001,63.08 15.200001,62.32 C14.480001,61.68 14.000001,60.96 13.720001,60.16 C13.480001,59.64 13.280001,59.16 13.120001,58.64 L12.600001,57.24 C10.440001,57.84 8.32000095,58.48 6.24000095,59.2 C5.20000095,59.68 4.08000095,59.96 2.92000095,59.96 C2.00000095,59.64 1.40000095,59.12 1.16000095,58.4 C0.680000954,57.48 0.480000954,56.56 0.480000954,55.52 C0.560000954,54.8 1.16000095,54.4 2.24000095,54.32 C5.16000095,53.68 8.08000095,53.04 10.960001,52.4 Z M15.280001,73.32 C13.120001,73.28 11.040001,72.92 9.08000095,72.24 C7.12000095,71.6 5.32000095,70.72 3.76000095,69.64 C2.20000095,68.36 1.44000095,66.84 1.40000095,65.12 C1.64000095,63.28 2.92000095,62.6 5.20000095,63.12 C5.96000095,63.56 6.60000095,64.16 7.08000095,64.84 C7.72000095,65.52 8.40000095,66.24 9.08000095,66.88 C10.960001,67.88 13.000001,68.4 15.280001,68.48 C17.320001,68.88 18.600001,69.8 19.080001,71.24 C19.240001,71.56 19.200001,71.84 19.000001,72.16 C18.840001,72.44 18.600001,72.68 18.280001,72.92 C17.360001,73.32 16.360001,73.44 15.280001,73.32 Z M51.64,49.76 C52.76,49.12 54.16,48.56 55.84,48.08 L56.96,45.44 C57.24,44.92 57.64,44.6 58.24,44.52 C58.76,44.4 59.16,44.6 59.4,45.12 C59.44,45.76 59.4,46.56 59.36,47.56 C60.04,47.76 60.64,47.92 61.16,48.04 C62.48,48.36 63.76,48.76 65.04,49.24 C66.16,50.08 67.08,50.76 67.8,51.28 C68.52,51.84 69.04,52.28 69.36,52.6 C70.08,54.12 70.48,55.24 70.56,55.92 C70.6,56.68 70.6,57.4 70.52,58.04 C70.48,58.72 70.44,59.32 70.36,59.92 C70.16,60.52 69.96,61.16 69.72,61.84 C69.2,63.16 68.52,64.4 67.64,65.6 C66.8,66.56 66.08,67.36 65.48,68 C64.88,68.64 64.44,69.12 64.08,69.48 C63.52,69.6 63.08,69.44 62.8,68.96 C62.6,67.56 62.64,66.16 62.96,64.76 C63.44,60.32 63.28,57.56 62.56,56.44 C61.8,55.36 60.96,54.28 60,53.24 C59.56,52.8 59.08,52.68 58.52,52.8 L56.32,58.28 L54.36,62.72 C55.6,65.44 56.24,67 56.32,67.32 C56.2,67.8 55.92,68.2 55.56,68.52 C54.8,69.08 54.04,69.04 53.36,68.44 L51.72,65.76 C50.72,66.28 49.8,66.88 48.92,67.6 C48.12,68.36 47.2,68.92 46.16,69.32 C45.16,69.24 44.28,68.88 43.52,68.2 C42.44,67.64 41.52,66.96 40.64,66.2 C39.2,64.04 39.04,61.8 40.16,59.36 C41,57.16 42.36,55.28 44.16,53.72 C44.6,53.44 45.04,53.16 45.48,52.92 C45.36,52.28 45.2,51.64 45.08,51 C44.76,49.68 44.56,48.4 44.44,47.08 C44.32,45.88 44.36,44.64 44.56,43.48 C44.64,42.48 45.08,41.72 45.84,41.2 C46.76,40.6 47.72,40.48 48.76,40.84 C49.72,41.32 50.52,41.96 51.08,42.84 C51.16,44.04 51.24,45.24 51.28,46.4 C51.36,47.52 51.48,48.64 51.64,49.76 Z M44.8,65.08 C46.12,64.08 47.44,63.08 48.76,62.04 L49.08,61.72 C48.68,60.92 48.4,60.32 48.16,59.92 C47.88,59.12 47.56,58.36 47.2,57.56 C46.24,58.52 45.4,59.6 44.8,60.84 C44.2,62.24 44.2,63.64 44.8,65.08 Z M53.12,57.16 C53.72,55.96 54.32,54.64 54.84,53.28 C53.64,53.8 52.84,54.16 52.32,54.44 C52.48,55.04 52.76,55.96 53.12,57.16 Z"></path>
            </g>
        </g>
    </g>
</svg>