<?xml version="1.0" encoding="UTF-8"?>
<svg width="196px" height="35px" viewBox="0 0 196 35" version="1.1" xmlns="http://www.w3.org/2000/svg" xmlns:xlink="http://www.w3.org/1999/xlink">
    <!-- Generator: Sketch 52.6 (67491) - http://www.bohemiancoding.com/sketch -->
    <title>きまった？</title>
    <desc>Created with Sketch.</desc>
    <g id="Page-1" stroke="none" stroke-width="1" fill="none" fill-rule="evenodd">
        <g id="Desktop" transform="translate(-198.000000, -2711.000000)" fill="#725269">
            <g id="result" transform="translate(0.000000, 2595.000000)">
                <path d="M208.960002,129.4 L208.400002,127.64 C207.160002,128.04 206.120002,128.4 205.280002,128.72 C204.600002,128.92 203.840002,129 203.080002,129 C202.360002,129.2 201.640002,129.2 200.920002,129 C199.640002,128.48 198.920002,127.64 198.680002,126.52 C198.400002,125.96 198.240002,125.4 198.240002,124.76 C198.520002,124.2 199.080002,123.88 200.000002,123.84 C201.680002,123.52 203.360002,123.24 205.080002,123 C205.520002,123 205.920002,122.96 206.360002,122.84 L207.280002,122.6 C207.120002,121.72 207.040002,120.92 207.080002,120.2 C207.040002,119.52 207.160002,118.88 207.440002,118.32 C208.000002,117.8 208.720002,117.52 209.600002,117.36 L211.280002,117.36 C212.240002,117.28 213.080002,117.52 213.840002,118.04 C214.800002,118.92 215.200002,119.96 215.080002,121.12 L215.160002,122.16 C217.840002,122.44 219.560002,122.68 220.320002,122.88 C221.080002,123.04 221.240002,123.44 220.760002,123.96 C220.240002,124.4 219.600002,124.72 218.880002,124.84 L216.560002,125.76 L215.160002,126.24 L215.280002,128.84 L217.640002,128.8 C219.400002,128.56 221.120002,128.64 222.800002,129 C223.600002,129.32 223.720002,129.68 223.120002,130.12 C222.240002,130.4 221.400002,130.68 220.560002,131 C219.400002,131.48 218.200002,131.88 217.000002,132.2 L215.280002,133.12 L215.280002,135.48 C215.360002,136.48 215.520002,137.48 215.840002,138.44 C215.720002,138.88 215.520002,139.36 215.200002,139.84 C214.400002,140.24 213.720002,140.08 213.200002,139.32 C212.480002,138.68 212.000002,137.96 211.720002,137.16 C211.480002,136.64 211.280002,136.16 211.120002,135.64 L210.600002,134.24 C208.440002,134.84 206.320002,135.48 204.240002,136.2 C203.200002,136.68 202.080002,136.96 200.920002,136.96 C200.000002,136.64 199.400002,136.12 199.160002,135.4 C198.680002,134.48 198.480002,133.56 198.480002,132.52 C198.560002,131.8 199.160002,131.4 200.240002,131.32 C203.160002,130.68 206.080002,130.04 208.960002,129.4 Z M213.280002,150.32 C211.120002,150.28 209.040002,149.92 207.080002,149.24 C205.120002,148.6 203.320002,147.72 201.760002,146.64 C200.200002,145.36 199.440002,143.84 199.400002,142.12 C199.640002,140.28 200.920002,139.6 203.200002,140.12 C203.960002,140.56 204.600002,141.16 205.080002,141.84 C205.720002,142.52 206.400002,143.24 207.080002,143.88 C208.960002,144.88 211.000002,145.4 213.280002,145.48 C215.320002,145.88 216.600002,146.8 217.080002,148.24 C217.240002,148.56 217.200002,148.84 217.000002,149.16 C216.840002,149.44 216.600002,149.68 216.280002,149.92 C215.360002,150.32 214.360002,150.44 213.280002,150.32 Z M253.160001,135.92 C250.640001,136.24 248.120001,136.68 245.640001,137.24 C245.120001,137.6 244.560001,137.72 243.920001,137.64 C243.520001,137.4 243.160001,137.08 242.840001,136.76 C242.320001,135.84 241.920001,134.92 241.600001,133.92 C241.280001,132.88 241.680001,132.16 242.800001,131.8 C243.920001,131.44 245.000001,131.24 246.080001,131.2 C247.440001,131.08 248.840001,131.04 250.280001,131.04 C250.960001,131.16 251.760001,131.2 252.640001,131.08 L252.080001,128.48 C251.440001,128.56 250.760001,128.64 250.080001,128.72 C249.440001,128.84 248.240001,129.04 246.520001,129.36 C245.240001,129.68 244.400001,129.64 244.040001,129.28 C243.120001,128.8 242.440001,128.12 242.000001,127.32 C241.600001,126.48 241.280001,125.64 241.120001,124.76 C241.440001,123.92 242.040001,123.32 243.040001,122.92 C244.080001,122.52 245.240001,122.28 246.480001,122.24 C247.720001,122.12 249.040001,122 250.360001,121.96 C249.880001,121.36 249.480001,120.72 249.160001,120.04 C249.120001,118.04 249.920001,116.84 251.560001,116.36 C252.760001,116.4 253.880001,116.6 254.920001,117.04 C256.840001,117.72 258.000001,119.4 258.440001,122.12 C260.040001,122.32 261.480001,122.48 262.720001,122.48 C263.680001,122.52 264.560001,122.72 265.400001,123.16 C266.400001,123.72 266.440001,124.36 265.520001,125 C264.720001,125.28 263.880001,125.48 263.000001,125.64 C261.920001,126.04 260.640001,126.56 259.200001,127.24 L259.280001,129.04 L259.480001,131.12 L260.800001,131.2 C261.920001,131.16 263.360001,131.24 265.120001,131.44 C266.920001,131.68 267.480001,132.16 266.800001,132.96 C266.440001,133.24 266.040001,133.52 265.600001,133.8 C265.080001,133.88 264.560001,134 264.000001,134.08 C262.920001,134.44 261.760001,134.72 260.560001,134.84 L259.360001,135.16 C259.320001,136 259.280001,136.68 259.280001,137.24 C259.240001,137.84 259.200001,138.4 259.160001,139 C259.160001,139.32 259.120001,139.72 259.000001,140.16 C260.600001,140.92 261.960001,141.48 263.120001,141.88 C264.960001,142.56 265.760001,143.28 265.400001,144 C264.560001,144.64 263.360001,144.72 261.840001,144.28 C260.360001,143.84 259.240001,143.52 258.480001,143.36 C258.360001,144.72 257.840001,145.96 256.920001,147.12 C256.520001,147.64 256.080001,148.12 255.520001,148.6 C254.840001,148.84 254.160001,149.08 253.520001,149.4 C252.760001,149.8 251.920001,150 251.000001,150 C250.040001,150.12 249.080001,150.16 248.160001,150.16 C246.520001,149.88 245.280001,149.08 244.520001,147.84 C243.480001,146.76 242.720001,145.6 242.200001,144.36 C242.000001,143 242.480001,141.8 243.640001,140.8 C246.480001,139 249.760001,138.36 253.400001,138.88 C253.400001,137.92 253.320001,136.92 253.160001,135.92 Z M248.240001,145.92 C249.120001,146.92 250.080001,147.24 251.120001,146.96 L253.200001,143.8 C250.640001,144.52 249.000001,145.24 248.240001,145.92 Z M288.6,139.08 C287.36,139.44 286.6,138.88 286.32,137.44 C286,136.04 286,135.04 286.24,134.52 C286.48,134.04 286.76,133.56 287.12,133.16 C287.36,132.84 287.64,132.6 287.96,132.36 C288.4,132.12 288.84,131.96 289.36,131.96 C289.88,131.8 290.48,131.64 291.08,131.52 C292.2,131.32 293.4,131.24 294.6,131.28 C295.8,131.32 297.04,131.4 298.32,131.6 C299.44,131.84 301.08,132.52 303.2,133.72 C305.36,134.88 306.72,135.92 307.32,136.88 C307.88,138 307.88,139.12 307.36,140.24 C306.92,141.2 306.4,142.12 305.76,142.96 C305.08,143.96 304.28,144.8 303.32,145.48 C302.52,146.24 301.64,146.96 300.72,147.6 C300.32,147.88 299.88,148.12 299.4,148.28 C298.92,148.44 298.4,148.56 297.84,148.64 C297.32,148.72 296.88,148.52 296.6,148.04 C296.68,147.64 296.88,147.28 297.28,147 L299.84,144.6 C300.48,143.88 301,143.12 301.4,142.28 C302,141.56 302.4,140.76 302.68,139.84 C302.44,138.96 302.08,138.12 301.48,137.36 C301.04,136.76 300.4,136.56 299.56,136.76 L293.92,137.44 C292.16,138.08 290.4,138.64 288.6,139.08 Z M337.72,131.72 L336.6,133.68 C335.96,134.56 335.48,135.56 335.12,136.6 C334.2,138.48 333.24,140.32 332.28,142.12 C331.76,143.08 331.28,144.16 330.84,145.36 C330.4,146.52 330.04,147.24 329.72,147.52 C328.96,147.52 328.48,147.16 328.32,146.48 C328.2,145.8 328.12,145.16 328.16,144.56 C328.16,143.92 328.2,143.28 328.28,142.64 C329.28,137.2 329.96,134.04 330.24,133.12 C330.4,132.56 330.56,131.96 330.68,131.4 C330.08,131.28 329.52,131.16 328.96,130.96 C328.44,130.88 327.96,130.76 327.52,130.52 C327.04,130.16 326.56,129.76 326.12,129.36 C325.56,128.2 325.36,127.4 325.56,127 C326.16,126.32 326.92,125.88 327.84,125.6 C328.8,125.32 329.76,125.08 330.84,124.96 C331.4,124.92 332,124.88 332.6,124.8 C332.84,124.36 333.04,123.92 333.12,123.48 C333.6,121.48 334.48,119.68 335.72,118 C336.32,117.32 337.52,117.16 339.28,117.48 C341.04,117.84 342.12,118.44 342.56,119.32 C343.04,120.2 343.08,120.88 342.8,121.36 C342.44,122.2 342,123 341.6,123.8 C341.36,124.24 341.16,124.72 341,125.24 L342.56,125.48 C343.52,125.44 344.4,125.56 345.24,125.84 C345.76,126.44 346.08,127.12 346.2,127.88 C346.48,128.48 346.32,128.92 345.72,129.16 L337.72,131.72 Z M352.72,147.36 C352.12,147.84 351.44,148.2 350.72,148.44 C349.88,148.8 349.04,149.12 348.16,149.44 C347.24,149.64 346.32,149.8 345.4,149.92 C344.52,150.08 343.64,150.08 342.76,149.92 C341.96,149.76 341.28,149.44 340.68,148.92 C339.52,147.2 338.88,145.64 338.72,144.32 C338.6,143 338.96,142.04 339.84,141.44 C340.04,141.12 340.28,140.96 340.68,140.92 C341,140.92 341.44,140.96 341.96,141.08 C342.52,141.2 343.12,141.4 343.88,141.76 C344.48,142.16 345.12,142.8 345.84,143.72 C346.52,144.6 347.68,145.2 349.24,145.52 C350.04,145.72 350.84,145.92 351.6,146.12 C352.24,146.32 352.64,146.72 352.72,147.36 Z M346.56,131.08 C347.8,131.2 349.04,131.4 350.2,131.72 C351.4,132.24 352.52,132.96 353.56,133.84 C354.6,134.72 355.48,135.72 356.24,136.92 C356.24,137.48 356.16,138 355.92,138.52 C355.8,138.88 355.48,139.08 355.04,139.08 C354.48,139.28 353.96,139.24 353.44,138.96 C352.88,138.8 352.36,138.56 351.8,138.28 C350.64,137.52 349.48,136.72 348.36,135.92 C347.04,135.32 345.88,134.52 344.96,133.48 C344.56,132.2 345.12,131.44 346.56,131.08 Z M382.439999,140.04 C382.639999,138.84 382.999999,137.72 383.599999,136.68 C384.119999,135.56 384.759999,134.48 385.519999,133.52 C386.159999,132.56 386.639999,131.56 387.039999,130.48 C387.599999,129.44 387.679999,128.4 387.239999,127.36 C386.999999,127 386.639999,126.64 386.239999,126.36 C385.919999,125.96 385.519999,125.6 385.039999,125.4 C383.879999,125.08 382.919999,125.4 382.119999,126.32 C381.279999,127.04 380.679999,127.88 380.279999,128.88 C379.959999,129.4 379.679999,129.88 379.319999,130.32 C379.119999,130.88 378.839999,131.4 378.479999,131.92 C378.079999,132.28 377.639999,132.56 377.119999,132.72 C376.639999,133 376.199999,133.16 375.679999,133.28 C374.239999,133.24 373.319999,132.56 372.999999,131.2 C372.999999,129.96 373.159999,128.76 373.479999,127.56 C373.679999,126.24 374.119999,125 374.759999,123.84 C375.999999,121.88 377.759999,120.6 380.079999,120.08 C381.239999,119.68 382.439999,119.48 383.639999,119.52 C384.959999,119.72 386.119999,120.2 387.159999,121 C388.319999,121.76 389.559999,122.36 390.919999,122.76 C392.159999,123.2 392.919999,123.88 393.239999,124.76 C393.559999,125.68 393.839999,126.4 393.959999,127 C393.519999,129.76 392.919999,131.72 392.119999,132.96 C391.359999,134.04 390.439999,135.04 389.399999,135.88 C388.919999,136.4 388.359999,136.84 387.759999,137.2 C387.159999,137.52 386.639999,137.88 386.159999,138.4 C385.879999,138.84 385.599999,139.36 385.399999,139.92 C385.159999,140.52 384.799999,141.04 384.319999,141.52 C383.759999,142.12 383.319999,142.16 382.999999,141.64 C382.639999,141.16 382.479999,140.6 382.439999,140.04 Z M384.639999,149.96 C383.799999,149.84 382.919999,149.8 382.039999,149.8 C381.119999,149.8 380.519999,149.4 380.199999,148.6 C379.839999,147.92 379.679999,147.2 379.799999,146.44 C380.639999,145.92 381.519999,145.44 382.399999,144.96 C383.279999,144.84 384.159999,144.96 385.039999,145.32 C385.919999,145.48 386.559999,145.96 386.959999,146.76 C386.999999,147.36 386.759999,147.92 386.239999,148.36 C385.839999,149 385.319999,149.52 384.639999,149.96 Z" id="きまった？"></path>
            </g>
        </g>
    </g>
</svg>