<?xml version="1.0" encoding="UTF-8"?>
<svg width="161px" height="35px" viewBox="0 0 161 35" version="1.1" xmlns="http://www.w3.org/2000/svg" xmlns:xlink="http://www.w3.org/1999/xlink">
    <!-- Generator: Sketch 52.6 (67491) - http://www.bohemiancoding.com/sketch -->
    <title>グループ</title>
    <desc>Created with Sketch.</desc>
    <g id="Page-1" stroke="none" stroke-width="1" fill="none" fill-rule="evenodd">
        <g id="Desktop" transform="translate(-433.000000, -785.000000)" fill="#725269">
            <g id="group" transform="translate(0.000000, 672.000000)">
                <path d="M446.840002,121.44 L448.720002,121.96 C449.440002,122.2 452.000002,123.28 456.400002,125.12 C456.840002,125.44 457.280002,125.76 457.720002,126.04 C458.160002,126.36 458.480002,126.8 458.760002,127.32 C459.000002,127.84 459.160002,128.36 459.160002,128.92 C459.200002,129.48 459.080002,130 458.880002,130.44 C458.680002,130.92 458.480002,131.4 458.320002,131.88 C457.760002,132.96 457.040002,134 456.160002,134.92 C454.480002,136.96 452.640002,138.84 450.600002,140.64 C448.760002,142.36 446.840002,144 444.920002,145.56 C444.080002,146.44 443.000002,147 441.760002,147.2 C440.680002,146.76 440.560002,146.04 441.440002,145.04 C441.680002,144.64 441.880002,144.16 442.080002,143.72 C442.400002,143.12 442.720002,142.52 443.000002,141.92 C443.760002,140.72 444.520002,139.52 445.320002,138.28 C445.960002,137.2 446.680002,136.16 447.520002,135.16 C448.280002,134 449.080002,132.84 449.920002,131.68 C450.600002,130.76 451.360002,129.84 452.240002,129.04 C449.880002,128.12 447.520002,127.24 445.240002,126.28 C444.680002,125.96 444.080002,125.76 443.480002,125.6 L442.240002,126.44 C441.440002,127.32 440.600002,128.12 439.680002,128.88 C438.960002,129.72 438.200002,130.48 437.400002,131.16 C436.360002,131.92 435.200002,132.36 433.920002,132.56 C433.480002,132.28 433.280002,131.88 433.360002,131.32 C433.440002,130.8 433.520002,130.28 433.640002,129.76 C433.920002,128.6 434.440002,127.52 435.120002,126.52 C435.480002,126.04 435.840002,125.6 436.200002,125.16 C436.560002,124.6 436.920002,124.08 437.320002,123.56 C438.080002,122.48 438.800002,121.36 439.520002,120.28 C440.360002,119.16 441.200002,118 442.000002,116.8 C442.480002,115.68 443.320002,114.88 444.440002,114.36 C445.760002,114.08 447.080002,113.96 448.360002,113.96 C449.760002,114.04 450.600002,114.68 450.920002,115.84 C450.840002,116.96 450.360002,117.96 449.520002,118.84 C448.560002,119.64 447.680002,120.52 446.840002,121.44 Z M459.520002,122.64 C459.160002,124 458.240002,124.36 456.680002,123.76 C456.400002,123.68 456.160002,123.56 455.960002,123.4 C454.840002,122.4 454.200002,121.48 454.120002,120.72 C454.120002,120.16 454.400002,119.72 454.880002,119.32 C455.600002,119.16 456.560002,119.32 457.680002,119.8 C458.800002,120.28 459.400002,121.24 459.520002,122.64 Z M463.800002,120.28 C463.520002,121.64 462.760002,122.08 461.400002,121.56 C460.040002,121 459.240002,120.32 459.000002,119.44 C458.760002,118.6 458.840002,117.96 459.200002,117.56 C459.640002,117.04 460.840002,117.32 462.800002,118.4 C463.240002,118.96 463.600002,119.56 463.800002,120.28 Z M496.080001,137.2 C497.600001,136.56 499.120001,136.08 500.680001,135.72 C501.360001,135.48 502.040001,135.28 502.760001,135.08 C503.520001,134.88 504.160001,134.92 504.800001,135.16 C505.400001,135.44 505.440001,136.08 504.880001,137.2 C504.560001,137.68 503.040001,138.84 500.240001,140.72 C499.120001,141.6 497.920001,142.32 496.640001,142.84 C495.960001,143 495.280001,142.92 494.640001,142.56 C493.880001,142.36 493.080001,142.04 492.360001,141.68 C491.320001,141.08 490.800001,140.16 490.800001,138.96 C490.920001,138.44 491.080001,137.88 491.280001,137.36 L491.280001,134.8 C491.280001,131.28 491.440001,127.76 491.760001,124.24 C491.960001,122.68 492.240001,121.16 492.680001,119.64 C492.880001,118.2 493.440001,116.96 494.400001,115.88 C495.600001,115.04 496.840001,114.96 498.040001,115.6 C499.280001,116.28 500.160001,117.24 500.680001,118.48 C501.000001,119.84 500.920001,121.24 500.480001,122.56 C500.040001,124.12 499.680001,125.68 499.360001,127.24 C499.000001,128.88 498.480001,130.48 497.880001,132.04 C497.480001,132.88 497.120001,133.76 496.840001,134.68 L496.080001,137.2 Z M475.680001,145.36 C475.520001,142.8 475.480001,140.84 475.600001,139.52 C475.680001,138.16 475.840001,136.76 475.960001,135.28 C476.320001,133.84 476.560001,132.4 476.760001,130.96 C477.080001,128.12 477.720001,125.32 478.760001,122.64 C479.200001,121.28 479.840001,119.96 480.680001,118.72 C481.560001,117.92 482.560001,117.68 483.760001,117.96 C486.280001,119.16 487.320001,121.12 486.840001,123.88 C486.480001,125.36 486.120001,126.84 485.760001,128.28 C485.560001,129.72 485.280001,131.16 484.880001,132.52 C483.960001,135.12 482.840001,137.6 481.520001,140 C480.840001,141.32 480.160001,142.6 479.480001,143.96 C479.160001,145.12 478.440001,145.96 477.400001,146.48 C476.640001,146.6 476.080001,146.2 475.680001,145.36 Z M536.8,127.56 C538.24,127.72 539.68,127.8 541.2,127.8 C542.68,127.8 544.2,127.92 545.72,128.12 C546.36,128.16 546.76,128.4 546.96,128.92 C547.16,129.44 547,129.88 546.52,130.32 C546.08,130.76 545.36,131.28 544.32,131.84 C543.24,132.4 542.44,132.84 541.92,133.08 C541.32,133.32 540.72,133.48 540.12,133.56 C538.72,133.88 537.32,134.04 535.92,134.04 C534.48,134.04 533.08,134.12 531.72,134.32 C530.32,134.36 528.92,134.4 527.48,134.48 C526,134.64 524.52,134.64 523.08,134.48 C522.44,134.48 521.56,134.16 520.36,133.56 C519.16,132.96 518.76,132.08 519.12,130.88 C519.48,129.68 519.84,128.96 520.28,128.64 C520.8,128.28 521.36,128.08 521.96,128.04 L523.76,127.92 C524.44,127.92 525.24,127.88 526.2,127.84 C527.12,127.76 527.96,127.76 528.68,127.76 C529.44,127.8 532.12,127.72 536.8,127.56 Z M581.439999,128.68 C580.079999,128.92 578.559999,129.08 576.839999,129.16 C575.119999,129.28 573.919999,129.32 573.159999,129.28 C571.759999,129.4 570.399999,129.48 569.039999,129.48 C567.679999,129.52 566.439999,129.28 565.319999,128.8 C564.199999,128.32 563.119999,127.72 562.159999,127.04 C561.399999,126.08 561.079999,125.04 561.239999,123.84 C561.479999,122.56 562.239999,121.88 563.519999,121.76 C564.999999,121.64 566.519999,121.56 567.999999,121.52 C569.479999,121.48 575.119999,121.88 584.959999,122.68 C585.599999,122.76 586.279999,122.88 586.919999,123.04 C587.439999,123.08 587.919999,123.24 588.399999,123.48 C588.759999,123.76 589.039999,124.12 589.279999,124.48 C589.239999,125.24 588.799999,126.64 587.959999,128.68 C587.679999,129.2 587.399999,129.72 586.999999,130.16 C586.279999,131.36 585.519999,132.6 584.799999,133.88 C583.159999,136.4 581.519999,139 579.879999,141.56 C579.119999,142.72 578.279999,143.88 577.319999,144.96 C576.999999,145.36 576.559999,145.72 576.039999,146.08 C575.559999,146.44 575.119999,146.32 574.719999,145.72 C574.559999,145.12 574.599999,144.52 574.799999,143.96 C574.959999,143.12 575.159999,142.4 575.479999,141.68 C576.159999,140.2 576.799999,138.68 577.399999,137.16 C577.959999,135.72 578.519999,134.28 579.159999,132.8 C579.919999,131.44 580.679999,130.04 581.439999,128.68 Z M584.519999,117.36 C584.479999,116.2 584.719999,115.16 585.279999,114.16 C586.119999,113.32 587.159999,112.92 588.399999,113 C589.479999,113.24 590.479999,113.72 591.439999,114.4 C592.399999,115.08 592.959999,116.08 593.039999,117.36 C593.079999,118.44 592.639999,119.24 591.759999,119.76 C590.559999,120.48 589.319999,120.96 588.039999,121.24 C586.879999,121.12 585.999999,120.56 585.359999,119.6 C585.079999,119.36 584.799999,119.04 584.639999,118.72 C584.519999,118.28 584.479999,117.8 584.519999,117.36 Z M588.519999,117.08 C587.919999,117.48 587.639999,118.08 587.679999,118.84 C588.159999,119.32 588.759999,119.36 589.439999,118.92 C589.319999,118.16 589.039999,117.56 588.519999,117.08 Z" id="グループ"></path>
            </g>
        </g>
    </g>
</svg>