<?xml version="1.0" encoding="UTF-8"?>
<svg width="119px" height="37px" viewBox="0 0 119 37" version="1.1" xmlns="http://www.w3.org/2000/svg" xmlns:xlink="http://www.w3.org/1999/xlink">
    <!-- Generator: Sketch 52.6 (67491) - http://www.bohemiancoding.com/sketch -->
    <title>参加者</title>
    <desc>Created with Sketch.</desc>
    <g id="Page-1" stroke="none" stroke-width="1" fill="none" fill-rule="evenodd">
        <g id="Desktop" transform="translate(-452.000000, -1629.000000)" fill="#725269">
            <g id="player" transform="translate(0.000000, 1527.000000)">
                <path d="M469.920001,102.92 C470.680001,103.44 471.000001,104.12 470.800001,104.92 C470.800001,105.2 470.760001,105.44 470.720001,105.68 C470.640001,105.88 470.480001,106.12 470.320001,106.32 C469.840001,106.84 469.240001,107.2 468.560001,107.4 C467.600001,108.04 466.560001,108.56 465.440001,109 C464.520001,109.32 463.680001,109.76 462.840001,110.32 L462.120001,110.76 C463.360001,110.64 464.400001,110.6 465.200001,110.64 C466.400001,110.56 467.600001,110.52 468.840001,110.56 C470.000001,110.68 471.200001,110.72 472.360001,110.64 C472.360001,110.28 472.280001,109.92 472.160001,109.56 C472.040001,109.16 471.960001,108.76 471.960001,108.32 C471.920001,107.88 472.240001,107.4 472.920001,106.92 C473.760001,106.6 474.560001,106.72 475.360001,107.24 C476.120001,107.76 478.000001,109.56 480.920001,112.64 C481.720001,113.44 481.920001,114.2 481.560001,114.96 C481.240001,115.72 480.800001,116.2 480.280001,116.36 C478.640001,116.52 477.160001,115.8 475.760001,114.2 L473.040001,114.04 C471.880001,113.88 470.720001,113.84 469.480001,113.92 C470.360001,114.56 470.560001,115.4 470.120001,116.44 L475.080001,116.6 C476.200001,116.72 477.320001,116.72 478.440001,116.68 C480.520001,116.64 481.840001,117.52 482.400001,119.32 C482.360001,120.16 481.920001,120.68 481.080001,120.88 C480.600001,120.96 480.120001,121.08 479.640001,121.24 C479.920001,121.68 480.160001,122.12 480.480001,122.48 C481.600001,123.76 482.800001,125 484.080001,126.2 C484.800001,126.88 485.040001,127.6 484.880001,128.44 C484.360001,129.36 483.560001,129.72 482.520001,129.56 C478.800001,128.32 475.800001,125.56 473.480001,121.32 L467.640001,121.16 C466.520001,122.36 465.520001,123.36 464.720001,124.16 C464.160001,124.48 463.680001,124.84 463.320001,125.32 C464.720001,124.8 466.120001,124.16 467.560001,123.48 C469.000001,122.76 470.520001,122.64 472.080001,123.12 C472.680001,123.44 473.280001,123.76 473.840001,124.08 C474.240001,124.44 474.320001,124.92 474.160001,125.48 C473.000001,126.2 471.800001,126.88 470.520001,127.48 C471.360001,127.48 471.960001,127.84 472.240001,128.52 C472.320001,129.52 471.800001,130.04 470.720001,130.12 C469.800001,130.28 468.880001,130.48 468.000001,130.8 C466.840001,131 465.720001,131.28 464.640001,131.6 C463.720001,132.16 462.800001,132.2 461.880001,131.8 C461.720001,130.96 462.160001,130.36 463.200001,129.96 C464.120001,129.48 465.040001,129.08 466.040001,128.8 C467.120001,128.64 468.080001,128.28 468.920001,127.76 C466.080001,128.2 464.320001,128.12 463.640001,127.48 C462.960001,126.88 462.480001,126.4 462.240001,126.04 C461.800001,126.28 461.360001,126.52 460.880001,126.72 C455.960001,130.2 453.280001,131.32 452.880001,130.04 C452.800001,128.04 454.480001,125.08 457.920001,121.16 C456.440001,121.08 455.440001,120.96 454.920001,120.84 C454.440001,120.68 453.880001,120.52 453.360001,120.32 C452.800001,120.12 452.600001,119.72 452.760001,119.16 C454.520001,117.92 457.160001,117.24 460.640001,117.08 L462.760001,114.24 C461.760001,114.12 460.720001,114.16 459.680001,114.36 C458.320001,114.36 457.040001,114.12 455.760001,113.72 C454.480001,113.44 454.040001,112.8 454.520001,111.72 C455.320001,110.72 456.160001,109.72 457.120001,108.84 C458.800001,106.96 460.680001,105.32 462.760001,103.92 C463.480001,103.08 464.400001,102.56 465.520001,102.36 C467.400001,102.24 468.880001,102.44 469.920001,102.92 Z M461.840001,135.16 C466.000001,133.6 469.240001,132.4 471.520001,131.52 C474.160001,130.68 475.800001,130.36 476.440001,130.56 C477.320001,130.64 478.200001,130.84 479.080001,131.2 C479.960001,131.56 480.480001,131.96 480.640001,132.32 C480.800001,132.72 480.880001,133.2 480.840001,133.8 C480.600001,134.08 480.360001,134.32 480.040001,134.52 C479.280001,135.04 478.440001,135.32 477.520001,135.4 C475.240001,135.8 472.960001,136.28 470.720001,136.88 C468.760001,137.64 466.680001,138.16 464.520001,138.4 C458.600001,138.6 457.720001,137.52 461.840001,135.16 Z M509.96,114.12 C511.2,114.28 512.32,114.72 513.32,115.48 C514.12,116.92 514.28,118.44 513.76,120.08 C512.6,126.68 511.56,131.32 510.6,134.04 C509.36,134.92 508.48,134.64 507.92,133.08 C507.4,131.76 507.32,130.36 507.72,128.96 C507.84,127.32 508,125.72 508.2,124.12 C508.28,123.36 508.36,122.6 508.4,121.84 L508.4,120.84 L505.56,120.44 L502,126.68 C501.32,128.04 500.64,129.44 499.88,130.84 C499.6,131.48 499.28,132.16 498.96,132.8 C498.72,133.64 498.36,134.44 497.84,135.16 C497.24,135.4 496.8,135.28 496.52,134.68 C496.32,134 496.4,133.28 496.72,132.6 C497.08,130.88 497.44,129.16 497.84,127.44 C498.6,125 499.28,122.56 499.88,120.08 C497.92,119.88 496,119.6 494.08,119.2 C493.28,119.08 492.68,118.6 492.24,117.88 C492.16,117.12 492.36,116.4 492.92,115.84 C494.4,114.76 496.08,114.16 497.92,114.12 C498.88,114.04 500.12,113.96 501.6,113.92 L502.48,112.24 C503.36,110.44 504.24,108.64 505.16,106.88 C506.32,105.36 507.88,104.8 509.8,105.16 C510.64,105.12 511.28,105.48 511.64,106.28 C512.2,106.96 512.44,107.72 512.36,108.56 C512.16,109.56 511.8,110.52 511.24,111.36 C510.72,112.24 510.32,113.16 509.96,114.12 Z M518.96,133.28 C518.52,134 517.84,134.28 516.92,134.12 C515.92,134.32 515.28,133.92 515,132.88 C514.2,130.76 513.68,128.56 513.4,126.28 C513.2,122.16 513.88,120.28 515.44,120.56 C516.6,120.64 517.76,120.56 518.88,120.24 C520.16,119.8 521.4,119.6 522.72,119.68 C523.88,119.72 525,119.88 526.16,120.16 C527.16,120.2 527.84,120.64 528.24,121.48 C528.24,122.36 528.04,123.2 527.64,124.04 C527.4,125.24 527.28,126.4 527.28,127.6 C527.28,128.76 527.16,129.88 526.92,131 C527.12,132.04 526.8,132.72 526,132.96 C525.52,132.88 525.08,132.88 524.6,132.88 C524.04,132.92 523.44,132.96 522.8,132.96 C521.52,133.12 520.24,133.24 518.96,133.28 Z M520.04,130.56 L522.8,130.36 L524.88,130.24 L524.88,129.4 C524.96,127.44 525.04,125.48 525.16,123.56 L520.36,123.56 C520.56,125.88 520.44,128.24 520.04,130.56 Z M563.12,131.44 L556.32,131.36 L555.32,133.88 L560.08,133.72 C561.04,133.76 561.96,133.76 562.92,133.72 L563.12,131.44 Z M561.08,126.12 L557.36,126.12 L556.8,128.76 C557.48,128.84 558.56,128.88 560.04,128.88 C561.52,128.84 562.6,128.76 563.28,128.68 L563.92,126.36 L561.08,126.12 Z M564.48,111.2 C565.16,110.64 565.92,110.2 566.72,109.88 C567.52,109.72 568.28,109.72 569.08,109.88 C569.52,110.24 569.92,110.84 570.32,111.68 C570.72,112.52 570.44,113.4 569.48,114.32 C568.4,115.4 567.28,116.44 566.08,117.48 C567.28,117.64 568.2,118.2 568.84,119.16 C569.2,120.36 568.72,121.16 567.4,121.56 C565.8,122.04 564.16,122.16 562.48,122 L559.8,122.12 L557.52,123.52 C560.52,123.4 562.84,123.44 564.48,123.64 C566.08,123.84 566.92,124.96 567,126.96 C566.76,128.64 566.56,130.36 566.48,132.08 C566.52,132.92 566.6,133.8 566.68,134.8 C566.76,135.76 566.28,136.44 565.2,136.8 C563.08,136.96 560.92,137.08 558.76,137.08 C557.68,137.12 556.64,137.2 555.6,137.28 C554.96,137.36 554.28,137.56 553.6,137.8 C552.6,138.16 551.8,138 551.16,137.32 C549.96,135.52 549.4,133.68 549.44,131.88 C549.52,131.04 549.48,130.2 549.36,129.36 C545.28,133 542.64,134.84 541.48,134.88 C540.96,135.08 540.44,135.16 539.92,135.08 C539.64,134.6 539.76,133.64 540.36,132.2 C540.96,130.8 542.24,129.28 544.24,127.64 C546.16,125.76 548.16,123.92 550.28,122.2 L543.84,121.8 C542.76,121.76 541.6,121.68 540.36,121.56 C539.16,121.44 538.52,120.84 538.52,119.68 C539.12,118.8 539.92,118.32 541,118.24 C542.04,118.12 543.12,118.08 544.12,118.04 C545.32,117.88 547.04,117.76 549.24,117.68 C548.84,115.64 548.64,114.16 548.64,113.2 C543.12,113.32 540.36,112.6 540.36,111.08 C540.32,109.6 542.2,108.64 545.92,108.32 L548.04,107.92 C548.12,106.48 548.32,105.28 548.64,104.28 C548.88,103.56 549.4,102.92 550.16,102.4 C550.96,101.88 551.72,101.96 552.48,102.6 C553.92,103.32 554.72,104.96 554.88,107.52 L558.76,107.64 C560.92,107.92 562.44,108.92 563.4,110.72 C563.4,111.32 563.28,111.84 563.08,112.28 C563.6,112 564.04,111.64 564.48,111.2 Z M559.6,113.2 C558.72,113.16 557.84,113.16 556.92,113.2 L553.72,113.36 L552.96,117.32 L556.4,117.32 L561.52,113.28 C560.96,113.36 560.36,113.32 559.6,113.2 Z" id="参加者"></path>
            </g>
        </g>
    </g>
</svg>