<?xml version="1.0" encoding="UTF-8"?>
<svg width="200px" height="200px" viewBox="0 0 200 200" version="1.1" xmlns="http://www.w3.org/2000/svg" xmlns:xlink="http://www.w3.org/1999/xlink">
    <!-- Generator: Sketch 52.6 (67491) - http://www.bohemiancoding.com/sketch -->
    <title>bird_icon</title>
    <desc>Created with Sketch.</desc>
    <g id="Page-1" stroke="none" stroke-width="1" fill="none" fill-rule="evenodd">
        <g id="Desktop" transform="translate(-784.000000, -1527.000000)">
            <g id="player" transform="translate(0.000000, 1527.000000)">
                <g id="bird_icon" transform="translate(784.000000, 0.000000)">
                    <circle id="Oval" fill="#ACD9D4" cx="100" cy="100" r="100"></circle>
                    <g id="bird" transform="translate(34.000000, 52.000000)" stroke-width="1">
                        <g id="Path">
                            <path d="M130.862069,4 C130.542816,3.87755554 130.179942,3.87755554 129.86069,4 C128.973103,4.24 128.108276,5.28 127.22069,4.52 C126.333103,3.76 127.448276,3.16 127.721379,2.52 C127.822421,2.21967534 127.891001,1.91164428 127.926207,1.6 C128.012363,1.11102797 127.780104,0.620776522 127.324541,0.330000397 C126.868977,0.0392242712 126.266622,-0.00323861924 125.764138,0.22 C123.168007,0.947126452 121.048399,2.61335749 119.937931,4.8 C119.54305,5.59084795 119.005053,6.32028776 118.344828,6.96 C115.805032,9.63983852 112.783814,11.9367941 109.40069,13.76 L106.965517,15.28 C107.514933,17.2548491 108.805806,19.0092996 110.629655,20.26 C110.765928,20.2892218 110.896375,20.3364245 111.016552,20.4 C113.292414,21.48 117.457241,17.96 119.505517,17.2 C122.031724,16.28 126.196552,16.12 127.516552,13.84 C127.654938,13.5929968 127.877748,13.3902015 128.153793,13.26 L128.358621,12.72 C129.291724,10.12 130.270345,7.52 131.18069,4.92 C131.285451,4.58499496 131.161439,4.22691736 130.862069,4 Z" fill="#F9A97F"></path>
                            <path d="M129.724138,17.08 C129.571572,16.9982103 129.43354,16.8971263 129.314483,16.78 C126.424138,13.86 118.731724,14 116.068966,17.04 C115.79899,17.3710123 115.345829,17.5471536 114.885517,17.5 C114.641543,18.3256009 114.274211,19.1191679 113.793103,19.86 C113.099567,21.1583159 112.712474,22.5666321 112.655172,24 C112.522324,25.1371424 112.309504,26.2659676 112.017931,27.38 C111.16519,30.5200285 110.504246,33.6979043 110.037931,36.9 C109.820886,39.9617453 108.766965,42.9323604 106.965517,45.56 C106.267465,46.3546898 105.986197,47.3724682 106.191724,48.36 C106.204697,48.4596751 106.204697,48.5603249 106.191724,48.66 C106.191724,48.66 106.191724,48.66 106.191724,48.78 C106.478109,49.4169415 106.525943,50.1175358 106.328276,50.78 C106.524806,51.9187792 106.973247,53.0127049 107.648276,54 C109.309655,52 111.016552,50 112.70069,48 C114.056325,46.5622423 115.288675,45.0380566 116.387586,43.44 C117.159035,41.8075152 118.235983,40.3000203 119.573793,38.98 C119.825306,38.7505709 120.005548,38.4682167 120.097241,38.16 C121.198794,35.4260652 122.490895,32.7543415 123.966207,30.16 C125.150455,26.8855922 126.884023,23.7847879 129.109655,20.96 C129.478018,20.6643582 129.571678,20.186975 129.337241,19.8 C128.426897,18.7 129.041379,17.84 129.724138,17.08 Z" fill="#FBCFC7"></path>
                            <path d="M122.441379,12.8 C122.252787,12.5971199 121.96524,12.4856378 121.667586,12.5 C120.893793,12.5 119.937931,13.26 119.391724,12.5 C118.845517,11.74 119.915172,11.36 120.27931,10.82 C120.430335,10.5597722 120.544962,10.2844365 120.62069,10 C120.825573,9.6074431 120.770054,9.14788623 120.475945,8.80188429 C120.181836,8.45588234 119.69613,8.27871907 119.209655,8.34 C116.907551,8.50972912 114.804526,9.55431463 113.451724,11.2 C112.983334,11.8048256 112.397923,12.3328158 111.722069,12.76 C109.037362,14.5298439 106.027682,15.8827186 102.823448,16.76 L90.3972414,20.76 C89.2618983,21.2305968 88.0814426,21.6120813 86.8696552,21.9 C83.6257515,22.6656924 80.3005164,23.1348491 76.9468966,23.3 C75.0521047,23.2911971 73.1710133,23.5825186 71.3937931,24.16 C69.2858409,24.7535374 67.072396,25.0043057 64.862069,24.9 C62.7629623,24.8066765 60.658974,24.9545932 58.6034483,25.34 C56.0508506,25.8014027 53.448473,26.0160127 50.8427586,25.98 C47.7958919,25.9893065 44.7536712,26.1898165 41.7393103,26.58 C39.7593103,26.82 37.7793103,27.04 35.822069,27.34 C33.5748261,27.8138345 31.3691638,28.4287464 29.222069,29.18 C26.6336569,29.8891562 24.2871112,31.1539206 22.3944828,32.86 C20.7786207,34.3 19.0944828,35.72 17.5013793,37.2 C15.9082759,38.68 15.4758621,40.86 13.5641379,42.14 C13.1353893,42.9476321 12.6330643,43.7234912 12.062069,44.46 C13.0406897,49.38 15.7034483,53.82 17.3875862,58.46 C18.4430377,59.9751293 19.2765285,61.6013284 19.8682759,63.3 C20.3560992,64.9139324 21.2505668,66.4108399 22.4855172,67.68 C24.7613793,70.14 27.0372414,72.66 29.3131034,75.3 C30.8786046,77.147994 32.6471154,78.8562147 34.5931034,80.4 C36.96687,82.3820595 39.7896967,83.9018082 42.8772414,84.86 C46.1089655,85.9 49.4317241,86.86 52.7544828,87.56 L53.0048276,87.56 C58.4947172,87.7234938 63.9908893,87.5765237 69.4593103,87.12 C74.9833494,86.2216202 80.2886299,84.4893598 85.14,82 C87.491575,80.8437336 89.5696365,79.3026861 91.262069,77.46 C91.7557617,76.8593354 92.3640531,76.3383094 93.06,75.92 C94.0788654,75.238782 94.9369229,74.389626 95.5862069,73.42 C97.68,70.78 99.7510345,68.12 101.708276,65.42 C103.264219,63.4554373 104.619824,61.3740288 105.75931,59.2 C106.806207,56.88 108.035172,54.6 109.036552,52.3 C109.860813,50.8040941 110.567972,49.2605096 111.153103,47.68 C111.42948,46.1343152 111.998747,44.6402789 112.837241,43.26 C113.002401,43.0184818 113.088992,42.7417717 113.087586,42.46 C113.389978,39.8955744 113.876464,37.3505033 114.544138,34.84 C114.797101,31.7971509 115.564129,28.8043482 116.82,25.96 C117.093563,25.6550118 117.093563,25.2249882 116.82,24.92 C115.727586,24.12 116.16,23.24 116.592414,22.42 C117.024828,21.6 117.753103,20.66 118.344828,19.8 C119.733103,17.8 121.166897,15.7 122.532414,13.62 C122.654574,13.3497908 122.620667,13.0443644 122.441379,12.8 Z" fill="#F5908E"></path>
                            <path d="M22.1668966,43.68 C22.1909069,42.6933206 22.5916853,41.7423828 23.3048276,40.98 C23.9909006,40.2887912 24.7532481,39.659046 25.5806897,39.1 C26.562685,38.3464991 28.0065718,38.2884462 29.0627586,38.96 C30.4874184,39.5381699 31.7764729,40.3453786 32.8634483,41.34 C33.755271,42.0824143 33.8157074,43.3128135 33,44.12 C32.1318702,45.4069355 30.7280132,46.3465501 29.0855172,46.74 C28.1751724,46.94 27.3103448,47.28 26.4227586,47.54 C25.4074433,47.8868185 24.2534584,47.6109811 23.577931,46.86 C22.7739382,45.9390423 22.2845585,44.8361441 22.1668966,43.68 Z" fill="#562A2A"></path>
                            <path d="M47.997931,37.7 C48.7034483,37.84 49.5455172,37.94 50.2737931,38.16 C51.8668966,38.6 53.4372414,39.1 55.0075862,39.58 C55.6869625,39.8228035 56.2663478,40.2412885 56.6689655,40.78 C56.9215216,41.1328319 56.9516119,41.5745576 56.7487574,41.9513472 C56.545903,42.3281367 56.1381834,42.587834 55.6675862,42.64 C55.1500669,42.6500141 54.6343956,42.5823774 54.1427586,42.44 C51.7531034,41.82 49.3634483,41.16 46.9965517,40.44 L46.4048276,40.22 C45.8468901,39.9532652 45.5310581,39.4140265 45.6082759,38.86 C45.7172902,38.3963191 46.1128997,38.0254851 46.6324138,37.9 C47.0819458,37.806404 47.5381556,37.7395854 47.997931,37.7 Z" fill="#FFFFFF"></path>
                            <path d="M66,34.44 C67.32,34.44 68.2758621,34.44 69.2089655,34.44 C70.2652946,34.4642527 71.2791116,34.8107255 72.0765517,35.42 C72.2104712,35.4929357 72.2919472,35.621545 72.2919472,35.76 C72.2919472,35.898455 72.2104712,36.0270643 72.0765517,36.1 C71.6542354,36.3730693 71.1747202,36.5701721 70.6655172,36.68 C69.1668223,36.9766512 67.6455729,37.1771795 66.1137931,37.28 C65.1758686,37.3351439 64.246108,37.4690885 63.3372414,37.68 C62.5126543,37.8184212 61.6630912,37.5944455 61.0613793,37.08 C60.507074,36.7862429 60.224225,36.2169505 60.3558621,35.66 C60.5151724,35.16 61.0613793,35.06 61.5393103,34.86 C62.9868056,34.4917886 64.4965944,34.3496332 66,34.44 Z" fill="#FFFFFF"></path>
                            <path d="M45.5172414,33.36 C46.6329076,33.2438026 47.761006,33.4547301 48.7262069,33.96 C49.2745242,34.2276208 49.6826795,34.6723864 49.8641379,35.2 C50.16,36.02 49.6137931,36.8 48.6806897,36.66 C46.109139,36.3955471 43.5064694,36.4832566 40.9655172,36.92 C40.4394856,36.9669997 39.9183664,36.7971138 39.5544828,36.46 C39.1774027,36.128542 39.1201729,35.608849 39.417931,35.22 C39.6783108,34.9390627 39.9944495,34.7019002 40.3510345,34.52 C41.9172682,33.7195753 43.7060528,33.3179285 45.5172414,33.36 Z" fill="#FFFFFF"></path>
                            <path d="M47.7931034,44.48 C48.7872415,44.3716029 49.7835891,44.6659149 50.5013793,45.28 C52.0717241,46.52 53.5282759,47.86 55.0531034,49.18 C55.304189,49.3592246 55.4608494,49.6209581 55.4866451,49.9043207 C55.5124409,50.1876834 55.4051235,50.4679753 55.1896552,50.68 C54.5068966,51.44 53.7786207,51.64 52.9137931,51.28 C51.0354445,50.2514424 49.3534079,48.9690262 47.9296552,47.48 C47.3850445,47.0370662 46.9777633,46.4795466 46.7462069,45.86 C46.6587879,45.5536494 46.7226204,45.2291027 46.9219795,44.9663112 C47.1213385,44.7035197 47.4376908,44.5269138 47.7931034,44.48 Z" fill="#FFFFFF"></path>
                            <path d="M54.4158621,74 C52.0161919,73.7492852 49.8827569,72.5387606 48.6351724,70.72 C48.5183005,70.5647894 48.4789282,70.3742654 48.5262361,70.1928531 C48.573544,70.0114408 48.7033972,69.8549969 48.8855172,69.76 C49.5018787,69.2678815 50.3385471,69.0473053 51.1613793,69.16 C53.4806494,69.7530593 55.6561089,70.7157224 57.5793103,72 C58.0117241,72.26 57.897931,72.82 57.5793103,73.18 C56.7121925,73.8469955 55.556086,74.1466708 54.4158621,74 Z" fill="#FFFFFF"></path>
                            <path d="M40.4193103,52.16 C42.6456688,52.2640405 44.7511757,53.0824397 46.3365517,54.46 C46.7735495,54.8568959 47.0870401,55.3458937 47.2468966,55.88 C47.3772754,56.5276484 47.0547575,57.1811002 46.4275862,57.54 C45.9943713,57.8200766 45.4042494,57.8200766 44.9710345,57.54 C44.4122536,57.2850897 43.8922885,56.9692642 43.4234483,56.6 C42.5202635,55.8275517 41.4080525,55.2700222 40.1917241,54.98 C39.8927846,54.9151051 39.6082111,54.8069625 39.3496552,54.66 C38.7351724,54.3 38.1206897,53.9 38.1662069,53.16 C38.2117241,52.42 39.0993103,52.18 40.4193103,52.16 Z" fill="#FFFFFF"></path>
                            <path d="M38.6896552,68.74 C38.4812554,69.4623735 37.8875023,70.051243 37.0965517,70.32 C36.6930225,70.4392879 36.2475633,70.3548545 35.9358621,70.1 C34.0464309,68.6203354 32.7929912,66.6150268 32.3855172,64.42 C32.2483851,63.8521947 32.5933757,63.2795336 33.2048276,63.06 C33.736498,62.7523074 34.425571,62.7523074 34.9572414,63.06 C35.2324321,63.1951191 35.4726804,63.3790041 35.6627586,63.6 C36.6868966,65.1 37.6655172,66.6 38.6441379,68.12 C38.6896552,68.32 38.6896552,68.54 38.6896552,68.74 Z" fill="#FFFFFF"></path>
                            <path d="M43.3551724,74 C43.7138879,74.0528383 44.0649441,74.1400242 44.402069,74.26 C46.1772414,75.04 47.9751724,75.84 49.7275862,76.68 C50.6606897,77.12 50.5924138,77.86 49.6137931,78.34 C48.615576,78.8906601 47.3930086,79.0295252 46.2682759,78.72 C44.4008978,78.4177462 42.7559334,77.456439 41.7165517,76.06 C41.1931034,75.12 41.4434483,74.48 42.6268966,74.06 C42.7634483,74 42.9682759,74 43.3551724,74 Z" fill="#FFFFFF"></path>
                            <path d="M58.2848276,67.26 C57.0886336,67.1898613 55.9777697,66.6909076 55.2124138,65.88 C54.5954281,65.2557011 54.039653,64.5866484 53.5510345,63.88 C53.3491848,63.6050352 53.3097016,63.2616623 53.4448757,62.9567697 C53.5800497,62.6518772 53.8734683,62.4224847 54.2337931,62.34 C55.2253219,61.9635821 56.3761435,62.1360566 57.1696552,62.78 C58.313913,63.7084419 59.6505736,64.434954 61.1068966,64.92 C61.9262069,65.2 61.9034483,65.98 61.1068966,66.44 C60.2791532,66.95252 59.2970835,67.237877 58.2848276,67.26 Z" fill="#FFFFFF"></path>
                            <path d="M60.9931034,57.26 C60.2648276,57.26 59.5365517,57.26 58.7172414,57.26 C58.1833479,57.2357776 57.701488,56.9711198 57.4427586,56.56 C57.0885448,56.2052722 57.0885448,55.6747278 57.4427586,55.32 C58.0723744,54.8287849 58.8771962,54.5458778 59.7186207,54.52 C61.7986703,54.4990101 63.8726749,54.7209515 65.8862069,55.18 C66.3009742,55.2954895 66.5791694,55.6377537 66.5689655,56.02 C66.5689655,56.34 66.2731034,56.48 66,56.6 C64.9560537,57.0397067 63.812128,57.2653791 62.6544828,57.26 L60.9931034,57.26 Z" fill="#FFFFFF"></path>
                            <path d="M71.4848276,70.8 C72.8729012,70.7584236 74.2395766,70.4870071 75.5131034,70 C75.7862069,69.88 76.1503448,69.78 76.3551724,70 C76.4950499,70.2335424 76.558098,70.4967205 76.5372414,70.76 C76.5124738,71.2250316 76.2434089,71.6535991 75.8089655,71.92 C74.2924526,72.8959567 72.4945464,73.4780539 70.62,73.6 C69.7989564,73.6310011 68.9921707,73.4041232 68.3441379,72.96 C67.9912021,72.7567156 67.7785777,72.4108384 67.7785777,72.04 C67.7785777,71.6691616 67.9912021,71.3232844 68.3441379,71.12 C69.2774518,70.5899512 70.4382653,70.4716777 71.4848276,70.8 Z" fill="#FFFFFF"></path>
                            <path d="M38.0751724,60.2 C38.1276527,59.7459901 38.4286395,59.3429501 38.8817237,59.1199777 C39.334808,58.8970054 39.8831216,58.8820866 40.3510345,59.08 C40.714512,59.2539709 41.0263511,59.5006072 41.2613793,59.8 C42.1034483,61.06 42.9,62.34 43.6737931,63.64 C43.8891001,64.06987 43.819218,64.5688386 43.4917241,64.94 C43.3457533,65.1840439 43.0874318,65.3611565 42.7825618,65.4262218 C42.4776918,65.4912871 42.1557048,65.4380239 41.8986207,65.28 C41.1167387,64.6728452 40.4005725,64.0033153 39.7593103,63.28 C39.2097929,62.5076792 38.7303782,61.6985084 38.3255172,60.86 C38.2111716,60.6500013 38.1270743,60.4282903 38.0751724,60.2 Z" fill="#FFFFFF"></path>
                            <path d="M28.9717241,55.12 C29.0255642,54.7632882 29.1015395,54.4094276 29.1993103,54.06 C29.3094073,53.6958923 29.7064271,53.4576218 30.1324138,53.5 C31.3018135,53.4963628 32.3673435,54.0894002 32.8634483,55.02 C33.182069,55.68 33.5917241,56.32 33.9331034,57.02 C34.1213779,57.4002415 34.1019573,57.8351939 33.8803583,58.2013023 C33.6587593,58.5674106 33.2591968,58.8246693 32.7951724,58.9 C32.0868458,59.0867925 31.3189428,58.9351467 30.7696552,58.5 C29.549375,57.7195922 28.8704675,56.4432877 28.9717241,55.12 Z" fill="#FFFFFF"></path>
                            <path d="M65.1806897,44.48 C66.605352,44.8082396 68.0801068,44.9364893 69.5503448,44.86 C69.9827586,44.86 70.2103448,45.64 69.9372414,46 C69.3111573,46.8782088 68.2965859,47.4871016 67.137931,47.68 C65.465861,47.9261224 63.7631708,47.4323422 62.5862069,46.36 C62.3623321,46.1611942 62.2593322,45.8807026 62.3087405,45.6043975 C62.3581487,45.3280924 62.5540806,45.0888818 62.8365517,44.96 C63.5513902,44.6103079 64.3635848,44.443998 65.1806897,44.48 Z" fill="#FFFFFF"></path>
                            <path d="M82.0675862,57.8 C82.2268966,57.8 82.5227586,57.94 82.5682759,58.06 C82.6730563,58.3049662 82.6730563,58.5750338 82.5682759,58.82 C82.111906,59.4440431 81.4308626,59.9157961 80.6337931,60.16 C79.1772414,60.64 77.697931,61.1 76.2186207,61.54 C75.6075223,61.7296047 74.9266372,61.5800163 74.4889655,61.16 C74.1444596,60.8021038 74.1444596,60.2778962 74.4889655,59.92 C74.4889655,59.92 74.6255172,59.78 74.7165517,59.74 C76.9531259,58.7581277 79.3478808,58.0836143 81.8172414,57.74 L82.0675862,57.8 Z" fill="#FFFFFF"></path>
                            <path d="M86.1641379,68.98 C86.1641379,68.84 86.1641379,68.52 86.3689655,68.34 C87.9752495,66.5271992 90.213805,65.2274319 92.7413793,64.64 C92.9395604,64.6412994 93.1285798,64.7135202 93.2648276,64.84 C93.3921068,64.9650039 93.4429524,65.1362869 93.4013793,65.3 C93.1956751,65.8194547 92.8702772,66.2960475 92.4455172,66.7 C90.9206897,67.76 89.282069,68.7 87.6662069,69.72 C87.2110345,70 86.2551724,69.58 86.1641379,68.98 Z" fill="#FFFFFF"></path>
                            <path d="M82.4544828,38 C82.6947978,38.1523254 82.9160369,38.326635 83.1144828,38.52 C83.2038501,38.6774151 83.2038501,38.8625849 83.1144828,39.02 C82.4547517,39.8528651 81.5816546,40.5379251 80.5655172,41.02 C79.5186207,41.46 78.4489655,41.84 77.3793103,42.18 C76.8641416,42.349648 76.2874437,42.1399397 76.0593103,41.7 C75.7938965,41.2905712 75.8484775,40.7789426 76.1958621,40.42 C76.2523479,40.3446902 76.3213952,40.2772703 76.4006897,40.22 C78.2360391,39.1425531 80.2920317,38.3885955 82.4544828,38 Z" fill="#FFFFFF"></path>
                            <path d="M63.9289655,80 L67.3882759,80 C67.5818587,80.0263842 67.7589169,80.1112551 67.8889655,80.24 C67.8889655,80.48 67.7068966,80.82 67.4793103,80.92 C65.6027794,81.7440448 63.5907165,82.3041923 61.5165517,82.58 C60.6972414,82.7 59.5593103,81.88 59.2406897,80.98 C59.1347621,80.7094281 59.297488,80.4144875 59.6048276,80.32 C59.9866016,80.168917 60.39416,80.0743093 60.8110345,80.04 C61.857931,80.04 62.9048276,80.04 63.9517241,80.04 L63.9289655,80 Z" fill="#FFFFFF"></path>
                            <path d="M40.7151724,47.14 C41.7021816,47.0285209 42.7042231,47.1892621 43.5827586,47.6 C44.0471327,47.8276726 44.3148727,48.2747172 44.2655172,48.74 C44.1664293,49.2969327 43.6866516,49.7424209 43.0593103,49.86 C42.8646105,49.8993512 42.6622861,49.8993512 42.4675862,49.86 C41.1733419,49.4902222 39.7790718,49.4902222 38.4848276,49.86 C38.06722,49.950827 37.6356162,49.7653972 37.4606897,49.42 C37.2557082,49.0850265 37.3006252,48.6745121 37.5744828,48.38 C38.3313659,47.5443974 39.5016235,47.082359 40.7151724,47.14 Z" fill="#FFFFFF"></path>
                            <path d="M82.0903448,46.9 C82.425903,46.8877876 82.714649,47.1065345 82.7503448,47.4 C82.8285748,47.9550718 82.6387404,48.5135701 82.2268966,48.94 C81.3738485,49.8587398 80.2471265,50.5511521 78.9724138,50.94 C78.2805735,51.2354125 77.4468471,51.0394663 77.0151724,50.48 C76.8558621,50.32 76.8103448,49.82 77.0151724,49.76 C78.6310345,48.76 80.2696552,47.76 81.9082759,46.88 C81.9310345,46.9 81.9310345,46.92 82.0903448,46.9 Z" fill="#FFFFFF"></path>
                            <path d="M1.88896552,58 L2.61724138,58.4 C7.53310345,57.18 12.9268966,56.54 16.8413793,53.86 L18.1158621,52.86 C17.6933019,49.5870293 15.8108474,46.5949436 12.8813793,44.54 C12.4489655,45.04 12.0393103,45.54 11.6524138,46.06 C10.4827025,47.458037 9.0784559,48.6920719 7.48758621,49.72 C5.80344828,50.96 4.11931034,52.22 2.45793103,53.5 C2.07103448,53.8 1.66137931,54.24 1.8662069,54.7 C2.103018,55.4181836 1.95203993,56.1921368 1.45655172,56.8 C1.21803338,57.237621 1.40727881,57.7627997 1.88896552,58 Z" fill="#F9A97F"></path>
                        </g>
                    </g>
                </g>
            </g>
        </g>
    </g>
</svg>