<?xml version="1.0" encoding="UTF-8"?>
<svg width="200px" height="200px" viewBox="0 0 200 200" version="1.1" xmlns="http://www.w3.org/2000/svg" xmlns:xlink="http://www.w3.org/1999/xlink">
    <!-- Generator: Sketch 52.6 (67491) - http://www.bohemiancoding.com/sketch -->
    <title>joined_icon</title>
    <desc>Created with Sketch.</desc>
    <defs>
        <circle id="path-1" cx="100" cy="100" r="100"></circle>
    </defs>
    <g id="Page-1" stroke="none" stroke-width="1" fill="none" fill-rule="evenodd">
        <g id="Desktop" transform="translate(-412.000000, -2595.000000)">
            <g id="result" transform="translate(0.000000, 2595.000000)">
                <g id="joined_icon" transform="translate(412.000000, 0.000000)">
                    <g>
                        <mask id="mask-2" fill="white">
                            <use xlink:href="#path-1"></use>
                        </mask>
                        <use id="Oval" fill="#F8F09B" xlink:href="#path-1"></use>
                        <g id="bear_bird" mask="url(#mask-2)">
                            <g transform="translate(31.000000, 34.000000)">
                                <g>
                                    <path d="M52.6329114,70.4029851 C52.3936709,72.8208955 52.2022785,74.5671642 52.0268354,76.3731343 C51.8035443,78.6567164 52.1225316,79.358209 54.3713924,79.4925373 C58.2078544,79.9850833 62.0982216,79.9850833 65.9346835,79.4925373 C70.4017243,78.9986003 74.8981089,78.7742558 79.3959494,78.8208955 C81.9,78.6865672 84.3881013,78.4626866 86.8921519,78.2686567 C89.3496588,78.2795359 91.454892,76.6251812 91.8683544,74.358209 C92.9646532,69.9968008 95.0839339,65.9182056 98.0726582,62.4179104 C101.262532,58.9104478 105.170127,56.4477612 110.449367,57.1044776 C111.695916,57.1950935 112.882254,57.6433316 113.846582,58.3880597 C119.237468,63.641791 121.294937,71.4925373 114.229367,77.2835821 C112.182999,78.8349692 109.904583,80.0971529 107.466835,81.0298507 C103.81443,82.5223881 103.527342,82.9701493 105.138228,86.5522388 C105.298037,86.9945624 105.484409,87.4280884 105.696456,87.8507463 C108.886329,93.2835821 109.938987,99.3432836 111.916709,105.134328 C113.575443,110.014925 115.313924,114.925373 117.387342,119.701493 C120.241436,126.211013 122.233953,133.022788 123.320506,139.985075 C124.298183,147.079149 124.830741,154.220746 124.915443,161.373134 C125.136139,165.601368 124.597006,169.834282 123.320506,173.895522 C120.561266,181.731343 116.765316,189.179104 107.546582,192.358209 C102.267342,194.164179 97.3070886,196.835821 91.5972152,197.343284 C87.8650633,197.656716 84.116962,197.746269 80.4326582,198.029851 C78.3273418,198.19403 76.2379747,198.537313 74.0529114,198.80597 C73.3257069,198.971014 72.5833778,199.070966 71.8359494,199.104478 C61.3412658,198.656716 50.7668354,198.865672 40.7346835,195.089552 C35.6149367,193.164179 30.3516456,191.61194 25.1043038,190.014925 C18.3108617,187.813671 12.2961552,183.904672 7.71949367,178.716418 C2.54920526,173.255698 0.454135257,165.82329 2.07341772,158.686567 C2.93753424,154.554147 4.14811289,150.491835 5.69392405,146.537313 C7.89493671,140.80597 10.4787342,135.19403 12.8551899,129.537313 C13.7324051,127.462687 14.641519,125.402985 15.3432911,123.268657 C17.3602719,116.879387 19.980993,110.670809 23.1744304,104.716418 C27.1139241,97.7910448 29.9688608,90.4179104 33.4936709,83.3283582 C34.3698591,81.6400571 34.4164451,79.6782819 33.6212658,77.9552239 C32.6764927,76.0246939 31.8926377,74.0286959 31.2767089,71.9850746 C30.7034764,69.2447494 30.3833079,66.463344 30.3197468,63.6716418 C30.2081013,59.7014925 32.7121519,57.0149254 36.0455696,55.2238806 C37.7861985,54.3439453 39.8052044,54.0740338 41.7394937,54.4626866 C44.7191063,55.0709495 47.3149458,56.7692254 48.9486076,59.1791045 C51.356962,62.8208955 53.223038,66.5970149 52.6329114,70.4029851 Z" id="Path" fill="#9E8787"></path>
                                    <path d="M45.3281013,77.1791045 C43.876011,76.9751119 42.438064,76.6910351 41.0217722,76.3283582 C35.9817722,74.7462687 32.6962025,66.8955224 35.2162025,62.5522388 C35.3907695,62.2427351 35.629312,61.9687742 35.9179747,61.7462687 C37.2258228,60.8507463 42.0106329,61.641791 42.6486076,63.0746269 C44.403038,66.9402985 46.141519,70.8656716 46.0617722,75.1940299 C45.9160207,75.8841691 45.6691322,76.5521692 45.3281013,77.1791045 Z" id="Path" fill="#6F575B"></path>
                                    <path d="M108.296203,65.0447761 C109.053689,65.15061 109.804429,65.2951041 110.545063,65.4776119 C111.789114,65.8358209 112.65038,66.7164179 111.996456,67.8656716 C110.002785,71.358209 108.806582,75.5671642 103.894177,76.8208955 C102.299241,77.2238806 101.150886,76.8208955 100.704304,75.4477612 C99.5559494,72.4626866 103.894177,65.5671642 107.307342,65.0895522 C107.482785,65.0149254 107.737975,65.0447761 108.296203,65.0447761 Z" id="Path" fill="#6F575B"></path>
                                    <path d="M90.5126582,157.537313 C90.3053165,159.164179 90.1936709,160.776119 89.8587342,162.343284 C89.1406443,166.598528 86.1250874,170.20498 81.8840506,171.880597 C76.1071569,174.283337 69.8638521,175.548358 63.5422785,175.597015 C63.0121587,175.543709 62.4774615,175.543709 61.9473418,175.597015 C54.7860759,177.089552 48.2149367,174.835821 41.5481013,172.880597 C32.6802532,170.283582 28.198481,161.552239 28.9002532,153.940299 C29.419961,147.99094 31.6218631,142.27811 35.28,137.38806 C38.7990925,132.475987 42.8913624,127.945623 47.4812658,123.880597 C49.6822785,121.955224 51.3250633,119.537313 54.2756962,118.432836 C58.4065823,116.940299 62.6650633,116.537313 66.3653165,118.940299 C69.2594774,120.874976 71.8014504,123.233589 73.8934177,125.925373 C78.2316456,131.507463 82.3253165,137.243781 86.1744304,143.134328 C88.9724503,147.485249 90.470691,152.459432 90.5126582,157.537313 Z" id="Path" fill="#917D7C"></path>
                                    <path d="M91.4536709,153.731343 C91.2463291,155.223881 91.1506329,156.716418 90.8156962,158.208955 C90.141141,162.237064 87.2959165,165.655511 83.2875949,167.253731 C77.7556186,169.530113 71.7862643,170.728586 65.7432911,170.776119 C65.2134465,170.718208 64.6781991,170.718208 64.1483544,170.776119 C57.3220253,172.268657 51.0379747,170.044776 44.6901266,168.19403 C36.2210127,165.731343 31.9306329,157.447761 32.6005063,150.283582 C33.104073,144.645427 35.1953085,139.232853 38.6612658,134.597015 C42.0145945,129.926695 45.9085522,125.617018 50.2724051,121.746269 C52.3617722,119.925373 53.9407595,117.641791 56.7478481,116.58209 C60.7032911,115.089552 64.7225316,114.776119 68.2792405,117.059701 C71.0527018,118.886438 73.483373,121.130792 75.4724051,123.701493 C79.6192405,128.970149 83.4470886,134.432836 87.1951899,140 C89.9140513,144.133121 91.3856639,148.878291 91.4536709,153.731343 Z" id="Path" fill="#FBCFC7"></path>
                                    <path d="M78.2794937,106.880597 C78.0398267,108.791305 77.6235845,110.678971 77.035443,112.522388 C76.0146835,114.895522 74.1805063,114.940299 72.6334177,112.880597 C70.5688772,110.504396 69.2935601,107.6142 68.9650633,104.567164 C68.9201982,103.177992 69.1195628,101.791361 69.5551899,100.462687 C69.6819011,99.9271361 70.0680216,99.4774091 70.5995823,99.2462491 C71.1311429,99.0150891 71.7474466,99.0288914 72.2665823,99.2835821 C74.1042167,99.9865302 75.7660587,101.038541 77.1470886,102.373134 C78.1518987,103.507463 77.944557,105.41791 78.2794937,106.880597 Z" id="Path" fill="#000000"></path>
                                    <path d="M60.2886076,103.567164 C59.8579747,106.119403 59.6027848,107.850746 59.2837975,109.537313 C59.0924051,110.641791 58.6298734,111.507463 57.2103797,111.656716 C55.9575156,111.892073 54.6815201,111.366681 54.0205063,110.343284 C52.4255696,108 53.3027848,102.119403 55.615443,100.477612 C56.3240441,100.104962 57.175695,100.055495 57.9281013,100.343284 C59.3646899,100.84218 60.3100867,102.133363 60.2886076,103.567164 Z" id="Path" fill="#000000"></path>
                                    <path d="M61.1498734,160.283582 C59.7622785,158.552239 60.0174684,156.537313 59.9696203,154.597015 C59.8579747,150.313433 58.9807595,148.955224 54.5468354,147.80597 C50.1129114,146.656716 48.8688608,143.283582 47.5610127,139.820896 C47.3744013,139.306298 47.4269472,138.742052 47.7058677,138.265419 C47.9847882,137.788787 48.4645179,137.443455 49.0283544,137.313433 C52.5212658,135.955224 56.0301266,134.880597 59.9377215,135.701493 C63.2232911,136.402985 66.604557,136.731343 69.8741772,137.462687 C72.5058228,138.044776 72.6174684,138.597015 71.4691139,140.910448 C70.3207595,143.223881 69.4435443,145.671642 68.2792405,148 C67.8698373,148.97679 67.1156804,149.793129 66.1420253,150.313433 C63.6379747,151.208955 63.6539241,152.925373 63.8612658,154.880597 C63.9807318,155.806508 64.0287043,156.739274 64.0048101,157.671642 C64.0836682,158.395246 63.8058211,159.113035 63.2500408,159.621511 C62.6942606,160.129986 61.921143,160.373709 61.1498734,160.283582 Z" id="Path" fill="#000000"></path>
                                    <path d="M82.6017722,81.9552239 C82.3306329,81.8358209 82.0435443,81.7462687 81.7564557,81.641791 L81.596962,81.641791 C77.4272216,80.2460865 73.0059057,79.6274964 68.5822785,79.8208955 C63.6539241,79.8208955 58.3746835,79.358209 53.9567089,81.7014925 C50.0172152,83.7761194 53.5579747,89.4626866 57.4974684,87.3731343 C58.0372465,87.1005669 58.6102669,86.8900838 59.2040506,86.7462687 C61.7081013,90 66.5726582,89.5074627 70.5121519,89.3880597 C72.7933915,89.5380144 75.056597,88.9185282 76.8918987,87.641791 C77.8823116,87.6879526 78.8681718,87.797663 79.8425316,87.9701493 C83.6225316,89.1044776 86.2701266,83.4925373 82.6017722,81.9552239 Z" id="Path" fill="#917D7C"></path>
                                    <path d="M115.632911,2.98507463 C115.409177,2.89369816 115.154873,2.89369816 114.931139,2.98507463 C114.309114,3.1641791 113.703038,3.94029851 113.081013,3.37313433 C112.458987,2.80597015 113.240506,2.35820896 113.431899,1.88059701 C113.50271,1.65647413 113.55077,1.42660021 113.575443,1.19402985 C113.635821,0.829125353 113.473054,0.463266061 113.153792,0.246268953 C112.83453,0.0292718442 112.412397,-0.00241688003 112.060253,0.164179104 C110.24087,0.706810785 108.755437,1.95026679 107.977215,3.58208955 C107.70048,4.17227459 107.323449,4.71663266 106.860759,5.19402985 C105.080857,7.19390935 102.96357,8.90805534 100.592658,10.2686567 L98.8860759,11.4029851 C99.2711095,12.876753 100.175761,14.1860444 101.453924,15.119403 C101.549425,15.1412103 101.640843,15.1764362 101.725063,15.2238806 C103.32,16.0298507 106.238734,13.4029851 107.674177,12.8358209 C109.444557,12.1492537 112.363291,12.0298507 113.288354,10.3283582 C113.385336,10.1440275 113.541483,9.9926877 113.734937,9.89552239 L113.878481,9.49253731 C114.532405,7.55223881 115.218228,5.6119403 115.856203,3.67164179 C115.92962,3.42163803 115.842711,3.15441594 115.632911,2.98507463 Z" id="Path" fill="#F9A97F"></path>
                                    <path d="M114.835443,12.7462687 C114.728524,12.6852315 114.63179,12.6097958 114.548354,12.5223881 C112.522785,10.3432836 107.131899,10.4477612 105.265823,12.7164179 C105.076623,12.963442 104.759045,13.0948908 104.436456,13.0597015 C104.265477,13.6758215 104.008049,14.2680358 103.670886,14.8208955 C103.184852,15.789788 102.913575,16.8407702 102.873418,17.9104478 C102.780317,18.7590615 102.631171,19.6014684 102.426835,20.4328358 C101.82923,22.7761406 101.366036,25.1476898 101.039241,27.5373134 C100.887134,29.822198 100.14854,32.039075 98.8860759,34 C98.3968768,34.5930521 98.1997627,35.3525882 98.3437975,36.0895522 C98.3528891,36.1639366 98.3528891,36.2390485 98.3437975,36.3134328 C98.3437975,36.3134328 98.3437975,36.3134328 98.3437975,36.4029851 C98.5444976,36.8783146 98.5780197,37.4011461 98.4394937,37.8955224 C98.5772229,38.7453576 98.8914932,39.56172 99.364557,40.2985075 C100.528861,38.8059701 101.725063,37.3134328 102.905316,35.8208955 C103.855353,34.747942 104.718991,33.61049 105.489114,32.4179104 C106.029749,31.1996382 106.784481,30.074642 107.722025,29.0895522 C107.898287,28.9183365 108.024601,28.7076244 108.088861,28.4776119 C108.860835,26.4373621 109.766347,24.4435385 110.800253,22.5074627 C111.630181,20.0638748 112.845075,17.7498417 114.40481,15.641791 C114.662961,15.4211628 114.728598,15.0649067 114.564304,14.7761194 C113.926329,13.9552239 114.356962,13.3134328 114.835443,12.7462687 Z" id="Path" fill="#FBCFC7"></path>
                                    <path d="M109.731646,9.55223881 C109.599479,9.40083577 109.397965,9.31764013 109.189367,9.32835821 C108.647089,9.32835821 107.977215,9.89552239 107.59443,9.32835821 C107.211646,8.76119403 107.961266,8.47761194 108.216456,8.07462687 C108.322295,7.880427 108.402626,7.6749526 108.455696,7.46268657 C108.59928,7.16973366 108.560371,6.82678077 108.354258,6.56857036 C108.148145,6.31035996 107.80776,6.17814856 107.466835,6.2238806 C105.853508,6.35054412 104.379696,7.13008555 103.431646,8.35820896 C103.103395,8.80957135 102.693136,9.20359388 102.219494,9.52238806 C100.338036,10.8431671 98.2288359,11.8527751 95.9832911,12.5074627 L87.2749367,15.4925373 C86.479282,15.8437289 85.6520121,16.1284189 84.8027848,16.3432836 C82.5294392,16.9146958 80.1990961,17.2648128 77.8488608,17.3880597 C76.5209801,17.3814904 75.2027009,17.5988945 73.9572152,18.0298507 C72.4799507,18.4727891 70.9287563,18.6599296 69.3797468,18.5820896 C67.9086813,18.5124451 66.4341947,18.6228308 64.9936709,18.9104478 C63.2047963,19.2547782 61.3810357,19.4149349 59.5549367,19.3880597 C57.4196757,19.3950048 55.2876706,19.5446392 53.1751899,19.8358209 C51.7875949,20.0149254 50.4,20.1791045 49.0283544,20.4029851 C47.4534742,20.7565929 45.9077339,21.2154824 44.403038,21.7761194 C42.5890645,22.3053404 40.9445923,23.2491945 39.6182278,24.5223881 C38.4858228,25.5970149 37.3055696,26.6567164 36.1891139,27.761194 C35.0726582,28.8656716 34.7696203,30.4925373 33.4298734,31.4477612 C33.129404,32.0504717 32.7773719,32.6294711 32.3772152,33.1791045 C33.063038,36.8507463 34.9291139,40.1641791 36.1093671,43.6268657 C36.8490333,44.7575592 37.4331482,45.9711406 37.8478481,47.238806 C38.1897174,48.4432331 38.8165652,49.5603283 39.6820253,50.5074627 C41.276962,52.3432836 42.8718987,54.2238806 44.4668354,56.1940299 C45.5639473,57.5731298 46.8033295,58.8479214 48.1670886,60 C49.8306373,61.4791489 51.8088899,62.6132897 53.9726582,63.3283582 C56.2374684,64.1044776 58.5660759,64.8208955 60.8946835,65.3432836 L61.0701266,65.3432836 C64.9174716,65.4652939 68.7692193,65.3556147 72.601519,65.0149254 C76.4727961,64.3444926 80.190766,63.0517611 83.5906329,61.1940299 C85.2386296,60.3311445 86.6949466,59.181109 87.8810127,57.8059701 C88.2269952,57.357713 88.6532892,56.9688876 89.1410127,56.6567164 C89.8550392,56.1483448 90.4563706,55.5146462 90.9113924,54.7910448 C92.3787342,52.8208955 93.8301266,50.8358209 95.2017722,48.8208955 C96.292186,47.3548039 97.2422009,45.801514 98.0407595,44.1791045 C98.7744304,42.4477612 99.6356962,40.7462687 100.337468,39.0298507 C100.915115,37.913503 101.410696,36.7615743 101.820759,35.5820896 C102.014445,34.4285934 102.413391,33.313641 103.001013,32.2835821 C103.116758,32.1033446 103.177441,31.8968445 103.176456,31.6865672 C103.388373,29.7728167 103.729306,27.8735099 104.197215,26 C104.374493,23.7292171 104.91203,21.4957823 105.792152,19.3731343 C105.983867,19.1455312 105.983867,18.8246181 105.792152,18.5970149 C105.026582,18 105.32962,17.3432836 105.632658,16.7313433 C105.935696,16.119403 106.446076,15.4179104 106.860759,14.7761194 C107.833671,13.2835821 108.838481,11.7164179 109.795443,10.1641791 C109.881054,9.96253044 109.857291,9.73460032 109.731646,9.55223881 Z" id="Path" fill="#F5908E"></path>
                                    <path d="M39.4587342,32.5970149 C39.4755608,31.860687 39.7564285,31.1510319 40.2562025,30.5820896 C40.7370063,30.0662621 41.2712636,29.596303 41.8511392,29.1791045 C42.539327,28.6167903 43.5512108,28.5734673 44.2913924,29.0746269 C45.2898018,29.5060969 46.1931783,30.1084915 46.9549367,30.8507463 C47.579931,31.4047868 47.6222852,32.3229951 47.0506329,32.9253731 C46.4422427,33.8857728 45.458412,34.5869777 44.3073418,34.880597 C43.6693671,35.0298507 43.0632911,35.2835821 42.4412658,35.4776119 C41.7297272,35.7364317 40.9210083,35.5305829 40.4475949,34.9701493 C39.8841523,34.2828674 39.5411923,33.459809 39.4587342,32.5970149 Z" id="Path" fill="#562A2A"></path>
                                    <path d="M57.5612658,28.1343284 C58.0556962,28.238806 58.6458228,28.3134328 59.1562025,28.4776119 C60.2726582,28.8059701 61.3731646,29.1791045 62.4736709,29.5373134 C62.9497815,29.7185101 63.3558179,30.0308123 63.6379747,30.4328358 C63.8149674,30.6961432 63.8360548,31.0257893 63.6938933,31.3069755 C63.5517318,31.5881617 63.2659997,31.7819657 62.9362025,31.8208955 C62.5735222,31.8283687 62.2121369,31.7778936 61.8675949,31.6716418 C60.1929114,31.2089552 58.5182278,30.7164179 56.8594937,30.1791045 L56.4448101,30.0149254 C56.0538045,29.8158695 55.8324677,29.4134526 55.8865823,29 C55.9629801,28.6539695 56.2402255,28.3772277 56.6043038,28.2835821 C56.9193383,28.2137343 57.2390527,28.1638697 57.5612658,28.1343284 Z" id="Path" fill="#FFFFFF"></path>
                                    <path d="M70.1772152,25.7014925 C71.1022785,25.7014925 71.7721519,25.7014925 72.4260759,25.7014925 C73.1663572,25.7195916 73.8768458,25.9781534 74.4356962,26.4328358 C74.5295477,26.4872655 74.5866465,26.5832425 74.5866465,26.6865672 C74.5866465,26.7898918 74.5295477,26.8858689 74.4356962,26.9402985 C74.1397346,27.1440816 73.8036877,27.2911732 73.4468354,27.3731343 C72.3965418,27.5945158 71.3304418,27.7441638 70.256962,27.8208955 C69.5996594,27.8620477 68.948078,27.9620063 68.3111392,28.119403 C67.733264,28.2227024 67.1378856,28.0555563 66.7162025,27.6716418 C66.3277423,27.4524201 66.1295202,27.027575 66.2217722,26.6119403 C66.3334177,26.238806 66.7162025,26.1641791 67.0511392,26.0149254 C68.0655519,25.7401408 69.1236202,25.6340546 70.1772152,25.7014925 Z" id="Path" fill="#FFFFFF"></path>
                                    <path d="M55.8227848,24.8955224 C56.6046498,24.8088079 57.3952275,24.9662165 58.0716456,25.3432836 C58.4559094,25.5430006 58.7419469,25.8749152 58.8691139,26.2686567 C59.0764557,26.880597 58.6936709,27.4626866 58.0397468,27.358209 C56.2375899,27.160856 54.4136247,27.2263109 52.6329114,27.5522388 C52.2642655,27.5873132 51.8990623,27.4605327 51.6440506,27.2089552 C51.3797909,26.9615985 51.3396839,26.5737679 51.5483544,26.2835821 C51.73083,26.0739274 51.9523818,25.8969405 52.2022785,25.761194 C53.2999037,25.1638621 54.5534938,24.8641258 55.8227848,24.8955224 Z" id="Path" fill="#FFFFFF"></path>
                                    <path d="M57.4177215,33.1940299 C58.114419,33.1131365 58.8126649,33.3327723 59.3156962,33.7910448 C60.4162025,34.7164179 61.436962,35.7164179 62.5055696,36.7014925 C62.6815317,36.8352422 62.7913202,37.0305657 62.809398,37.2420304 C62.8274758,37.453495 62.7522672,37.6626681 62.6012658,37.8208955 C62.1227848,38.3880597 61.6124051,38.5373134 61.0063291,38.2686567 C59.6899721,37.5010764 58.5111915,36.5440494 57.5134177,35.4328358 C57.1317515,35.1022882 56.8463266,34.6862288 56.6840506,34.2238806 C56.6227869,33.9952608 56.6675211,33.7530617 56.807233,33.5569487 C56.9469449,33.3608356 57.1686463,33.2290402 57.4177215,33.1940299 Z" id="Path" fill="#FFFFFF"></path>
                                    <path d="M62.0589873,55.2238806 C60.3772852,55.03678 58.8821622,54.1334034 58.0078481,52.7761194 C57.9259436,52.6602906 57.8983513,52.5181085 57.9315049,52.3827262 C57.9646586,52.2473439 58.0556604,52.1305947 58.1832911,52.0597015 C58.6152407,51.6924488 59.2015825,51.5278397 59.7782278,51.6119403 C61.4035851,52.0545219 62.9281592,52.7729271 64.2759494,53.7313433 C64.5789873,53.9253731 64.4992405,54.3432836 64.2759494,54.6119403 C63.6682684,55.1096981 62.8580626,55.3333364 62.0589873,55.2238806 Z" id="Path" fill="#FFFFFF"></path>
                                    <path d="M52.2501266,38.9253731 C53.8103709,39.0030153 55.2859217,39.613761 56.396962,40.641791 C56.7032125,40.937982 56.9229084,41.3029057 57.0349367,41.7014925 C57.1263069,42.1848122 56.9002846,42.6724628 56.4607595,42.9402985 C56.1571601,43.1493109 55.7435994,43.1493109 55.44,42.9402985 C55.0484033,42.750067 54.6840088,42.5143763 54.355443,42.238806 C53.7224861,41.662352 52.9430425,41.2462852 52.0906329,41.0298507 C51.8811344,40.9814217 51.6817037,40.9007183 51.5005063,40.7910448 C51.0698734,40.5223881 50.6392405,40.2238806 50.6711392,39.6716418 C50.703038,39.119403 51.3250633,38.9402985 52.2501266,38.9253731 Z" id="Path" fill="#FFFFFF"></path>
                                    <path d="M51.0379747,51.2985075 C50.891927,51.8375922 50.4758215,52.277047 49.921519,52.4776119 C49.6387235,52.5666328 49.3265432,52.5036227 49.1081013,52.3134328 C47.7839774,51.2092055 46.90556,49.7127065 46.62,48.0746269 C46.523897,47.6508916 46.7656683,47.2235325 47.1941772,47.0597015 C47.5667748,46.8300801 48.0496809,46.8300801 48.4222785,47.0597015 C48.6151337,47.1605367 48.783501,47.2977643 48.9167089,47.4626866 C49.6344304,48.5820896 50.3202532,49.7014925 51.0060759,50.8358209 C51.0379747,50.9850746 51.0379747,51.1492537 51.0379747,51.2985075 Z" id="Path" fill="#FFFFFF"></path>
                                    <path d="M54.3075949,55.2238806 C54.5589847,55.2633122 54.8050069,55.3283763 55.0412658,55.4179104 C56.2853165,56 57.5453165,56.5970149 58.7734177,57.2238806 C59.4273418,57.5522388 59.3794937,58.1044776 58.6936709,58.4626866 C57.9941148,58.8736269 57.1373329,58.9772576 56.3491139,58.7462687 C55.040445,58.5207061 53.887645,57.8033127 53.1592405,56.761194 C52.7924051,56.0597015 52.9678481,55.5820896 53.7972152,55.2686567 C53.8929114,55.2238806 54.0364557,55.2238806 54.3075949,55.2238806 Z" id="Path" fill="#FFFFFF"></path>
                                    <path d="M64.7703797,50.1940299 C63.9320804,50.1416876 63.1535809,49.7693341 62.6172152,49.1641791 C62.1848282,48.6982844 61.7953379,48.1989913 61.4529114,47.6716418 C61.311454,47.4664442 61.283784,47.2101957 61.3785147,46.982664 C61.4732454,46.7551322 61.6788748,46.5839438 61.9313924,46.5223881 C62.6262613,46.2414792 63.4327634,46.3701915 63.9888608,46.8507463 C64.7907629,47.5436134 65.7275021,48.0857866 66.7481013,48.4477612 C67.3222785,48.6567164 67.3063291,49.238806 66.7481013,49.5820896 C66.1680142,49.9645672 65.4797743,50.1775202 64.7703797,50.1940299 Z" id="Path" fill="#FFFFFF"></path>
                                    <path d="M66.6683544,42.7313433 C66.1579747,42.7313433 65.6475949,42.7313433 65.0734177,42.7313433 C64.6992622,42.7132669 64.3615722,42.515761 64.1802532,42.2089552 C63.9320181,41.944233 63.9320181,41.5483043 64.1802532,41.2835821 C64.6214914,40.9170037 65.185515,40.705879 65.7751899,40.6865672 C67.2329001,40.670903 68.686374,40.836531 70.0974684,41.1791045 C70.3881396,41.2652906 70.5831003,41.5207117 70.5759494,41.8059701 C70.5759494,42.0447761 70.3686076,42.1492537 70.1772152,42.238806 C69.4456118,42.5669453 68.6439424,42.7353575 67.8326582,42.7313433 L66.6683544,42.7313433 Z" id="Path" fill="#FFFFFF"></path>
                                    <path d="M74.0210127,52.8358209 C74.9937823,52.8047937 75.951556,52.6022441 76.8440506,52.238806 C77.035443,52.1492537 77.2906329,52.0746269 77.4341772,52.238806 C77.5322041,52.4130914 77.5763886,52.6094929 77.5617722,52.8059701 C77.5444149,53.1530087 77.3558527,53.4728351 77.0513924,53.6716418 C75.9886117,54.3999677 74.7286292,54.8343686 73.4149367,54.9253731 C72.8395448,54.9485083 72.274145,54.7791964 71.82,54.4477612 C71.5726606,54.2960565 71.4236523,54.0379391 71.4236523,53.761194 C71.4236523,53.4844489 71.5726606,53.2263316 71.82,53.0746269 C72.4740715,52.679068 73.287576,52.5908043 74.0210127,52.8358209 Z" id="Path" fill="#FFFFFF"></path>
                                    <path d="M50.6073418,44.9253731 C50.6441203,44.5865598 50.8550535,44.2857837 51.1725774,44.1193864 C51.4901013,43.9529891 51.8743626,43.9418557 52.2022785,44.0895522 C52.4570055,44.2193812 52.6755441,44.4034382 52.8402532,44.6268657 C53.4303797,45.5671642 53.9886076,46.5223881 54.5308861,47.4925373 C54.6817744,47.8133358 54.6328007,48.1857004 54.4032911,48.4626866 C54.300994,48.6448089 54.1199608,48.7769824 53.9063062,48.8255387 C53.6926517,48.8740949 53.4670014,48.8343462 53.2868354,48.7164179 C52.7388882,48.2633173 52.236995,47.7636681 51.7875949,47.2238806 C51.4024901,46.6475218 51.0665136,46.043663 50.7827848,45.4179104 C50.7026507,45.261195 50.6437149,45.0957391 50.6073418,44.9253731 Z" id="Path" fill="#FFFFFF"></path>
                                    <path d="M44.2275949,41.1343284 C44.2653263,40.8681256 44.3185702,40.6040505 44.3870886,40.3432836 C44.4642451,40.0715614 44.7424788,39.8937476 45.0410127,39.9253731 C45.8605345,39.9226588 46.6072637,40.365224 46.9549367,41.0597015 C47.1782278,41.5522388 47.4653165,42.0298507 47.704557,42.5522388 C47.8365008,42.8360012 47.8228907,43.1605924 47.6675929,43.4338077 C47.5122951,43.7070229 47.2322795,43.8990069 46.9070886,43.9552239 C46.4106894,44.0946213 45.8725387,43.9814527 45.4875949,43.6567164 C44.6324158,43.0743225 44.1566337,42.1218565 44.2275949,41.1343284 Z" id="Path" fill="#FFFFFF"></path>
                                    <path d="M69.603038,33.1940299 C70.6014492,33.4389848 71.6349655,33.5346935 72.6653165,33.4776119 C72.9683544,33.4776119 73.1278481,34.0597015 72.9364557,34.3283582 C72.4976925,34.9837379 71.7866753,35.4381355 70.9746835,35.5820896 C69.8028876,35.765763 68.6096329,35.3972703 67.7848101,34.5970149 C67.6279174,34.4486524 67.5557345,34.2393303 67.5903601,34.0331325 C67.6249857,33.8269346 67.7622958,33.6484193 67.9602532,33.5522388 C68.4612159,33.2912745 69.0304064,33.1671627 69.603038,33.1940299 Z" id="Path" fill="#FFFFFF"></path>
                                    <path d="M81.4374684,43.1343284 C81.5491139,43.1343284 81.7564557,43.238806 81.7883544,43.3283582 C81.8617852,43.5111688 81.8617852,43.7127118 81.7883544,43.8955224 C81.4685279,44.3612262 80.9912489,44.7132807 80.4326582,44.8955224 C79.4118987,45.2537313 78.3751899,45.5970149 77.338481,45.9253731 C76.9102199,46.0668692 76.4330518,45.9552361 76.1263291,45.641791 C75.8848975,45.3747044 75.8848975,44.9835046 76.1263291,44.7164179 C76.1263291,44.7164179 76.2220253,44.6119403 76.2858228,44.5820896 C77.8532263,43.849349 79.5314838,43.3459808 81.2620253,43.0895522 L81.4374684,43.1343284 Z" id="Path" fill="#FFFFFF"></path>
                                    <path d="M84.3083544,51.4776119 C84.3083544,51.3731343 84.3083544,51.1343284 84.4518987,51 C85.5775914,49.6471636 87.1463835,48.6771879 88.9177215,48.238806 C89.056608,48.2397757 89.1890737,48.2936718 89.284557,48.3880597 C89.373755,48.4813462 89.4093878,48.6091693 89.3802532,48.7313433 C89.2360945,49.118996 89.0080539,49.4746623 88.7103797,49.7761194 C87.6417722,50.5671642 86.4934177,51.2686567 85.3610127,52.0298507 C85.0420253,52.238806 84.3721519,51.9253731 84.3083544,51.4776119 Z" id="Path" fill="#FFFFFF"></path>
                                    <path d="M81.7086076,28.358209 C81.8770217,28.4718846 82.0320673,28.6019664 82.1711392,28.7462687 C82.2337684,28.8637426 82.2337684,29.0019291 82.1711392,29.119403 C81.7087961,29.7409441 81.0969248,30.2521829 80.3848101,30.6119403 C79.6511392,30.9402985 78.901519,31.2238806 78.1518987,31.4776119 C77.7908656,31.604215 77.3867126,31.4477162 77.2268354,31.119403 C77.0408319,30.8138591 77.0790826,30.4320467 77.3225316,30.1641791 C77.3621172,30.1079778 77.410506,30.0576644 77.4660759,30.0149254 C78.7522989,29.2108605 80.1931499,28.6482056 81.7086076,28.358209 Z" id="Path" fill="#FFFFFF"></path>
                                    <path d="M68.7258228,59.7014925 L71.1501266,59.7014925 C71.2857905,59.7211822 71.4098739,59.7845187 71.5010127,59.880597 C71.5010127,60.0597015 71.3734177,60.3134328 71.2139241,60.3880597 C69.8988408,61.0030185 68.488776,61.421039 67.0351899,61.6268657 C66.4610127,61.7164179 65.6635443,61.1044776 65.4402532,60.4328358 C65.3660186,60.2309165 65.4800577,60.0108115 65.695443,59.9402985 C65.9629924,59.82755 66.2486116,59.7569473 66.5407595,59.7313433 C67.2744304,59.7313433 68.0081013,59.7313433 68.7417722,59.7313433 L68.7258228,59.7014925 Z" id="Path" fill="#FFFFFF"></path>
                                    <path d="M52.4574684,35.1791045 C53.1491698,35.0959111 53.8514061,35.2158672 54.4670886,35.5223881 C54.7925246,35.692293 54.9801582,36.0259084 54.9455696,36.3731343 C54.8761282,36.7887557 54.5398974,37.1212096 54.1002532,37.2089552 C53.9638064,37.2383218 53.8220164,37.2383218 53.6855696,37.2089552 C52.7785561,36.9330016 51.8014439,36.9330016 50.8944304,37.2089552 C50.6017687,37.2767366 50.2992984,37.1383561 50.1767089,36.880597 C50.0330567,36.6306168 50.0645348,36.3242628 50.2564557,36.1044776 C50.7868836,35.4808936 51.6070066,35.1360888 52.4574684,35.1791045 Z" id="Path" fill="#FFFFFF"></path>
                                    <path d="M81.4534177,37.9850746 C81.6885788,37.9759609 81.8909335,38.1392049 81.9159494,38.358209 C81.9707734,38.7724417 81.8377364,39.1892314 81.5491139,39.5074627 C80.9512931,40.1930894 80.1616801,40.709815 79.2683544,41 C78.7835089,41.2204571 78.1992289,41.0742286 77.8967089,40.6567164 C77.7850633,40.5373134 77.7531646,40.1641791 77.8967089,40.119403 C79.0291139,39.3731343 80.1774684,38.6268657 81.3258228,37.9701493 C81.3417722,37.9850746 81.3417722,38 81.4534177,37.9850746 Z" id="Path" fill="#FFFFFF"></path>
                                    <path d="M25.2478481,43.2835821 L25.7582278,43.5820896 C29.2032911,42.6716418 32.9832911,42.1940299 35.7265823,40.1940299 L36.6197468,39.4477612 C36.3236143,37.0052458 35.0043798,34.772346 32.9513924,33.238806 C32.6483544,33.6119403 32.3612658,33.9850746 32.0901266,34.3731343 C31.2703865,35.4164455 30.2862827,36.3373671 29.1713924,37.1044776 C27.9911392,38.0298507 26.8108861,38.9701493 25.6465823,39.9253731 C25.375443,40.1492537 25.0883544,40.4776119 25.2318987,40.8208955 C25.3978573,41.3568534 25.292051,41.9344305 24.9448101,42.3880597 C24.7776552,42.7146425 24.9102794,43.1065669 25.2478481,43.2835821 Z" id="Path" fill="#F9A97F"></path>
                                    <path d="M72.7610127,63.6716418 C72.0358813,64.4690122 71.4443295,65.3647931 71.0065823,66.3283582 L71.0065823,66.4626866 C71.0065823,66.9402985 71.0863291,67.4179104 71.1022785,67.9552239 C70.9983321,69.1921204 70.9983321,70.4347453 71.1022785,71.6716418 C71.3460676,73.3784269 71.4633098,75.0989572 71.4531646,76.8208955 C71.4531646,78 71.3734177,79.1791045 71.4531646,80.3432836 C71.5329114,81.5074627 71.82,83.0597015 72.0273418,84.4328358 C72.0705061,84.6361562 72.1457606,84.8323344 72.2506329,85.0149254 C72.5058228,85.5223881 72.8248101,86.0597015 73.4946835,86.0298507 C74.0948775,85.941978 74.5896106,85.5426665 74.7706329,85 C74.9038449,84.7540053 74.9799411,84.4844223 74.9939241,84.2089552 C75.0091667,82.6256386 75.1370444,81.0450285 75.3767089,79.4776119 C75.4770307,78.2859059 75.8818049,77.1341901 76.556962,76.119403 C77.0761037,75.2852274 77.2994498,74.3185714 77.1949367,73.358209 C77.0992405,72.5522388 77.5617722,71.7313433 77.1949367,70.9253731 C77.5617722,70.1044776 77.8967089,69.2686567 78.3273418,68.4776119 C78.6905972,67.6453777 78.8539444,66.7485996 78.8058228,65.8507463 C78.8334515,65.4129935 78.9028415,64.9784283 79.0131646,64.5522388 C78.3478571,63.6119109 77.2879456,62.9794074 76.0962372,62.8115588 C74.9045288,62.6437102 73.6926224,62.9562349 72.7610127,63.6716418 Z M75.5362025,68.7761194 C74.849936,70.1770176 74.5484075,71.716124 74.6589873,73.2537313 C74.6911542,73.3863733 74.6911542,73.5240744 74.6589873,73.6567164 C74.5792405,73.8358209 74.5313924,74.0895522 74.2283544,74 C74.1006885,73.9478853 74.0063164,73.8430134 73.9731646,73.7164179 C73.9493504,73.373496 73.9493504,73.0294891 73.9731646,72.6865672 C73.9731646,71.641791 73.9731646,70.6119403 73.9731646,69.5820896 L73.9731646,65.6716418 C73.9225378,65.1762533 74.2097216,64.704455 74.6908861,64.4925373 C75.4564557,64.1641791 76.0625316,64.4925373 76.1103797,65.1791045 C76.2154841,66.4034236 76.0190538,67.6339889 75.5362025,68.7761194 Z" id="Shape" fill="#6F575B" fill-rule="nonzero"></path>
                                    <path d="M60.783038,67.2985075 C60.7899526,67.3330328 60.7899526,67.3684598 60.783038,67.4029851 C61.4210127,70.1044776 61.8356962,72.8208955 62.1865823,75.5671642 C62.4258228,77.4029851 62.4577215,79.2686567 62.7288608,81.119403 C62.9525487,82.2675749 63.0805291,83.4302808 63.1116456,84.5970149 C63.1206457,84.7352239 63.1529433,84.8712318 63.2073418,85 C63.2882268,85.3119415 63.5413378,85.5595122 63.8707804,85.6489167 C64.200223,85.7383212 64.5556023,85.6558834 64.8022785,85.4328358 C65.0428277,85.2761288 65.24417,85.0724363 65.3924051,84.8358209 C65.8807441,83.9855177 66.179197,83.0511612 66.2696203,82.0895522 C66.2696203,80.2985075 66.8756962,78.5671642 66.7640506,76.761194 C66.7765866,76.4135004 66.852089,76.0703192 66.9873418,75.7462687 C67.4582946,74.2954523 67.6843073,72.7847228 67.6572152,71.2686567 C67.7517167,69.5484052 68.1282668,67.8519735 68.7736709,66.238806 C68.8168139,66.0968426 68.8993582,65.9681013 69.0129114,65.8656716 C67.7529114,62.761194 61.2934177,64.4029851 60.783038,67.2985075 Z M65.3924051,73.8507463 C65.355318,74.3298824 65.2479831,74.801968 65.0734177,75.2537313 C65.0734177,75.4626866 65.0734177,75.8208955 64.6906329,75.7910448 C64.6906329,75.7910448 64.5789873,75.4179104 64.563038,75.2089552 C64.5285542,74.6647029 64.4377494,74.1248628 64.2918987,73.5970149 C64.0206694,72.6182489 63.8392508,71.619596 63.7496203,70.6119403 C63.7164397,69.3703271 63.496297,68.1392981 63.0956962,66.9552239 C62.7129114,66 63.2232911,65.4626866 64.3397468,65.7313433 C64.7017134,65.7930271 65.0587488,65.877802 65.4083544,65.9850746 C65.9346835,66.1492537 66.0941772,66.3880597 66.0622785,66.6716418 C65.6539805,69.0463941 65.4301031,71.4457115 65.3924051,73.8507463 Z" id="Shape" fill="#6F575B" fill-rule="nonzero"></path>
                                </g>
                            </g>
                        </g>
                    </g>
                </g>
            </g>
        </g>
    </g>
</svg>